<?xml version="1.0" encoding="utf-8" standalone="no"?>
<!DOCTYPE svg PUBLIC "-//W3C//DTD SVG 1.1//EN"
  "http://www.w3.org/Graphics/SVG/1.1/DTD/svg11.dtd">
<svg xmlns:xlink="http://www.w3.org/1999/xlink" width="720pt" height="432pt" viewBox="0 0 720 432" xmlns="http://www.w3.org/2000/svg" version="1.1">
 <metadata>
  <rdf:RDF xmlns:dc="http://purl.org/dc/elements/1.1/" xmlns:cc="http://creativecommons.org/ns#" xmlns:rdf="http://www.w3.org/1999/02/22-rdf-syntax-ns#">
   <cc:Work>
    <dc:type rdf:resource="http://purl.org/dc/dcmitype/StillImage"/>
    <dc:date>2026-05-28T01:17:50.386581</dc:date>
    <dc:format>image/svg+xml</dc:format>
    <dc:creator>
     <cc:Agent>
      <dc:title>Matplotlib v3.10.1, https://matplotlib.org/</dc:title>
     </cc:Agent>
    </dc:creator>
   </cc:Work>
  </rdf:RDF>
 </metadata>
 <defs>
  <style type="text/css">*{stroke-linejoin: round; stroke-linecap: butt}</style>
 </defs>
 <g id="figure_1">
  <g id="patch_1">
   <path d="M 0 432 
L 720 432 
L 720 0 
L 0 0 
z
" style="fill: #ffffff"/>
  </g>
  <g id="axes_1">
   <g id="patch_2">
    <path d="M 33.64 391.41702 
L 697.84033 391.41702 
L 697.84033 26.88 
L 33.64 26.88 
z
" style="fill: #ffffff"/>
   </g>
   <g id="matplotlib.axis_1">
    <g id="xtick_1">
     <g id="line2d_1">
      <path d="M 33.64 391.41702 
L 33.64 26.88 
" clip-path="url(#p4125f2a7a7)" style="fill: none; stroke: #b0b0b0; stroke-width: 0.8; stroke-linecap: square"/>
     </g>
     <g id="line2d_2">
      <defs>
       <path id="m06602ac694" d="M 0 0 
L 0 3.5 
" style="stroke: #000000; stroke-width: 0.8"/>
      </defs>
      <g>
       <use xlink:href="#m06602ac694" x="33.64" y="391.41702" style="stroke: #000000; stroke-width: 0.8"/>
      </g>
     </g>
     <g id="text_1">
      <!-- 0.00 -->
      <g transform="translate(27.719086 419.534101) rotate(-45) scale(0.1 -0.1)">
       <defs>
        <path id="DejaVuSans-30" d="M 2034 4250 
Q 1547 4250 1301 3770 
Q 1056 3291 1056 2328 
Q 1056 1369 1301 889 
Q 1547 409 2034 409 
Q 2525 409 2770 889 
Q 3016 1369 3016 2328 
Q 3016 3291 2770 3770 
Q 2525 4250 2034 4250 
z
M 2034 4750 
Q 2819 4750 3233 4129 
Q 3647 3509 3647 2328 
Q 3647 1150 3233 529 
Q 2819 -91 2034 -91 
Q 1250 -91 836 529 
Q 422 1150 422 2328 
Q 422 3509 836 4129 
Q 1250 4750 2034 4750 
z
" transform="scale(0.015625)"/>
        <path id="DejaVuSans-2e" d="M 684 794 
L 1344 794 
L 1344 0 
L 684 0 
L 684 794 
z
" transform="scale(0.015625)"/>
       </defs>
       <use xlink:href="#DejaVuSans-30"/>
       <use xlink:href="#DejaVuSans-2e" transform="translate(63.623047 0)"/>
       <use xlink:href="#DejaVuSans-30" transform="translate(95.410156 0)"/>
       <use xlink:href="#DejaVuSans-30" transform="translate(159.033203 0)"/>
      </g>
     </g>
    </g>
    <g id="xtick_2">
     <g id="line2d_3">
      <path d="M 116.665041 391.41702 
L 116.665041 26.88 
" clip-path="url(#p4125f2a7a7)" style="fill: none; stroke: #b0b0b0; stroke-width: 0.8; stroke-linecap: square"/>
     </g>
     <g id="line2d_4">
      <g>
       <use xlink:href="#m06602ac694" x="116.665041" y="391.41702" style="stroke: #000000; stroke-width: 0.8"/>
      </g>
     </g>
     <g id="text_2">
      <!-- 0.25 -->
      <g transform="translate(110.744127 419.534101) rotate(-45) scale(0.1 -0.1)">
       <defs>
        <path id="DejaVuSans-32" d="M 1228 531 
L 3431 531 
L 3431 0 
L 469 0 
L 469 531 
Q 828 903 1448 1529 
Q 2069 2156 2228 2338 
Q 2531 2678 2651 2914 
Q 2772 3150 2772 3378 
Q 2772 3750 2511 3984 
Q 2250 4219 1831 4219 
Q 1534 4219 1204 4116 
Q 875 4013 500 3803 
L 500 4441 
Q 881 4594 1212 4672 
Q 1544 4750 1819 4750 
Q 2544 4750 2975 4387 
Q 3406 4025 3406 3419 
Q 3406 3131 3298 2873 
Q 3191 2616 2906 2266 
Q 2828 2175 2409 1742 
Q 1991 1309 1228 531 
z
" transform="scale(0.015625)"/>
        <path id="DejaVuSans-35" d="M 691 4666 
L 3169 4666 
L 3169 4134 
L 1269 4134 
L 1269 2991 
Q 1406 3038 1543 3061 
Q 1681 3084 1819 3084 
Q 2600 3084 3056 2656 
Q 3513 2228 3513 1497 
Q 3513 744 3044 326 
Q 2575 -91 1722 -91 
Q 1428 -91 1123 -41 
Q 819 9 494 109 
L 494 744 
Q 775 591 1075 516 
Q 1375 441 1709 441 
Q 2250 441 2565 725 
Q 2881 1009 2881 1497 
Q 2881 1984 2565 2268 
Q 2250 2553 1709 2553 
Q 1456 2553 1204 2497 
Q 953 2441 691 2322 
L 691 4666 
z
" transform="scale(0.015625)"/>
       </defs>
       <use xlink:href="#DejaVuSans-30"/>
       <use xlink:href="#DejaVuSans-2e" transform="translate(63.623047 0)"/>
       <use xlink:href="#DejaVuSans-32" transform="translate(95.410156 0)"/>
       <use xlink:href="#DejaVuSans-35" transform="translate(159.033203 0)"/>
      </g>
     </g>
    </g>
    <g id="xtick_3">
     <g id="line2d_5">
      <path d="M 199.690082 391.41702 
L 199.690082 26.88 
" clip-path="url(#p4125f2a7a7)" style="fill: none; stroke: #b0b0b0; stroke-width: 0.8; stroke-linecap: square"/>
     </g>
     <g id="line2d_6">
      <g>
       <use xlink:href="#m06602ac694" x="199.690082" y="391.41702" style="stroke: #000000; stroke-width: 0.8"/>
      </g>
     </g>
     <g id="text_3">
      <!-- 0.50 -->
      <g transform="translate(193.769168 419.534101) rotate(-45) scale(0.1 -0.1)">
       <use xlink:href="#DejaVuSans-30"/>
       <use xlink:href="#DejaVuSans-2e" transform="translate(63.623047 0)"/>
       <use xlink:href="#DejaVuSans-35" transform="translate(95.410156 0)"/>
       <use xlink:href="#DejaVuSans-30" transform="translate(159.033203 0)"/>
      </g>
     </g>
    </g>
    <g id="xtick_4">
     <g id="line2d_7">
      <path d="M 282.715124 391.41702 
L 282.715124 26.88 
" clip-path="url(#p4125f2a7a7)" style="fill: none; stroke: #b0b0b0; stroke-width: 0.8; stroke-linecap: square"/>
     </g>
     <g id="line2d_8">
      <g>
       <use xlink:href="#m06602ac694" x="282.715124" y="391.41702" style="stroke: #000000; stroke-width: 0.8"/>
      </g>
     </g>
     <g id="text_4">
      <!-- 0.75 -->
      <g transform="translate(276.794209 419.534101) rotate(-45) scale(0.1 -0.1)">
       <defs>
        <path id="DejaVuSans-37" d="M 525 4666 
L 3525 4666 
L 3525 4397 
L 1831 0 
L 1172 0 
L 2766 4134 
L 525 4134 
L 525 4666 
z
" transform="scale(0.015625)"/>
       </defs>
       <use xlink:href="#DejaVuSans-30"/>
       <use xlink:href="#DejaVuSans-2e" transform="translate(63.623047 0)"/>
       <use xlink:href="#DejaVuSans-37" transform="translate(95.410156 0)"/>
       <use xlink:href="#DejaVuSans-35" transform="translate(159.033203 0)"/>
      </g>
     </g>
    </g>
    <g id="xtick_5">
     <g id="line2d_9">
      <path d="M 365.740165 391.41702 
L 365.740165 26.88 
" clip-path="url(#p4125f2a7a7)" style="fill: none; stroke: #b0b0b0; stroke-width: 0.8; stroke-linecap: square"/>
     </g>
     <g id="line2d_10">
      <g>
       <use xlink:href="#m06602ac694" x="365.740165" y="391.41702" style="stroke: #000000; stroke-width: 0.8"/>
      </g>
     </g>
     <g id="text_5">
      <!-- 1.00 -->
      <g transform="translate(359.81925 419.534101) rotate(-45) scale(0.1 -0.1)">
       <defs>
        <path id="DejaVuSans-31" d="M 794 531 
L 1825 531 
L 1825 4091 
L 703 3866 
L 703 4441 
L 1819 4666 
L 2450 4666 
L 2450 531 
L 3481 531 
L 3481 0 
L 794 0 
L 794 531 
z
" transform="scale(0.015625)"/>
       </defs>
       <use xlink:href="#DejaVuSans-31"/>
       <use xlink:href="#DejaVuSans-2e" transform="translate(63.623047 0)"/>
       <use xlink:href="#DejaVuSans-30" transform="translate(95.410156 0)"/>
       <use xlink:href="#DejaVuSans-30" transform="translate(159.033203 0)"/>
      </g>
     </g>
    </g>
    <g id="xtick_6">
     <g id="line2d_11">
      <path d="M 448.765206 391.41702 
L 448.765206 26.88 
" clip-path="url(#p4125f2a7a7)" style="fill: none; stroke: #b0b0b0; stroke-width: 0.8; stroke-linecap: square"/>
     </g>
     <g id="line2d_12">
      <g>
       <use xlink:href="#m06602ac694" x="448.765206" y="391.41702" style="stroke: #000000; stroke-width: 0.8"/>
      </g>
     </g>
     <g id="text_6">
      <!-- 1.25 -->
      <g transform="translate(442.844292 419.534101) rotate(-45) scale(0.1 -0.1)">
       <use xlink:href="#DejaVuSans-31"/>
       <use xlink:href="#DejaVuSans-2e" transform="translate(63.623047 0)"/>
       <use xlink:href="#DejaVuSans-32" transform="translate(95.410156 0)"/>
       <use xlink:href="#DejaVuSans-35" transform="translate(159.033203 0)"/>
      </g>
     </g>
    </g>
    <g id="xtick_7">
     <g id="line2d_13">
      <path d="M 531.790247 391.41702 
L 531.790247 26.88 
" clip-path="url(#p4125f2a7a7)" style="fill: none; stroke: #b0b0b0; stroke-width: 0.8; stroke-linecap: square"/>
     </g>
     <g id="line2d_14">
      <g>
       <use xlink:href="#m06602ac694" x="531.790247" y="391.41702" style="stroke: #000000; stroke-width: 0.8"/>
      </g>
     </g>
     <g id="text_7">
      <!-- 1.50 -->
      <g transform="translate(525.869333 419.534101) rotate(-45) scale(0.1 -0.1)">
       <use xlink:href="#DejaVuSans-31"/>
       <use xlink:href="#DejaVuSans-2e" transform="translate(63.623047 0)"/>
       <use xlink:href="#DejaVuSans-35" transform="translate(95.410156 0)"/>
       <use xlink:href="#DejaVuSans-30" transform="translate(159.033203 0)"/>
      </g>
     </g>
    </g>
    <g id="xtick_8">
     <g id="line2d_15">
      <path d="M 614.815288 391.41702 
L 614.815288 26.88 
" clip-path="url(#p4125f2a7a7)" style="fill: none; stroke: #b0b0b0; stroke-width: 0.8; stroke-linecap: square"/>
     </g>
     <g id="line2d_16">
      <g>
       <use xlink:href="#m06602ac694" x="614.815288" y="391.41702" style="stroke: #000000; stroke-width: 0.8"/>
      </g>
     </g>
     <g id="text_8">
      <!-- 1.75 -->
      <g transform="translate(608.894374 419.534101) rotate(-45) scale(0.1 -0.1)">
       <use xlink:href="#DejaVuSans-31"/>
       <use xlink:href="#DejaVuSans-2e" transform="translate(63.623047 0)"/>
       <use xlink:href="#DejaVuSans-37" transform="translate(95.410156 0)"/>
       <use xlink:href="#DejaVuSans-35" transform="translate(159.033203 0)"/>
      </g>
     </g>
    </g>
    <g id="xtick_9">
     <g id="line2d_17">
      <path d="M 697.84033 391.41702 
L 697.84033 26.88 
" clip-path="url(#p4125f2a7a7)" style="fill: none; stroke: #b0b0b0; stroke-width: 0.8; stroke-linecap: square"/>
     </g>
     <g id="line2d_18">
      <g>
       <use xlink:href="#m06602ac694" x="697.84033" y="391.41702" style="stroke: #000000; stroke-width: 0.8"/>
      </g>
     </g>
     <g id="text_9">
      <!-- 2.00 -->
      <g transform="translate(691.919415 419.534101) rotate(-45) scale(0.1 -0.1)">
       <use xlink:href="#DejaVuSans-32"/>
       <use xlink:href="#DejaVuSans-2e" transform="translate(63.623047 0)"/>
       <use xlink:href="#DejaVuSans-30" transform="translate(95.410156 0)"/>
       <use xlink:href="#DejaVuSans-30" transform="translate(159.033203 0)"/>
      </g>
     </g>
    </g>
   </g>
   <g id="matplotlib.axis_2">
    <g id="ytick_1">
     <g id="line2d_19">
      <path d="M 33.64 391.41702 
L 697.84033 391.41702 
" clip-path="url(#p4125f2a7a7)" style="fill: none; stroke: #b0b0b0; stroke-width: 0.8; stroke-linecap: square"/>
     </g>
     <g id="line2d_20">
      <defs>
       <path id="ma91cc61cd7" d="M 0 0 
L -3.5 0 
" style="stroke: #000000; stroke-width: 0.8"/>
      </defs>
      <g>
       <use xlink:href="#ma91cc61cd7" x="33.64" y="391.41702" style="stroke: #000000; stroke-width: 0.8"/>
      </g>
     </g>
     <g id="text_10">
      <!-- 0.0 -->
      <g transform="translate(10.736875 395.216238) scale(0.1 -0.1)">
       <use xlink:href="#DejaVuSans-30"/>
       <use xlink:href="#DejaVuSans-2e" transform="translate(63.623047 0)"/>
       <use xlink:href="#DejaVuSans-30" transform="translate(95.410156 0)"/>
      </g>
     </g>
    </g>
    <g id="ytick_2">
     <g id="line2d_21">
      <path d="M 33.64 318.509616 
L 697.84033 318.509616 
" clip-path="url(#p4125f2a7a7)" style="fill: none; stroke: #b0b0b0; stroke-width: 0.8; stroke-linecap: square"/>
     </g>
     <g id="line2d_22">
      <g>
       <use xlink:href="#ma91cc61cd7" x="33.64" y="318.509616" style="stroke: #000000; stroke-width: 0.8"/>
      </g>
     </g>
     <g id="text_11">
      <!-- 0.2 -->
      <g transform="translate(10.736875 322.308834) scale(0.1 -0.1)">
       <use xlink:href="#DejaVuSans-30"/>
       <use xlink:href="#DejaVuSans-2e" transform="translate(63.623047 0)"/>
       <use xlink:href="#DejaVuSans-32" transform="translate(95.410156 0)"/>
      </g>
     </g>
    </g>
    <g id="ytick_3">
     <g id="line2d_23">
      <path d="M 33.64 245.602212 
L 697.84033 245.602212 
" clip-path="url(#p4125f2a7a7)" style="fill: none; stroke: #b0b0b0; stroke-width: 0.8; stroke-linecap: square"/>
     </g>
     <g id="line2d_24">
      <g>
       <use xlink:href="#ma91cc61cd7" x="33.64" y="245.602212" style="stroke: #000000; stroke-width: 0.8"/>
      </g>
     </g>
     <g id="text_12">
      <!-- 0.4 -->
      <g transform="translate(10.736875 249.40143) scale(0.1 -0.1)">
       <defs>
        <path id="DejaVuSans-34" d="M 2419 4116 
L 825 1625 
L 2419 1625 
L 2419 4116 
z
M 2253 4666 
L 3047 4666 
L 3047 1625 
L 3713 1625 
L 3713 1100 
L 3047 1100 
L 3047 0 
L 2419 0 
L 2419 1100 
L 313 1100 
L 313 1709 
L 2253 4666 
z
" transform="scale(0.015625)"/>
       </defs>
       <use xlink:href="#DejaVuSans-30"/>
       <use xlink:href="#DejaVuSans-2e" transform="translate(63.623047 0)"/>
       <use xlink:href="#DejaVuSans-34" transform="translate(95.410156 0)"/>
      </g>
     </g>
    </g>
    <g id="ytick_4">
     <g id="line2d_25">
      <path d="M 33.64 172.694808 
L 697.84033 172.694808 
" clip-path="url(#p4125f2a7a7)" style="fill: none; stroke: #b0b0b0; stroke-width: 0.8; stroke-linecap: square"/>
     </g>
     <g id="line2d_26">
      <g>
       <use xlink:href="#ma91cc61cd7" x="33.64" y="172.694808" style="stroke: #000000; stroke-width: 0.8"/>
      </g>
     </g>
     <g id="text_13">
      <!-- 0.6 -->
      <g transform="translate(10.736875 176.494027) scale(0.1 -0.1)">
       <defs>
        <path id="DejaVuSans-36" d="M 2113 2584 
Q 1688 2584 1439 2293 
Q 1191 2003 1191 1497 
Q 1191 994 1439 701 
Q 1688 409 2113 409 
Q 2538 409 2786 701 
Q 3034 994 3034 1497 
Q 3034 2003 2786 2293 
Q 2538 2584 2113 2584 
z
M 3366 4563 
L 3366 3988 
Q 3128 4100 2886 4159 
Q 2644 4219 2406 4219 
Q 1781 4219 1451 3797 
Q 1122 3375 1075 2522 
Q 1259 2794 1537 2939 
Q 1816 3084 2150 3084 
Q 2853 3084 3261 2657 
Q 3669 2231 3669 1497 
Q 3669 778 3244 343 
Q 2819 -91 2113 -91 
Q 1303 -91 875 529 
Q 447 1150 447 2328 
Q 447 3434 972 4092 
Q 1497 4750 2381 4750 
Q 2619 4750 2861 4703 
Q 3103 4656 3366 4563 
z
" transform="scale(0.015625)"/>
       </defs>
       <use xlink:href="#DejaVuSans-30"/>
       <use xlink:href="#DejaVuSans-2e" transform="translate(63.623047 0)"/>
       <use xlink:href="#DejaVuSans-36" transform="translate(95.410156 0)"/>
      </g>
     </g>
    </g>
    <g id="ytick_5">
     <g id="line2d_27">
      <path d="M 33.64 99.787404 
L 697.84033 99.787404 
" clip-path="url(#p4125f2a7a7)" style="fill: none; stroke: #b0b0b0; stroke-width: 0.8; stroke-linecap: square"/>
     </g>
     <g id="line2d_28">
      <g>
       <use xlink:href="#ma91cc61cd7" x="33.64" y="99.787404" style="stroke: #000000; stroke-width: 0.8"/>
      </g>
     </g>
     <g id="text_14">
      <!-- 0.8 -->
      <g transform="translate(10.736875 103.586623) scale(0.1 -0.1)">
       <defs>
        <path id="DejaVuSans-38" d="M 2034 2216 
Q 1584 2216 1326 1975 
Q 1069 1734 1069 1313 
Q 1069 891 1326 650 
Q 1584 409 2034 409 
Q 2484 409 2743 651 
Q 3003 894 3003 1313 
Q 3003 1734 2745 1975 
Q 2488 2216 2034 2216 
z
M 1403 2484 
Q 997 2584 770 2862 
Q 544 3141 544 3541 
Q 544 4100 942 4425 
Q 1341 4750 2034 4750 
Q 2731 4750 3128 4425 
Q 3525 4100 3525 3541 
Q 3525 3141 3298 2862 
Q 3072 2584 2669 2484 
Q 3125 2378 3379 2068 
Q 3634 1759 3634 1313 
Q 3634 634 3220 271 
Q 2806 -91 2034 -91 
Q 1263 -91 848 271 
Q 434 634 434 1313 
Q 434 1759 690 2068 
Q 947 2378 1403 2484 
z
M 1172 3481 
Q 1172 3119 1398 2916 
Q 1625 2713 2034 2713 
Q 2441 2713 2670 2916 
Q 2900 3119 2900 3481 
Q 2900 3844 2670 4047 
Q 2441 4250 2034 4250 
Q 1625 4250 1398 4047 
Q 1172 3844 1172 3481 
z
" transform="scale(0.015625)"/>
       </defs>
       <use xlink:href="#DejaVuSans-30"/>
       <use xlink:href="#DejaVuSans-2e" transform="translate(63.623047 0)"/>
       <use xlink:href="#DejaVuSans-38" transform="translate(95.410156 0)"/>
      </g>
     </g>
    </g>
    <g id="ytick_6">
     <g id="line2d_29">
      <path d="M 33.64 26.88 
L 697.84033 26.88 
" clip-path="url(#p4125f2a7a7)" style="fill: none; stroke: #b0b0b0; stroke-width: 0.8; stroke-linecap: square"/>
     </g>
     <g id="line2d_30">
      <g>
       <use xlink:href="#ma91cc61cd7" x="33.64" y="26.88" style="stroke: #000000; stroke-width: 0.8"/>
      </g>
     </g>
     <g id="text_15">
      <!-- 1.0 -->
      <g transform="translate(10.736875 30.679219) scale(0.1 -0.1)">
       <use xlink:href="#DejaVuSans-31"/>
       <use xlink:href="#DejaVuSans-2e" transform="translate(63.623047 0)"/>
       <use xlink:href="#DejaVuSans-30" transform="translate(95.410156 0)"/>
      </g>
     </g>
    </g>
   </g>
   <g id="line2d_31">
    <path d="M 62.846881 391.41702 
L 62.846881 390.49879 
L 67.040642 390.49879 
L 67.040642 389.580561 
L 67.170825 389.580561 
L 67.170825 388.662332 
L 69.290953 388.662332 
L 69.290953 387.744102 
L 69.457335 387.744102 
L 69.457335 386.825873 
L 69.667554 386.825873 
L 69.667554 385.907644 
L 70.192273 385.907644 
L 70.192273 384.989415 
L 70.548948 384.989415 
L 70.548948 384.071185 
L 71.150049 384.071185 
L 71.150049 383.152956 
L 71.762774 383.152956 
L 71.762774 382.234727 
L 72.217087 382.234727 
L 72.217087 381.316498 
L 72.37716 381.316498 
L 72.37716 380.398268 
L 72.547859 380.398268 
L 72.61594 377.64358 
L 72.678042 377.64358 
L 72.678042 376.725351 
L 72.824166 376.725351 
L 72.824166 375.807122 
L 73.000179 375.807122 
L 73.000179 374.888893 
L 73.178185 374.888893 
L 73.232317 372.134205 
L 73.305047 372.134205 
L 73.351541 370.297746 
L 73.436559 370.297746 
L 73.436559 369.379517 
L 73.673679 369.379517 
L 73.673679 368.461288 
L 73.887219 368.461288 
L 73.964266 363.870141 
L 74.333229 363.870141 
L 74.44083 361.115454 
L 74.457767 361.115454 
L 74.533486 358.360766 
L 74.93732 358.360766 
L 74.990788 356.524307 
L 75.173775 356.524307 
L 75.2837 353.76962 
L 75.439787 353.76962 
L 75.521816 351.014932 
L 75.582922 351.014932 
L 75.582922 350.096702 
L 75.731371 350.096702 
L 75.831333 348.260244 
L 75.87351 348.260244 
L 75.969155 343.669098 
L 76.13919 343.669098 
L 76.212584 341.832639 
L 76.25775 341.832639 
L 76.303248 339.077951 
L 76.400221 339.077951 
L 76.47129 337.241493 
L 76.592175 337.241493 
L 76.592175 336.323263 
L 76.795088 336.323263 
L 76.795088 335.405034 
L 77.076045 335.405034 
L 77.076045 334.486805 
L 77.201247 334.486805 
L 77.201247 333.568576 
L 77.314161 333.568576 
L 77.314161 332.650346 
L 77.536668 332.650346 
L 77.636298 330.813888 
L 77.659877 330.813888 
L 77.746887 328.0592 
L 77.792053 328.0592 
L 77.889026 325.304512 
L 78.028508 325.304512 
L 78.09991 323.468054 
L 78.244373 323.468054 
L 78.329391 319.795137 
L 78.490791 319.795137 
L 78.580791 317.040449 
L 78.607691 317.040449 
L 78.704332 314.285761 
L 78.783372 314.285761 
L 78.821895 311.531073 
L 78.91588 311.531073 
L 78.990934 308.776385 
L 79.037096 308.776385 
L 79.142704 303.26701 
L 79.377499 303.26701 
L 79.438605 299.594093 
L 79.520302 299.594093 
L 79.613622 295.921176 
L 79.698308 295.921176 
L 79.782329 292.248259 
L 79.881295 292.248259 
L 79.9517 284.902424 
L 80.052991 284.902424 
L 80.110444 282.147737 
L 80.180185 282.147737 
L 80.180185 281.229507 
L 80.316678 281.229507 
L 80.406677 275.720132 
L 80.431253 275.720132 
L 80.540846 269.292527 
L 80.586676 269.292527 
L 80.690291 265.61961 
L 80.742431 265.61961 
L 80.81184 261.946693 
L 80.858334 261.946693 
L 80.957964 258.273776 
L 80.99217 258.273776 
L 81.066892 255.519088 
L 81.107077 255.519088 
L 81.21036 251.846171 
L 81.222315 251.846171 
L 81.28309 250.009712 
L 81.518881 250.009712 
L 81.518881 249.091483 
L 81.652717 249.091483 
L 81.753011 246.336795 
L 81.787882 246.336795 
L 81.846664 243.582107 
L 81.92039 243.582107 
L 81.92039 242.663878 
L 82.098063 242.663878 
L 82.109355 240.82742 
L 82.278726 240.82742 
L 82.363744 232.563356 
L 82.424186 232.563356 
L 82.525144 229.808668 
L 82.548723 229.808668 
L 82.608501 227.05398 
L 82.668612 227.05398 
L 82.75695 223.381063 
L 82.803112 223.381063 
L 82.873185 220.626376 
L 82.923664 220.626376 
L 83.016652 216.035229 
L 83.15547 216.035229 
L 83.265063 211.444083 
L 83.273698 211.444083 
L 83.382295 208.689395 
L 83.41949 208.689395 
L 83.460006 205.934707 
L 83.641665 205.934707 
L 83.663916 202.26179 
L 83.7848 202.26179 
L 83.838268 198.588873 
L 83.899043 198.588873 
L 83.954503 195.834185 
L 84.132841 195.834185 
L 84.132841 194.915956 
L 84.250737 194.915956 
L 84.330441 191.243039 
L 84.508779 191.243039 
L 84.605752 188.488351 
L 84.792724 188.488351 
L 84.879734 183.897205 
L 84.939512 183.897205 
L 84.939512 182.978976 
L 85.144086 182.978976 
L 85.244048 179.306059 
L 85.311133 179.306059 
L 85.420061 175.633141 
L 85.4815 175.633141 
L 85.505411 172.878454 
L 85.633602 172.878454 
L 85.681756 169.205537 
L 85.760132 169.205537 
L 85.860094 166.450849 
L 85.880352 166.450849 
L 85.935481 163.696161 
L 86.031126 163.696161 
L 86.073967 160.941473 
L 86.251972 160.941473 
L 86.291492 158.186785 
L 86.367543 158.186785 
L 86.44293 154.513868 
L 86.621268 154.513868 
L 86.621268 153.595639 
L 86.803259 153.595639 
L 86.903553 150.840951 
L 86.994216 150.840951 
L 87.070931 148.086263 
L 87.251594 148.086263 
L 87.267535 146.249805 
L 87.467127 146.249805 
L 87.576388 144.413346 
L 87.680003 144.413346 
L 87.752733 142.576888 
L 87.825131 142.576888 
L 87.825131 141.658659 
L 88.031033 141.658659 
L 88.063579 139.8222 
L 88.145275 139.8222 
L 88.184131 137.985741 
L 88.266824 137.985741 
L 88.266824 137.067512 
L 88.453796 137.067512 
L 88.483021 135.231054 
L 88.740399 135.231054 
L 88.819439 133.394595 
L 88.868922 133.394595 
L 88.868922 132.476366 
L 89.071171 132.476366 
L 89.169804 128.803449 
L 89.299656 128.803449 
L 89.304305 126.96699 
L 89.458399 126.96699 
L 89.458399 126.048761 
L 89.595225 126.048761 
L 89.595225 125.130532 
L 89.887141 125.130532 
L 89.905406 123.294073 
L 90.022638 123.294073 
L 90.103006 121.457615 
L 90.147507 121.457615 
L 90.215256 118.702927 
L 90.34245 118.702927 
L 90.34245 117.784698 
L 90.458021 117.784698 
L 90.458021 116.866468 
L 90.642669 116.866468 
L 90.690159 115.03001 
L 90.817021 115.03001 
L 90.819346 113.193551 
L 91.090672 113.193551 
L 91.090672 112.275322 
L 91.241445 112.275322 
L 91.323806 109.520634 
L 91.638305 109.520634 
L 91.719669 107.684176 
L 91.752879 107.684176 
L 91.752879 106.765946 
L 91.956125 106.765946 
L 91.977047 104.929488 
L 92.068375 104.929488 
L 92.17199 101.256571 
L 92.83619 101.256571 
L 92.944455 98.501883 
L 93.650832 98.501883 
L 93.650832 97.583654 
L 93.804594 97.583654 
L 93.911198 95.747195 
L 94.011493 95.747195 
L 94.11378 93.910737 
L 94.151639 93.910737 
L 94.151639 92.992507 
L 94.351563 92.992507 
L 94.351563 92.074278 
L 94.6199 92.074278 
L 94.6199 91.156049 
L 94.805212 91.156049 
L 94.810526 89.31959 
L 95.81214 89.31959 
L 95.81214 88.401361 
L 96.304312 88.401361 
L 96.304312 87.483132 
L 96.473683 87.483132 
L 96.534458 85.646673 
L 96.600878 85.646673 
L 96.600878 84.728444 
L 97.161795 84.728444 
L 97.161795 83.810215 
L 98.028576 83.810215 
L 98.028576 82.891985 
L 99.255022 82.891985 
L 99.255022 81.973756 
L 100.387152 81.973756 
L 100.387152 81.055527 
L 100.706632 81.055527 
L 100.749473 79.219068 
L 105.021942 79.219068 
L 105.021942 78.300839 
L 105.477251 78.300839 
L 105.477251 77.38261 
L 106.038168 77.38261 
L 106.038168 76.46438 
L 114.044439 76.46438 
L 114.044439 75.546151 
L 115.384463 75.546151 
L 115.384463 74.627922 
L 116.316336 74.627922 
L 116.316336 73.709693 
L 118.711442 73.709693 
L 118.711442 72.791463 
L 120.138477 72.791463 
L 120.138477 71.873234 
L 126.754908 71.873234 
L 126.754908 70.955005 
L 130.936382 70.955005 
L 130.936382 70.036776 
L 131.82641 70.036776 
L 131.82641 69.118546 
L 136.515664 69.118546 
L 136.515664 68.200317 
L 146.174133 68.200317 
L 146.174133 67.282088 
L 148.372637 67.282088 
L 148.372637 66.363859 
L 149.732919 66.363859 
L 149.732919 65.445629 
L 151.163938 65.445629 
L 151.163938 64.5274 
L 153.69421 64.5274 
L 153.69421 63.609171 
L 153.873876 63.609171 
L 153.873876 62.690941 
L 154.188043 62.690941 
L 154.188043 61.772712 
L 154.519478 61.772712 
L 154.519478 60.854483 
L 154.891099 60.854483 
L 154.914013 59.018024 
L 155.703748 59.018024 
L 155.703748 58.099795 
L 159.644116 58.099795 
L 159.644116 57.181566 
L 159.87725 57.181566 
L 159.87725 56.263337 
L 160.81012 56.263337 
L 160.81012 55.345107 
L 163.180983 55.345107 
L 163.180983 54.426878 
L 164.94211 54.426878 
L 164.94211 53.508649 
L 165.719557 53.508649 
L 165.719557 52.59042 
L 167.898798 52.59042 
L 167.898798 51.67219 
L 169.009673 51.67219 
L 169.009673 50.753961 
L 170.740579 50.753961 
L 170.740579 49.835732 
L 171.144413 49.835732 
L 171.144413 48.917502 
L 174.675966 48.917502 
L 174.675966 47.999273 
L 175.434151 47.999273 
L 175.458726 46.162815 
L 181.965564 46.162815 
L 181.965564 45.244585 
L 187.225699 45.244585 
L 187.282488 43.408127 
L 187.354886 43.408127 
L 187.354886 42.489898 
L 188.695574 42.489898 
L 188.790887 40.653439 
L 192.018569 40.653439 
L 192.018569 39.73521 
L 193.595712 39.73521 
L 193.595712 38.81698 
L 194.852047 38.81698 
L 194.852047 37.898751 
L 199.707019 37.898751 
L 199.707019 36.980522 
L 201.866003 36.980522 
L 201.866003 36.062293 
L 210.008102 36.062293 
L 210.008102 35.144063 
L 213.265009 35.144063 
L 213.265009 34.225834 
L 213.957105 34.225834 
L 213.957105 33.307605 
L 234.175031 33.307605 
L 234.175031 32.389376 
L 244.510653 32.389376 
L 244.510653 31.471146 
L 248.259731 31.471146 
L 248.259731 30.552917 
L 249.416768 30.552917 
L 249.416768 29.634688 
L 254.839964 29.634688 
L 254.839964 28.716459 
L 256.510428 28.716459 
L 256.510428 27.798229 
L 268.652342 27.798229 
L 268.652342 26.88 
L 268.652342 26.88 
" clip-path="url(#p4125f2a7a7)" style="fill: none; stroke: #1f77b4; stroke-width: 1.5; stroke-linecap: square"/>
   </g>
   <g id="patch_3">
    <path d="M 33.64 391.41702 
L 33.64 26.88 
" style="fill: none; stroke: #000000; stroke-width: 0.8; stroke-linejoin: miter; stroke-linecap: square"/>
   </g>
   <g id="patch_4">
    <path d="M 697.84033 391.41702 
L 697.84033 26.88 
" style="fill: none; stroke: #000000; stroke-width: 0.8; stroke-linejoin: miter; stroke-linecap: square"/>
   </g>
   <g id="patch_5">
    <path d="M 33.64 391.41702 
L 697.84033 391.41702 
" style="fill: none; stroke: #000000; stroke-width: 0.8; stroke-linejoin: miter; stroke-linecap: square"/>
   </g>
   <g id="patch_6">
    <path d="M 33.64 26.88 
L 697.84033 26.88 
" style="fill: none; stroke: #000000; stroke-width: 0.8; stroke-linejoin: miter; stroke-linecap: square"/>
   </g>
   <g id="text_16">
    <!-- Consensus duration (proposer) -->
    <g transform="translate(273.08329 20.88) scale(0.12 -0.12)">
     <defs>
      <path id="DejaVuSans-43" d="M 4122 4306 
L 4122 3641 
Q 3803 3938 3442 4084 
Q 3081 4231 2675 4231 
Q 1875 4231 1450 3742 
Q 1025 3253 1025 2328 
Q 1025 1406 1450 917 
Q 1875 428 2675 428 
Q 3081 428 3442 575 
Q 3803 722 4122 1019 
L 4122 359 
Q 3791 134 3420 21 
Q 3050 -91 2638 -91 
Q 1578 -91 968 557 
Q 359 1206 359 2328 
Q 359 3453 968 4101 
Q 1578 4750 2638 4750 
Q 3056 4750 3426 4639 
Q 3797 4528 4122 4306 
z
" transform="scale(0.015625)"/>
      <path id="DejaVuSans-6f" d="M 1959 3097 
Q 1497 3097 1228 2736 
Q 959 2375 959 1747 
Q 959 1119 1226 758 
Q 1494 397 1959 397 
Q 2419 397 2687 759 
Q 2956 1122 2956 1747 
Q 2956 2369 2687 2733 
Q 2419 3097 1959 3097 
z
M 1959 3584 
Q 2709 3584 3137 3096 
Q 3566 2609 3566 1747 
Q 3566 888 3137 398 
Q 2709 -91 1959 -91 
Q 1206 -91 779 398 
Q 353 888 353 1747 
Q 353 2609 779 3096 
Q 1206 3584 1959 3584 
z
" transform="scale(0.015625)"/>
      <path id="DejaVuSans-6e" d="M 3513 2113 
L 3513 0 
L 2938 0 
L 2938 2094 
Q 2938 2591 2744 2837 
Q 2550 3084 2163 3084 
Q 1697 3084 1428 2787 
Q 1159 2491 1159 1978 
L 1159 0 
L 581 0 
L 581 3500 
L 1159 3500 
L 1159 2956 
Q 1366 3272 1645 3428 
Q 1925 3584 2291 3584 
Q 2894 3584 3203 3211 
Q 3513 2838 3513 2113 
z
" transform="scale(0.015625)"/>
      <path id="DejaVuSans-73" d="M 2834 3397 
L 2834 2853 
Q 2591 2978 2328 3040 
Q 2066 3103 1784 3103 
Q 1356 3103 1142 2972 
Q 928 2841 928 2578 
Q 928 2378 1081 2264 
Q 1234 2150 1697 2047 
L 1894 2003 
Q 2506 1872 2764 1633 
Q 3022 1394 3022 966 
Q 3022 478 2636 193 
Q 2250 -91 1575 -91 
Q 1294 -91 989 -36 
Q 684 19 347 128 
L 347 722 
Q 666 556 975 473 
Q 1284 391 1588 391 
Q 1994 391 2212 530 
Q 2431 669 2431 922 
Q 2431 1156 2273 1281 
Q 2116 1406 1581 1522 
L 1381 1569 
Q 847 1681 609 1914 
Q 372 2147 372 2553 
Q 372 3047 722 3315 
Q 1072 3584 1716 3584 
Q 2034 3584 2315 3537 
Q 2597 3491 2834 3397 
z
" transform="scale(0.015625)"/>
      <path id="DejaVuSans-65" d="M 3597 1894 
L 3597 1613 
L 953 1613 
Q 991 1019 1311 708 
Q 1631 397 2203 397 
Q 2534 397 2845 478 
Q 3156 559 3463 722 
L 3463 178 
Q 3153 47 2828 -22 
Q 2503 -91 2169 -91 
Q 1331 -91 842 396 
Q 353 884 353 1716 
Q 353 2575 817 3079 
Q 1281 3584 2069 3584 
Q 2775 3584 3186 3129 
Q 3597 2675 3597 1894 
z
M 3022 2063 
Q 3016 2534 2758 2815 
Q 2500 3097 2075 3097 
Q 1594 3097 1305 2825 
Q 1016 2553 972 2059 
L 3022 2063 
z
" transform="scale(0.015625)"/>
      <path id="DejaVuSans-75" d="M 544 1381 
L 544 3500 
L 1119 3500 
L 1119 1403 
Q 1119 906 1312 657 
Q 1506 409 1894 409 
Q 2359 409 2629 706 
Q 2900 1003 2900 1516 
L 2900 3500 
L 3475 3500 
L 3475 0 
L 2900 0 
L 2900 538 
Q 2691 219 2414 64 
Q 2138 -91 1772 -91 
Q 1169 -91 856 284 
Q 544 659 544 1381 
z
M 1991 3584 
L 1991 3584 
z
" transform="scale(0.015625)"/>
      <path id="DejaVuSans-20" transform="scale(0.015625)"/>
      <path id="DejaVuSans-64" d="M 2906 2969 
L 2906 4863 
L 3481 4863 
L 3481 0 
L 2906 0 
L 2906 525 
Q 2725 213 2448 61 
Q 2172 -91 1784 -91 
Q 1150 -91 751 415 
Q 353 922 353 1747 
Q 353 2572 751 3078 
Q 1150 3584 1784 3584 
Q 2172 3584 2448 3432 
Q 2725 3281 2906 2969 
z
M 947 1747 
Q 947 1113 1208 752 
Q 1469 391 1925 391 
Q 2381 391 2643 752 
Q 2906 1113 2906 1747 
Q 2906 2381 2643 2742 
Q 2381 3103 1925 3103 
Q 1469 3103 1208 2742 
Q 947 2381 947 1747 
z
" transform="scale(0.015625)"/>
      <path id="DejaVuSans-72" d="M 2631 2963 
Q 2534 3019 2420 3045 
Q 2306 3072 2169 3072 
Q 1681 3072 1420 2755 
Q 1159 2438 1159 1844 
L 1159 0 
L 581 0 
L 581 3500 
L 1159 3500 
L 1159 2956 
Q 1341 3275 1631 3429 
Q 1922 3584 2338 3584 
Q 2397 3584 2469 3576 
Q 2541 3569 2628 3553 
L 2631 2963 
z
" transform="scale(0.015625)"/>
      <path id="DejaVuSans-61" d="M 2194 1759 
Q 1497 1759 1228 1600 
Q 959 1441 959 1056 
Q 959 750 1161 570 
Q 1363 391 1709 391 
Q 2188 391 2477 730 
Q 2766 1069 2766 1631 
L 2766 1759 
L 2194 1759 
z
M 3341 1997 
L 3341 0 
L 2766 0 
L 2766 531 
Q 2569 213 2275 61 
Q 1981 -91 1556 -91 
Q 1019 -91 701 211 
Q 384 513 384 1019 
Q 384 1609 779 1909 
Q 1175 2209 1959 2209 
L 2766 2209 
L 2766 2266 
Q 2766 2663 2505 2880 
Q 2244 3097 1772 3097 
Q 1472 3097 1187 3025 
Q 903 2953 641 2809 
L 641 3341 
Q 956 3463 1253 3523 
Q 1550 3584 1831 3584 
Q 2591 3584 2966 3190 
Q 3341 2797 3341 1997 
z
" transform="scale(0.015625)"/>
      <path id="DejaVuSans-74" d="M 1172 4494 
L 1172 3500 
L 2356 3500 
L 2356 3053 
L 1172 3053 
L 1172 1153 
Q 1172 725 1289 603 
Q 1406 481 1766 481 
L 2356 481 
L 2356 0 
L 1766 0 
Q 1100 0 847 248 
Q 594 497 594 1153 
L 594 3053 
L 172 3053 
L 172 3500 
L 594 3500 
L 594 4494 
L 1172 4494 
z
" transform="scale(0.015625)"/>
      <path id="DejaVuSans-69" d="M 603 3500 
L 1178 3500 
L 1178 0 
L 603 0 
L 603 3500 
z
M 603 4863 
L 1178 4863 
L 1178 4134 
L 603 4134 
L 603 4863 
z
" transform="scale(0.015625)"/>
      <path id="DejaVuSans-28" d="M 1984 4856 
Q 1566 4138 1362 3434 
Q 1159 2731 1159 2009 
Q 1159 1288 1364 580 
Q 1569 -128 1984 -844 
L 1484 -844 
Q 1016 -109 783 600 
Q 550 1309 550 2009 
Q 550 2706 781 3412 
Q 1013 4119 1484 4856 
L 1984 4856 
z
" transform="scale(0.015625)"/>
      <path id="DejaVuSans-70" d="M 1159 525 
L 1159 -1331 
L 581 -1331 
L 581 3500 
L 1159 3500 
L 1159 2969 
Q 1341 3281 1617 3432 
Q 1894 3584 2278 3584 
Q 2916 3584 3314 3078 
Q 3713 2572 3713 1747 
Q 3713 922 3314 415 
Q 2916 -91 2278 -91 
Q 1894 -91 1617 61 
Q 1341 213 1159 525 
z
M 3116 1747 
Q 3116 2381 2855 2742 
Q 2594 3103 2138 3103 
Q 1681 3103 1420 2742 
Q 1159 2381 1159 1747 
Q 1159 1113 1420 752 
Q 1681 391 2138 391 
Q 2594 391 2855 752 
Q 3116 1113 3116 1747 
z
" transform="scale(0.015625)"/>
      <path id="DejaVuSans-29" d="M 513 4856 
L 1013 4856 
Q 1481 4119 1714 3412 
Q 1947 2706 1947 2009 
Q 1947 1309 1714 600 
Q 1481 -109 1013 -844 
L 513 -844 
Q 928 -128 1133 580 
Q 1338 1288 1338 2009 
Q 1338 2731 1133 3434 
Q 928 4138 513 4856 
z
" transform="scale(0.015625)"/>
     </defs>
     <use xlink:href="#DejaVuSans-43"/>
     <use xlink:href="#DejaVuSans-6f" transform="translate(69.824219 0)"/>
     <use xlink:href="#DejaVuSans-6e" transform="translate(131.005859 0)"/>
     <use xlink:href="#DejaVuSans-73" transform="translate(194.384766 0)"/>
     <use xlink:href="#DejaVuSans-65" transform="translate(246.484375 0)"/>
     <use xlink:href="#DejaVuSans-6e" transform="translate(308.007812 0)"/>
     <use xlink:href="#DejaVuSans-73" transform="translate(371.386719 0)"/>
     <use xlink:href="#DejaVuSans-75" transform="translate(423.486328 0)"/>
     <use xlink:href="#DejaVuSans-73" transform="translate(486.865234 0)"/>
     <use xlink:href="#DejaVuSans-20" transform="translate(538.964844 0)"/>
     <use xlink:href="#DejaVuSans-64" transform="translate(570.751953 0)"/>
     <use xlink:href="#DejaVuSans-75" transform="translate(634.228516 0)"/>
     <use xlink:href="#DejaVuSans-72" transform="translate(697.607422 0)"/>
     <use xlink:href="#DejaVuSans-61" transform="translate(738.720703 0)"/>
     <use xlink:href="#DejaVuSans-74" transform="translate(800 0)"/>
     <use xlink:href="#DejaVuSans-69" transform="translate(839.208984 0)"/>
     <use xlink:href="#DejaVuSans-6f" transform="translate(866.992188 0)"/>
     <use xlink:href="#DejaVuSans-6e" transform="translate(928.173828 0)"/>
     <use xlink:href="#DejaVuSans-20" transform="translate(991.552734 0)"/>
     <use xlink:href="#DejaVuSans-28" transform="translate(1023.339844 0)"/>
     <use xlink:href="#DejaVuSans-70" transform="translate(1062.353516 0)"/>
     <use xlink:href="#DejaVuSans-72" transform="translate(1125.830078 0)"/>
     <use xlink:href="#DejaVuSans-6f" transform="translate(1164.693359 0)"/>
     <use xlink:href="#DejaVuSans-70" transform="translate(1225.875 0)"/>
     <use xlink:href="#DejaVuSans-6f" transform="translate(1289.351562 0)"/>
     <use xlink:href="#DejaVuSans-73" transform="translate(1350.533203 0)"/>
     <use xlink:href="#DejaVuSans-65" transform="translate(1402.632812 0)"/>
     <use xlink:href="#DejaVuSans-72" transform="translate(1464.15625 0)"/>
     <use xlink:href="#DejaVuSans-29" transform="translate(1505.269531 0)"/>
    </g>
   </g>
  </g>
 </g>
 <defs>
  <clipPath id="p4125f2a7a7">
   <rect x="33.64" y="26.88" width="664.20033" height="364.53702"/>
  </clipPath>
 </defs>
</svg>
