<?xml version="1.0" encoding="utf-8" standalone="no"?>
<!DOCTYPE svg PUBLIC "-//W3C//DTD SVG 1.1//EN"
  "http://www.w3.org/Graphics/SVG/1.1/DTD/svg11.dtd">
<svg xmlns:xlink="http://www.w3.org/1999/xlink" width="720pt" height="432pt" viewBox="0 0 720 432" xmlns="http://www.w3.org/2000/svg" version="1.1">
 <metadata>
  <rdf:RDF xmlns:dc="http://purl.org/dc/elements/1.1/" xmlns:cc="http://creativecommons.org/ns#" xmlns:rdf="http://www.w3.org/1999/02/22-rdf-syntax-ns#">
   <cc:Work>
    <dc:type rdf:resource="http://purl.org/dc/dcmitype/StillImage"/>
    <dc:date>2026-05-28T01:29:27.942209</dc:date>
    <dc:format>image/svg+xml</dc:format>
    <dc:creator>
     <cc:Agent>
      <dc:title>Matplotlib v3.10.1, https://matplotlib.org/</dc:title>
     </cc:Agent>
    </dc:creator>
   </cc:Work>
  </rdf:RDF>
 </metadata>
 <defs>
  <style type="text/css">*{stroke-linejoin: round; stroke-linecap: butt}</style>
 </defs>
 <g id="figure_1">
  <g id="patch_1">
   <path d="M 0 432 
L 720 432 
L 720 0 
L 0 0 
z
" style="fill: #ffffff"/>
  </g>
  <g id="axes_1">
   <g id="patch_2">
    <path d="M 33.64 391.41702 
L 697.84033 391.41702 
L 697.84033 26.88 
L 33.64 26.88 
z
" style="fill: #ffffff"/>
   </g>
   <g id="matplotlib.axis_1">
    <g id="xtick_1">
     <g id="line2d_1">
      <path d="M 33.64 391.41702 
L 33.64 26.88 
" clip-path="url(#pfcedde5208)" style="fill: none; stroke: #b0b0b0; stroke-width: 0.8; stroke-linecap: square"/>
     </g>
     <g id="line2d_2">
      <defs>
       <path id="mfdf6466131" d="M 0 0 
L 0 3.5 
" style="stroke: #000000; stroke-width: 0.8"/>
      </defs>
      <g>
       <use xlink:href="#mfdf6466131" x="33.64" y="391.41702" style="stroke: #000000; stroke-width: 0.8"/>
      </g>
     </g>
     <g id="text_1">
      <!-- 0.00 -->
      <g transform="translate(27.719086 419.534101) rotate(-45) scale(0.1 -0.1)">
       <defs>
        <path id="DejaVuSans-30" d="M 2034 4250 
Q 1547 4250 1301 3770 
Q 1056 3291 1056 2328 
Q 1056 1369 1301 889 
Q 1547 409 2034 409 
Q 2525 409 2770 889 
Q 3016 1369 3016 2328 
Q 3016 3291 2770 3770 
Q 2525 4250 2034 4250 
z
M 2034 4750 
Q 2819 4750 3233 4129 
Q 3647 3509 3647 2328 
Q 3647 1150 3233 529 
Q 2819 -91 2034 -91 
Q 1250 -91 836 529 
Q 422 1150 422 2328 
Q 422 3509 836 4129 
Q 1250 4750 2034 4750 
z
" transform="scale(0.015625)"/>
        <path id="DejaVuSans-2e" d="M 684 794 
L 1344 794 
L 1344 0 
L 684 0 
L 684 794 
z
" transform="scale(0.015625)"/>
       </defs>
       <use xlink:href="#DejaVuSans-30"/>
       <use xlink:href="#DejaVuSans-2e" transform="translate(63.623047 0)"/>
       <use xlink:href="#DejaVuSans-30" transform="translate(95.410156 0)"/>
       <use xlink:href="#DejaVuSans-30" transform="translate(159.033203 0)"/>
      </g>
     </g>
    </g>
    <g id="xtick_2">
     <g id="line2d_3">
      <path d="M 116.665041 391.41702 
L 116.665041 26.88 
" clip-path="url(#pfcedde5208)" style="fill: none; stroke: #b0b0b0; stroke-width: 0.8; stroke-linecap: square"/>
     </g>
     <g id="line2d_4">
      <g>
       <use xlink:href="#mfdf6466131" x="116.665041" y="391.41702" style="stroke: #000000; stroke-width: 0.8"/>
      </g>
     </g>
     <g id="text_2">
      <!-- 0.25 -->
      <g transform="translate(110.744127 419.534101) rotate(-45) scale(0.1 -0.1)">
       <defs>
        <path id="DejaVuSans-32" d="M 1228 531 
L 3431 531 
L 3431 0 
L 469 0 
L 469 531 
Q 828 903 1448 1529 
Q 2069 2156 2228 2338 
Q 2531 2678 2651 2914 
Q 2772 3150 2772 3378 
Q 2772 3750 2511 3984 
Q 2250 4219 1831 4219 
Q 1534 4219 1204 4116 
Q 875 4013 500 3803 
L 500 4441 
Q 881 4594 1212 4672 
Q 1544 4750 1819 4750 
Q 2544 4750 2975 4387 
Q 3406 4025 3406 3419 
Q 3406 3131 3298 2873 
Q 3191 2616 2906 2266 
Q 2828 2175 2409 1742 
Q 1991 1309 1228 531 
z
" transform="scale(0.015625)"/>
        <path id="DejaVuSans-35" d="M 691 4666 
L 3169 4666 
L 3169 4134 
L 1269 4134 
L 1269 2991 
Q 1406 3038 1543 3061 
Q 1681 3084 1819 3084 
Q 2600 3084 3056 2656 
Q 3513 2228 3513 1497 
Q 3513 744 3044 326 
Q 2575 -91 1722 -91 
Q 1428 -91 1123 -41 
Q 819 9 494 109 
L 494 744 
Q 775 591 1075 516 
Q 1375 441 1709 441 
Q 2250 441 2565 725 
Q 2881 1009 2881 1497 
Q 2881 1984 2565 2268 
Q 2250 2553 1709 2553 
Q 1456 2553 1204 2497 
Q 953 2441 691 2322 
L 691 4666 
z
" transform="scale(0.015625)"/>
       </defs>
       <use xlink:href="#DejaVuSans-30"/>
       <use xlink:href="#DejaVuSans-2e" transform="translate(63.623047 0)"/>
       <use xlink:href="#DejaVuSans-32" transform="translate(95.410156 0)"/>
       <use xlink:href="#DejaVuSans-35" transform="translate(159.033203 0)"/>
      </g>
     </g>
    </g>
    <g id="xtick_3">
     <g id="line2d_5">
      <path d="M 199.690082 391.41702 
L 199.690082 26.88 
" clip-path="url(#pfcedde5208)" style="fill: none; stroke: #b0b0b0; stroke-width: 0.8; stroke-linecap: square"/>
     </g>
     <g id="line2d_6">
      <g>
       <use xlink:href="#mfdf6466131" x="199.690082" y="391.41702" style="stroke: #000000; stroke-width: 0.8"/>
      </g>
     </g>
     <g id="text_3">
      <!-- 0.50 -->
      <g transform="translate(193.769168 419.534101) rotate(-45) scale(0.1 -0.1)">
       <use xlink:href="#DejaVuSans-30"/>
       <use xlink:href="#DejaVuSans-2e" transform="translate(63.623047 0)"/>
       <use xlink:href="#DejaVuSans-35" transform="translate(95.410156 0)"/>
       <use xlink:href="#DejaVuSans-30" transform="translate(159.033203 0)"/>
      </g>
     </g>
    </g>
    <g id="xtick_4">
     <g id="line2d_7">
      <path d="M 282.715124 391.41702 
L 282.715124 26.88 
" clip-path="url(#pfcedde5208)" style="fill: none; stroke: #b0b0b0; stroke-width: 0.8; stroke-linecap: square"/>
     </g>
     <g id="line2d_8">
      <g>
       <use xlink:href="#mfdf6466131" x="282.715124" y="391.41702" style="stroke: #000000; stroke-width: 0.8"/>
      </g>
     </g>
     <g id="text_4">
      <!-- 0.75 -->
      <g transform="translate(276.794209 419.534101) rotate(-45) scale(0.1 -0.1)">
       <defs>
        <path id="DejaVuSans-37" d="M 525 4666 
L 3525 4666 
L 3525 4397 
L 1831 0 
L 1172 0 
L 2766 4134 
L 525 4134 
L 525 4666 
z
" transform="scale(0.015625)"/>
       </defs>
       <use xlink:href="#DejaVuSans-30"/>
       <use xlink:href="#DejaVuSans-2e" transform="translate(63.623047 0)"/>
       <use xlink:href="#DejaVuSans-37" transform="translate(95.410156 0)"/>
       <use xlink:href="#DejaVuSans-35" transform="translate(159.033203 0)"/>
      </g>
     </g>
    </g>
    <g id="xtick_5">
     <g id="line2d_9">
      <path d="M 365.740165 391.41702 
L 365.740165 26.88 
" clip-path="url(#pfcedde5208)" style="fill: none; stroke: #b0b0b0; stroke-width: 0.8; stroke-linecap: square"/>
     </g>
     <g id="line2d_10">
      <g>
       <use xlink:href="#mfdf6466131" x="365.740165" y="391.41702" style="stroke: #000000; stroke-width: 0.8"/>
      </g>
     </g>
     <g id="text_5">
      <!-- 1.00 -->
      <g transform="translate(359.81925 419.534101) rotate(-45) scale(0.1 -0.1)">
       <defs>
        <path id="DejaVuSans-31" d="M 794 531 
L 1825 531 
L 1825 4091 
L 703 3866 
L 703 4441 
L 1819 4666 
L 2450 4666 
L 2450 531 
L 3481 531 
L 3481 0 
L 794 0 
L 794 531 
z
" transform="scale(0.015625)"/>
       </defs>
       <use xlink:href="#DejaVuSans-31"/>
       <use xlink:href="#DejaVuSans-2e" transform="translate(63.623047 0)"/>
       <use xlink:href="#DejaVuSans-30" transform="translate(95.410156 0)"/>
       <use xlink:href="#DejaVuSans-30" transform="translate(159.033203 0)"/>
      </g>
     </g>
    </g>
    <g id="xtick_6">
     <g id="line2d_11">
      <path d="M 448.765206 391.41702 
L 448.765206 26.88 
" clip-path="url(#pfcedde5208)" style="fill: none; stroke: #b0b0b0; stroke-width: 0.8; stroke-linecap: square"/>
     </g>
     <g id="line2d_12">
      <g>
       <use xlink:href="#mfdf6466131" x="448.765206" y="391.41702" style="stroke: #000000; stroke-width: 0.8"/>
      </g>
     </g>
     <g id="text_6">
      <!-- 1.25 -->
      <g transform="translate(442.844292 419.534101) rotate(-45) scale(0.1 -0.1)">
       <use xlink:href="#DejaVuSans-31"/>
       <use xlink:href="#DejaVuSans-2e" transform="translate(63.623047 0)"/>
       <use xlink:href="#DejaVuSans-32" transform="translate(95.410156 0)"/>
       <use xlink:href="#DejaVuSans-35" transform="translate(159.033203 0)"/>
      </g>
     </g>
    </g>
    <g id="xtick_7">
     <g id="line2d_13">
      <path d="M 531.790247 391.41702 
L 531.790247 26.88 
" clip-path="url(#pfcedde5208)" style="fill: none; stroke: #b0b0b0; stroke-width: 0.8; stroke-linecap: square"/>
     </g>
     <g id="line2d_14">
      <g>
       <use xlink:href="#mfdf6466131" x="531.790247" y="391.41702" style="stroke: #000000; stroke-width: 0.8"/>
      </g>
     </g>
     <g id="text_7">
      <!-- 1.50 -->
      <g transform="translate(525.869333 419.534101) rotate(-45) scale(0.1 -0.1)">
       <use xlink:href="#DejaVuSans-31"/>
       <use xlink:href="#DejaVuSans-2e" transform="translate(63.623047 0)"/>
       <use xlink:href="#DejaVuSans-35" transform="translate(95.410156 0)"/>
       <use xlink:href="#DejaVuSans-30" transform="translate(159.033203 0)"/>
      </g>
     </g>
    </g>
    <g id="xtick_8">
     <g id="line2d_15">
      <path d="M 614.815288 391.41702 
L 614.815288 26.88 
" clip-path="url(#pfcedde5208)" style="fill: none; stroke: #b0b0b0; stroke-width: 0.8; stroke-linecap: square"/>
     </g>
     <g id="line2d_16">
      <g>
       <use xlink:href="#mfdf6466131" x="614.815288" y="391.41702" style="stroke: #000000; stroke-width: 0.8"/>
      </g>
     </g>
     <g id="text_8">
      <!-- 1.75 -->
      <g transform="translate(608.894374 419.534101) rotate(-45) scale(0.1 -0.1)">
       <use xlink:href="#DejaVuSans-31"/>
       <use xlink:href="#DejaVuSans-2e" transform="translate(63.623047 0)"/>
       <use xlink:href="#DejaVuSans-37" transform="translate(95.410156 0)"/>
       <use xlink:href="#DejaVuSans-35" transform="translate(159.033203 0)"/>
      </g>
     </g>
    </g>
    <g id="xtick_9">
     <g id="line2d_17">
      <path d="M 697.84033 391.41702 
L 697.84033 26.88 
" clip-path="url(#pfcedde5208)" style="fill: none; stroke: #b0b0b0; stroke-width: 0.8; stroke-linecap: square"/>
     </g>
     <g id="line2d_18">
      <g>
       <use xlink:href="#mfdf6466131" x="697.84033" y="391.41702" style="stroke: #000000; stroke-width: 0.8"/>
      </g>
     </g>
     <g id="text_9">
      <!-- 2.00 -->
      <g transform="translate(691.919415 419.534101) rotate(-45) scale(0.1 -0.1)">
       <use xlink:href="#DejaVuSans-32"/>
       <use xlink:href="#DejaVuSans-2e" transform="translate(63.623047 0)"/>
       <use xlink:href="#DejaVuSans-30" transform="translate(95.410156 0)"/>
       <use xlink:href="#DejaVuSans-30" transform="translate(159.033203 0)"/>
      </g>
     </g>
    </g>
   </g>
   <g id="matplotlib.axis_2">
    <g id="ytick_1">
     <g id="line2d_19">
      <path d="M 33.64 391.41702 
L 697.84033 391.41702 
" clip-path="url(#pfcedde5208)" style="fill: none; stroke: #b0b0b0; stroke-width: 0.8; stroke-linecap: square"/>
     </g>
     <g id="line2d_20">
      <defs>
       <path id="m27a46ef1ac" d="M 0 0 
L -3.5 0 
" style="stroke: #000000; stroke-width: 0.8"/>
      </defs>
      <g>
       <use xlink:href="#m27a46ef1ac" x="33.64" y="391.41702" style="stroke: #000000; stroke-width: 0.8"/>
      </g>
     </g>
     <g id="text_10">
      <!-- 0.0 -->
      <g transform="translate(10.736875 395.216238) scale(0.1 -0.1)">
       <use xlink:href="#DejaVuSans-30"/>
       <use xlink:href="#DejaVuSans-2e" transform="translate(63.623047 0)"/>
       <use xlink:href="#DejaVuSans-30" transform="translate(95.410156 0)"/>
      </g>
     </g>
    </g>
    <g id="ytick_2">
     <g id="line2d_21">
      <path d="M 33.64 318.509616 
L 697.84033 318.509616 
" clip-path="url(#pfcedde5208)" style="fill: none; stroke: #b0b0b0; stroke-width: 0.8; stroke-linecap: square"/>
     </g>
     <g id="line2d_22">
      <g>
       <use xlink:href="#m27a46ef1ac" x="33.64" y="318.509616" style="stroke: #000000; stroke-width: 0.8"/>
      </g>
     </g>
     <g id="text_11">
      <!-- 0.2 -->
      <g transform="translate(10.736875 322.308834) scale(0.1 -0.1)">
       <use xlink:href="#DejaVuSans-30"/>
       <use xlink:href="#DejaVuSans-2e" transform="translate(63.623047 0)"/>
       <use xlink:href="#DejaVuSans-32" transform="translate(95.410156 0)"/>
      </g>
     </g>
    </g>
    <g id="ytick_3">
     <g id="line2d_23">
      <path d="M 33.64 245.602212 
L 697.84033 245.602212 
" clip-path="url(#pfcedde5208)" style="fill: none; stroke: #b0b0b0; stroke-width: 0.8; stroke-linecap: square"/>
     </g>
     <g id="line2d_24">
      <g>
       <use xlink:href="#m27a46ef1ac" x="33.64" y="245.602212" style="stroke: #000000; stroke-width: 0.8"/>
      </g>
     </g>
     <g id="text_12">
      <!-- 0.4 -->
      <g transform="translate(10.736875 249.40143) scale(0.1 -0.1)">
       <defs>
        <path id="DejaVuSans-34" d="M 2419 4116 
L 825 1625 
L 2419 1625 
L 2419 4116 
z
M 2253 4666 
L 3047 4666 
L 3047 1625 
L 3713 1625 
L 3713 1100 
L 3047 1100 
L 3047 0 
L 2419 0 
L 2419 1100 
L 313 1100 
L 313 1709 
L 2253 4666 
z
" transform="scale(0.015625)"/>
       </defs>
       <use xlink:href="#DejaVuSans-30"/>
       <use xlink:href="#DejaVuSans-2e" transform="translate(63.623047 0)"/>
       <use xlink:href="#DejaVuSans-34" transform="translate(95.410156 0)"/>
      </g>
     </g>
    </g>
    <g id="ytick_4">
     <g id="line2d_25">
      <path d="M 33.64 172.694808 
L 697.84033 172.694808 
" clip-path="url(#pfcedde5208)" style="fill: none; stroke: #b0b0b0; stroke-width: 0.8; stroke-linecap: square"/>
     </g>
     <g id="line2d_26">
      <g>
       <use xlink:href="#m27a46ef1ac" x="33.64" y="172.694808" style="stroke: #000000; stroke-width: 0.8"/>
      </g>
     </g>
     <g id="text_13">
      <!-- 0.6 -->
      <g transform="translate(10.736875 176.494027) scale(0.1 -0.1)">
       <defs>
        <path id="DejaVuSans-36" d="M 2113 2584 
Q 1688 2584 1439 2293 
Q 1191 2003 1191 1497 
Q 1191 994 1439 701 
Q 1688 409 2113 409 
Q 2538 409 2786 701 
Q 3034 994 3034 1497 
Q 3034 2003 2786 2293 
Q 2538 2584 2113 2584 
z
M 3366 4563 
L 3366 3988 
Q 3128 4100 2886 4159 
Q 2644 4219 2406 4219 
Q 1781 4219 1451 3797 
Q 1122 3375 1075 2522 
Q 1259 2794 1537 2939 
Q 1816 3084 2150 3084 
Q 2853 3084 3261 2657 
Q 3669 2231 3669 1497 
Q 3669 778 3244 343 
Q 2819 -91 2113 -91 
Q 1303 -91 875 529 
Q 447 1150 447 2328 
Q 447 3434 972 4092 
Q 1497 4750 2381 4750 
Q 2619 4750 2861 4703 
Q 3103 4656 3366 4563 
z
" transform="scale(0.015625)"/>
       </defs>
       <use xlink:href="#DejaVuSans-30"/>
       <use xlink:href="#DejaVuSans-2e" transform="translate(63.623047 0)"/>
       <use xlink:href="#DejaVuSans-36" transform="translate(95.410156 0)"/>
      </g>
     </g>
    </g>
    <g id="ytick_5">
     <g id="line2d_27">
      <path d="M 33.64 99.787404 
L 697.84033 99.787404 
" clip-path="url(#pfcedde5208)" style="fill: none; stroke: #b0b0b0; stroke-width: 0.8; stroke-linecap: square"/>
     </g>
     <g id="line2d_28">
      <g>
       <use xlink:href="#m27a46ef1ac" x="33.64" y="99.787404" style="stroke: #000000; stroke-width: 0.8"/>
      </g>
     </g>
     <g id="text_14">
      <!-- 0.8 -->
      <g transform="translate(10.736875 103.586623) scale(0.1 -0.1)">
       <defs>
        <path id="DejaVuSans-38" d="M 2034 2216 
Q 1584 2216 1326 1975 
Q 1069 1734 1069 1313 
Q 1069 891 1326 650 
Q 1584 409 2034 409 
Q 2484 409 2743 651 
Q 3003 894 3003 1313 
Q 3003 1734 2745 1975 
Q 2488 2216 2034 2216 
z
M 1403 2484 
Q 997 2584 770 2862 
Q 544 3141 544 3541 
Q 544 4100 942 4425 
Q 1341 4750 2034 4750 
Q 2731 4750 3128 4425 
Q 3525 4100 3525 3541 
Q 3525 3141 3298 2862 
Q 3072 2584 2669 2484 
Q 3125 2378 3379 2068 
Q 3634 1759 3634 1313 
Q 3634 634 3220 271 
Q 2806 -91 2034 -91 
Q 1263 -91 848 271 
Q 434 634 434 1313 
Q 434 1759 690 2068 
Q 947 2378 1403 2484 
z
M 1172 3481 
Q 1172 3119 1398 2916 
Q 1625 2713 2034 2713 
Q 2441 2713 2670 2916 
Q 2900 3119 2900 3481 
Q 2900 3844 2670 4047 
Q 2441 4250 2034 4250 
Q 1625 4250 1398 4047 
Q 1172 3844 1172 3481 
z
" transform="scale(0.015625)"/>
       </defs>
       <use xlink:href="#DejaVuSans-30"/>
       <use xlink:href="#DejaVuSans-2e" transform="translate(63.623047 0)"/>
       <use xlink:href="#DejaVuSans-38" transform="translate(95.410156 0)"/>
      </g>
     </g>
    </g>
    <g id="ytick_6">
     <g id="line2d_29">
      <path d="M 33.64 26.88 
L 697.84033 26.88 
" clip-path="url(#pfcedde5208)" style="fill: none; stroke: #b0b0b0; stroke-width: 0.8; stroke-linecap: square"/>
     </g>
     <g id="line2d_30">
      <g>
       <use xlink:href="#m27a46ef1ac" x="33.64" y="26.88" style="stroke: #000000; stroke-width: 0.8"/>
      </g>
     </g>
     <g id="text_15">
      <!-- 1.0 -->
      <g transform="translate(10.736875 30.679219) scale(0.1 -0.1)">
       <use xlink:href="#DejaVuSans-31"/>
       <use xlink:href="#DejaVuSans-2e" transform="translate(63.623047 0)"/>
       <use xlink:href="#DejaVuSans-30" transform="translate(95.410156 0)"/>
      </g>
     </g>
    </g>
   </g>
   <g id="line2d_31">
    <path d="M 110.680264 391.41702 
L 110.680264 391.332811 
L 112.141837 391.248603 
L 112.141837 391.164395 
L 112.664231 391.080187 
L 112.664231 390.995979 
L 113.145112 390.911771 
L 113.145112 390.827563 
L 114.284547 390.743354 
L 114.284547 390.659146 
L 115.005205 390.574938 
L 115.107159 390.406522 
L 115.223394 390.322314 
L 115.223394 390.238106 
L 115.702615 390.153897 
L 115.805566 389.985481 
L 115.948037 389.901273 
L 116.044014 389.732857 
L 116.158256 389.648649 
L 116.158256 389.564441 
L 116.452497 389.480232 
L 116.458475 389.311816 
L 116.946994 389.227608 
L 117.054927 389.059192 
L 117.321603 388.974984 
L 117.321603 388.890775 
L 117.612191 388.806567 
L 117.63743 388.469735 
L 117.842336 388.385527 
L 117.842336 388.301318 
L 118.17809 388.21711 
L 118.17809 388.132902 
L 118.5165 388.048694 
L 118.5165 387.964486 
L 118.847936 387.880278 
L 118.884134 387.627653 
L 119.228854 387.543445 
L 119.271363 387.290821 
L 119.423797 387.206613 
L 119.450033 387.038196 
L 119.616415 386.953988 
L 119.616415 386.86978 
L 119.85752 386.785572 
L 119.900693 386.617156 
L 120.185635 386.532948 
L 120.286593 386.364531 
L 120.352681 386.280323 
L 120.452644 386.111907 
L 120.544303 386.027699 
L 120.654228 385.775074 
L 120.723969 385.690866 
L 120.773452 385.354034 
L 120.952122 385.269826 
L 121.055073 385.017201 
L 121.123818 384.932993 
L 121.214813 384.680369 
L 121.471527 384.596161 
L 121.522006 384.427744 
L 121.802299 384.343536 
L 121.802299 384.259328 
L 122.158974 384.17512 
L 122.245652 383.754079 
L 122.356906 383.669871 
L 122.410706 383.501455 
L 122.539561 383.417247 
L 122.628232 383.24883 
L 122.933432 383.164622 
L 122.99952 382.575165 
L 123.276491 382.490957 
L 123.307377 382.322541 
L 123.62885 382.238333 
L 123.726487 382.069916 
L 123.867297 381.985708 
L 123.977887 381.733084 
L 124.008108 381.648876 
L 124.076521 381.480459 
L 124.221316 381.396251 
L 124.264821 381.227835 
L 124.49862 381.143627 
L 124.49862 381.059419 
L 124.746035 380.975211 
L 124.816772 380.722586 
L 124.957582 380.638378 
L 125.0426 380.469962 
L 125.135256 380.385754 
L 125.229904 380.133129 
L 125.296324 380.048921 
L 125.369719 379.796297 
L 125.562337 379.712089 
L 125.664291 379.543672 
L 125.751634 379.459464 
L 125.814733 379.20684 
L 125.931964 379.122632 
L 125.931964 379.038424 
L 126.141187 378.954215 
L 126.239489 378.448967 
L 126.28399 378.364758 
L 126.35672 378.112134 
L 126.420816 378.027926 
L 126.52742 377.775302 
L 126.644651 377.691093 
L 126.666902 377.270053 
L 126.832288 377.185845 
L 126.923615 376.93322 
L 126.986382 376.849012 
L 127.078706 376.427971 
L 127.140809 376.343763 
L 127.214535 376.091139 
L 127.293575 376.006931 
L 127.402172 375.501682 
L 127.44302 375.417474 
L 127.520399 375.080641 
L 127.645269 374.996433 
L 127.702058 374.828017 
L 127.925229 374.743809 
L 127.995303 374.154352 
L 128.0677 374.070144 
L 128.141427 373.817519 
L 128.210836 373.733311 
L 128.210836 373.649103 
L 128.387513 373.564895 
L 128.485814 373.059646 
L 128.536626 372.975438 
L 128.645887 372.638605 
L 128.688396 372.554397 
L 128.792675 372.133356 
L 128.840165 372.049148 
L 128.898947 371.712316 
L 128.998577 371.628108 
L 129.056363 371.459691 
L 129.218095 371.375483 
L 129.317725 370.954443 
L 129.395769 370.870234 
L 129.462521 370.280777 
L 129.551192 370.196569 
L 129.622593 369.775529 
L 129.71691 369.69132 
L 129.774695 369.438696 
L 129.858052 369.354488 
L 129.949712 368.933447 
L 129.981262 368.849239 
L 130.072589 368.512407 
L 130.113105 368.428198 
L 130.20875 368.007158 
L 130.274506 367.92295 
L 130.350889 367.501909 
L 130.419302 367.417701 
L 130.529891 366.744036 
L 130.55978 366.659828 
L 130.593654 366.322995 
L 130.686974 366.238787 
L 130.784944 365.64933 
L 130.856013 365.565122 
L 130.963282 365.228289 
L 130.976234 365.144081 
L 131.082174 364.638832 
L 131.113059 364.554624 
L 131.152911 364.386208 
L 131.266821 364.302 
L 131.376414 363.796751 
L 131.413277 363.712543 
L 131.497299 363.291502 
L 131.60025 363.207294 
L 131.706522 362.870462 
L 131.764307 362.786253 
L 131.868587 362.02838 
L 131.882535 361.944172 
L 131.962239 361.438923 
L 132.023678 361.354715 
L 132.129285 360.849466 
L 132.15685 360.765258 
L 132.255816 360.091593 
L 132.280059 360.007385 
L 132.385667 359.33372 
L 132.402272 359.249512 
L 132.510868 358.323222 
L 132.548064 358.239014 
L 132.655 357.733765 
L 132.664299 357.649557 
L 132.773892 357.144308 
L 132.781198 357.0601 
L 132.862563 356.302227 
L 132.95389 356.218019 
L 133.062155 355.628562 
L 133.106656 355.544354 
L 133.214921 355.123313 
L 133.255769 355.039105 
L 133.321193 354.533856 
L 133.415177 354.449648 
L 133.524438 353.607567 
L 133.563626 353.523358 
L 133.670894 352.681277 
L 133.74296 352.597069 
L 133.851225 352.007612 
L 133.86949 351.923404 
L 133.977091 351.418155 
L 134.076057 351.333947 
L 134.167384 350.912906 
L 134.222513 350.828698 
L 134.325796 350.407657 
L 134.377603 350.323449 
L 134.482215 349.228744 
L 134.516753 349.144535 
L 134.61904 348.47087 
L 134.631328 348.386662 
L 134.720995 347.628789 
L 134.753541 347.544581 
L 134.825939 346.870916 
L 134.905643 346.786708 
L 135.004941 345.860418 
L 135.033501 345.77621 
L 135.144091 344.934129 
L 135.191913 344.84992 
L 135.25468 344.344672 
L 135.349329 344.260464 
L 135.457261 343.418382 
L 135.466228 343.334174 
L 135.564529 342.828925 
L 135.5994 342.744717 
L 135.668809 341.986844 
L 135.742535 341.902636 
L 135.839841 341.228971 
L 135.882349 341.144762 
L 135.982976 340.302681 
L 136.017182 340.218473 
L 136.126775 339.039559 
L 136.147365 338.955351 
L 136.213453 338.029061 
L 136.294486 337.944853 
L 136.373525 337.355396 
L 136.44061 337.271188 
L 136.549539 336.597523 
L 136.638541 336.513315 
L 136.746474 335.755442 
L 136.765072 335.671234 
L 136.871676 334.829152 
L 136.901565 334.744944 
L 136.995881 333.818655 
L 137.03042 333.734447 
L 137.13636 332.976573 
L 137.16492 332.892365 
L 137.258905 331.629243 
L 137.281819 331.629243 
L 137.281819 331.545035 
L 137.386763 330.618746 
L 137.43525 330.534537 
L 137.523256 329.776664 
L 137.56975 329.692456 
L 137.675026 328.681958 
L 137.700266 328.59775 
L 137.810523 327.418836 
L 137.828788 327.334628 
L 137.9334 326.408339 
L 137.967938 326.324131 
L 138.055613 325.145217 
L 138.092808 325.061009 
L 138.200076 324.55576 
L 138.229965 324.471552 
L 138.33823 323.545262 
L 138.373101 323.461054 
L 138.468413 322.450556 
L 138.490664 322.366348 
L 138.587969 321.103226 
L 138.652729 321.019018 
L 138.747045 320.597977 
L 138.781252 320.513769 
L 138.863613 319.755896 
L 138.901472 319.671688 
L 138.980844 318.998023 
L 139.077153 318.913815 
L 139.176783 318.155941 
L 139.198037 318.071733 
L 139.300324 317.650693 
L 139.331542 317.566484 
L 139.435821 316.219154 
L 139.45309 316.134946 
L 139.55903 315.377073 
L 139.605192 315.292865 
L 139.715117 314.366575 
L 139.732054 314.282367 
L 139.842644 313.27187 
L 139.853603 313.187661 
L 139.94161 312.513996 
L 139.983454 312.429788 
L 140.089726 311.419291 
L 140.108324 311.335082 
L 140.208618 309.735128 
L 140.234854 309.65092 
L 140.33382 308.893047 
L 140.354078 308.808838 
L 140.464335 307.461508 
L 140.472638 307.3773 
L 140.582231 306.451011 
L 140.606142 306.366802 
L 140.690828 305.356305 
L 140.738318 305.272097 
L 140.841601 304.261599 
L 140.859867 304.177391 
L 140.967799 302.745853 
L 141.000677 302.661644 
L 141.105621 302.072188 
L 141.120565 301.987979 
L 141.229162 300.809065 
L 141.267686 300.724857 
L 141.377279 299.630152 
L 141.389566 299.545943 
L 141.497831 298.703862 
L 141.515432 298.619654 
L 141.624361 297.693364 
L 141.64628 297.609156 
L 141.753548 296.682867 
L 141.779784 296.598659 
L 141.886056 295.503953 
L 141.897015 295.419745 
L 141.998638 293.988206 
L 142.031184 293.903998 
L 142.136128 292.725084 
L 142.1524 292.640876 
L 142.261661 291.630379 
L 142.287565 291.546171 
L 142.395166 290.704089 
L 142.402804 290.619881 
L 142.511733 289.693592 
L 142.5476 289.609383 
L 142.651547 288.346261 
L 142.662174 288.262053 
L 142.768114 286.914723 
L 142.796343 286.830515 
L 142.899294 286.241058 
L 142.911249 286.15685 
L 143.016193 285.398977 
L 143.043425 285.314769 
L 143.127114 284.725312 
L 143.165638 284.641103 
L 143.261947 283.714814 
L 143.293165 283.630606 
L 143.391134 282.620108 
L 143.421023 282.5359 
L 143.531612 281.18857 
L 143.53759 281.104362 
L 143.645855 280.093864 
L 143.675744 280.009656 
L 143.781684 279.167575 
L 143.794304 279.083366 
L 143.904893 278.157077 
L 143.911203 278.072869 
L 143.966996 277.483412 
L 144.028434 277.483412 
L 144.028434 277.399204 
L 144.123747 276.22029 
L 144.163599 276.136082 
L 144.272528 275.462417 
L 144.292122 275.378208 
L 144.398062 274.536127 
L 144.404372 274.536127 
L 144.404372 274.451919 
L 144.512968 273.52563 
L 144.543854 273.441421 
L 144.645144 272.515132 
L 144.662413 272.430924 
L 144.74245 271.420426 
L 144.785291 271.336218 
L 144.881932 270.073096 
L 144.913813 269.988888 
L 145.018093 268.97839 
L 145.063923 268.894182 
L 145.170195 267.546852 
L 145.182814 267.462644 
L 145.277463 266.452146 
L 145.302371 266.367938 
L 145.412628 265.104816 
L 145.443181 265.020608 
L 145.553438 263.504861 
L 145.564398 263.420653 
L 145.670005 262.410156 
L 145.720817 262.325947 
L 145.818122 260.725993 
L 145.846351 260.641785 
L 145.945981 259.631287 
L 145.964578 259.631287 
L 145.964578 259.547079 
L 146.073839 258.620789 
L 146.082142 258.536581 
L 146.186421 257.610292 
L 146.199373 257.526084 
L 146.271107 256.684002 
L 146.334206 256.599794 
L 146.44081 255.589297 
L 146.45343 255.505088 
L 146.547414 254.663007 
L 146.570993 254.578799 
L 146.680586 253.399885 
L 146.713464 253.315677 
L 146.797818 252.220971 
L 146.825714 252.136763 
L 146.929329 251.294682 
L 146.945934 251.210474 
L 147.016007 250.368392 
L 147.074125 250.284184 
L 147.177408 249.10527 
L 147.200655 249.021062 
L 147.311244 247.842148 
L 147.341466 247.75794 
L 147.435118 247.000067 
L 147.466003 246.915859 
L 147.5746 245.821153 
L 147.601832 245.736945 
L 147.699137 244.979072 
L 147.719063 244.894863 
L 147.824671 243.715949 
L 147.846258 243.631741 
L 147.951534 242.284411 
L 147.967474 242.200203 
L 148.072086 240.937081 
L 148.095001 240.852873 
L 148.193302 240.010791 
L 148.23083 239.926583 
L 148.334777 239.000294 
L 148.350386 239.000294 
L 148.350386 238.916086 
L 148.459979 237.82138 
L 148.472931 237.737172 
L 148.582524 236.053009 
L 148.63566 235.968801 
L 148.745585 234.958303 
L 148.779127 234.874095 
L 148.884403 234.032014 
L 148.899347 233.947806 
L 148.99931 232.600476 
L 149.039494 232.516267 
L 149.127168 231.758394 
L 149.193588 231.674186 
L 149.292554 230.411064 
L 149.322775 230.326856 
L 149.431704 229.063734 
L 149.45163 228.979526 
L 149.553917 227.716404 
L 149.567865 227.632196 
L 149.676794 226.369074 
L 149.686757 226.284865 
L 149.778749 224.769119 
L 149.806977 224.684911 
L 149.916902 223.758621 
L 149.921884 223.674413 
L 150.029816 222.242875 
L 150.069004 222.158667 
L 150.179926 220.474504 
L 150.184907 220.390296 
L 150.278891 218.790341 
L 150.322064 218.706133 
L 150.40675 217.527219 
L 150.450919 217.443011 
L 150.549553 216.095681 
L 150.578446 216.011473 
L 150.668445 215.2536 
L 150.710622 215.169391 
L 150.820879 214.243102 
L 150.842465 214.158894 
L 150.953055 213.064188 
L 150.994235 212.97998 
L 151.098515 211.885274 
L 151.164271 211.801066 
L 151.274196 210.453736 
L 151.291465 210.369528 
L 151.390099 209.106406 
L 151.42829 209.022198 
L 151.538879 208.095908 
L 151.550503 208.0117 
L 151.654118 206.495953 
L 151.673712 206.411745 
L 151.768693 205.906497 
L 151.793932 205.822288 
L 151.875961 204.811791 
L 151.918802 204.727583 
L 152.016107 203.632877 
L 152.045996 203.548669 
L 152.155257 201.864506 
L 152.160239 201.780298 
L 152.27116 200.264551 
L 152.277138 200.180343 
L 152.382414 198.833013 
L 152.423262 198.748805 
L 152.531195 197.569891 
L 152.563076 197.485683 
L 152.630825 196.643602 
L 152.690271 196.559393 
L 152.783923 195.38048 
L 152.807502 195.296271 
L 152.917095 194.285774 
L 152.937685 194.201566 
L 153.039972 193.10686 
L 153.067537 193.022652 
L 153.171484 191.675322 
L 153.192074 191.591113 
L 153.293697 190.496408 
L 153.320597 190.4122 
L 153.424876 189.570118 
L 153.453437 189.48591 
L 153.561702 188.559621 
L 153.605207 188.475412 
L 153.694542 187.549123 
L 153.7417 187.464915 
L 153.842326 185.949168 
L 153.855942 185.86496 
L 153.855942 185.86496 
L 153.955572 185.275503 
L 153.970185 185.275503 
L 153.970185 185.191295 
L 154.072804 183.675549 
L 154.1007 183.591341 
L 154.207636 182.665051 
L 154.222913 182.580843 
L 154.333834 181.907178 
L 154.339812 181.82297 
L 154.447081 180.812472 
L 154.489589 180.728264 
L 154.595197 179.54935 
L 154.640031 179.465142 
L 154.75062 178.033604 
L 154.769882 177.949395 
L 154.876154 177.023106 
L 154.888774 176.938898 
L 154.994382 176.012608 
L 155.007334 175.9284 
L 155.116595 175.002111 
L 155.149472 174.917903 
L 155.242128 173.823197 
L 155.281316 173.738989 
L 155.37995 172.30745 
L 155.409839 172.223242 
L 155.51279 171.381161 
L 155.541683 171.296953 
L 155.649947 170.033831 
L 155.67253 169.949623 
L 155.781791 168.686501 
L 155.81002 168.602292 
L 155.905665 167.507587 
L 155.93655 167.423379 
L 156.032527 166.412881 
L 156.049464 166.328673 
L 156.146437 165.233967 
L 156.199241 165.149759 
L 156.304849 163.970845 
L 156.319129 163.886637 
L 156.41577 163.044555 
L 156.447984 162.960347 
L 156.545622 161.697225 
L 156.582153 161.613017 
L 156.68776 160.349895 
L 156.712668 160.265687 
L 156.799346 159.592022 
L 156.848497 159.507814 
L 156.95012 158.665732 
L 156.977684 158.581524 
L 157.071668 157.907859 
L 157.104546 157.823651 
L 157.213475 157.065778 
L 157.243032 156.98157 
L 157.331371 155.886864 
L 157.371887 155.802656 
L 157.455576 155.044783 
L 157.519339 154.960574 
L 157.630261 154.286909 
L 157.683065 154.202701 
L 157.77406 153.613244 
L 157.829521 153.529036 
L 157.909225 153.192204 
L 157.949409 153.107995 
L 158.059998 152.097498 
L 158.09985 152.01329 
L 158.194499 151.423833 
L 158.231694 151.339625 
L 158.335974 150.244919 
L 158.421655 150.160711 
L 158.531581 149.150213 
L 158.588038 149.066005 
L 158.686339 148.476548 
L 158.719217 148.39234 
L 158.799585 147.634467 
L 158.88892 147.550258 
L 158.998513 146.960802 
L 159.011465 146.876593 
L 159.10711 146.287136 
L 159.128365 146.202928 
L 159.19412 145.445055 
L 159.261869 145.360847 
L 159.369137 144.687182 
L 159.393713 144.602974 
L 159.457476 143.929309 
L 159.525224 143.845101 
L 159.61622 143.339852 
L 159.654079 143.255644 
L 159.762344 142.49777 
L 159.770314 142.413562 
L 159.875258 141.824105 
L 159.904483 141.739897 
L 159.977545 140.982024 
L 160.020386 140.897816 
L 160.12699 140.139943 
L 160.149905 140.055734 
L 160.250531 139.129445 
L 160.285734 139.045237 
L 160.381711 138.034739 
L 160.42754 137.950531 
L 160.502595 137.361074 
L 160.559384 137.276866 
L 160.666653 136.855825 
L 160.67728 136.771617 
L 160.785544 135.676911 
L 160.805138 135.592703 
L 160.913071 134.750622 
L 160.926687 134.666414 
L 161.006059 133.824332 
L 161.078789 133.740124 
L 161.185393 133.150667 
L 161.204655 133.066459 
L 161.305613 132.055962 
L 161.350779 131.971753 
L 161.461368 131.298088 
L 161.48063 131.21388 
L 161.58823 130.034966 
L 161.627418 129.950758 
L 161.735019 128.856052 
L 161.799778 128.771844 
L 161.893431 128.266595 
L 161.956197 128.182387 
L 162.054499 127.424514 
L 162.118262 127.340306 
L 162.210254 126.835057 
L 162.239479 126.750849 
L 162.331139 125.824559 
L 162.36302 125.740351 
L 162.45468 125.066686 
L 162.478923 124.982478 
L 162.578885 123.97198 
L 162.627372 123.887772 
L 162.714382 122.877275 
L 162.770839 122.793067 
L 162.819658 122.456234 
L 162.897369 122.372026 
L 162.980062 122.035193 
L 163.048807 121.950985 
L 163.158732 120.940488 
L 163.193271 120.856279 
L 163.302864 119.92999 
L 163.373269 119.845782 
L 163.455962 119.424741 
L 163.526367 119.340533 
L 163.605407 119.087909 
L 163.655886 119.0037 
L 163.719649 118.58266 
L 163.829242 118.58266 
L 163.829242 118.498452 
L 163.935514 118.077411 
L 163.97437 117.993203 
L 164.071343 117.403746 
L 164.089941 117.319538 
L 164.195549 116.30904 
L 164.231416 116.224832 
L 164.322411 115.719583 
L 164.419052 115.635375 
L 164.513369 114.793294 
L 164.586431 114.709086 
L 164.69702 114.456461 
L 164.712961 114.372253 
L 164.758791 114.119629 
L 164.897609 114.03542 
L 164.999231 113.530172 
L 165.10185 113.445964 
L 165.19351 113.024923 
L 165.217421 112.940715 
L 165.316055 112.435466 
L 165.431958 112.351258 
L 165.524614 111.846009 
L 165.578414 111.761801 
L 165.65214 111.593385 
L 165.736826 111.509176 
L 165.837784 110.751303 
L 165.918817 110.667095 
L 166.029738 109.825014 
L 166.065273 109.740806 
L 166.165899 108.982932 
L 166.20077 108.898724 
L 166.297743 107.972435 
L 166.350547 107.888227 
L 166.444531 107.382978 
L 166.506966 107.29877 
L 166.605268 106.877729 
L 166.643791 106.793521 
L 166.720839 106.540896 
L 166.829435 106.456688 
L 166.899508 106.119856 
L 166.952977 106.035648 
L 167.05626 105.530399 
L 167.070208 105.446191 
L 167.162532 104.772526 
L 167.20338 104.688317 
L 167.308656 104.09886 
L 167.391349 104.014652 
L 167.493968 103.762028 
L 167.5212 103.67782 
L 167.587952 103.172571 
L 167.683597 103.088363 
L 167.777249 102.583114 
L 167.83902 102.498906 
L 167.936325 101.825241 
L 168.01138 101.741033 
L 168.118648 101.319992 
L 168.168131 101.235784 
L 168.230898 100.898951 
L 168.318572 100.814743 
L 168.398276 100.393702 
L 168.452741 100.309494 
L 168.523146 99.888454 
L 168.651337 99.804246 
L 168.758937 99.467413 
L 168.782848 99.383205 
L 168.863217 98.70954 
L 168.968492 98.625332 
L 169.057495 98.288499 
L 169.149155 98.204291 
L 169.25111 97.530626 
L 169.308231 97.446418 
L 169.409189 97.025377 
L 169.462657 96.941169 
L 169.566937 96.604336 
L 169.59749 96.520128 
L 169.699445 95.930671 
L 169.73664 95.846463 
L 169.788116 95.341214 
L 169.859849 95.257006 
L 169.963465 94.751757 
L 170.013612 94.667549 
L 170.102615 94.246509 
L 170.1604 94.1623 
L 170.260362 93.657052 
L 170.315491 93.572843 
L 170.417445 92.562346 
L 170.537998 92.478138 
L 170.613385 92.309721 
L 170.660211 92.225513 
L 170.738918 91.972889 
L 170.815301 91.888681 
L 170.918917 91.299224 
L 170.944821 91.215016 
L 171.054414 90.709767 
L 171.171977 90.625559 
L 171.274928 90.204518 
L 171.325075 90.12031 
L 171.418063 89.530853 
L 171.510387 89.446645 
L 171.604371 89.109812 
L 171.65784 89.025604 
L 171.721603 88.77298 
L 171.803299 88.688772 
L 171.884 88.436147 
L 171.931822 88.351939 
L 172.020825 87.762482 
L 172.152005 87.678274 
L 172.224735 87.341441 
L 172.278535 87.257233 
L 172.310749 86.920401 
L 172.400416 86.836193 
L 172.472481 86.415152 
L 172.563145 86.330944 
L 172.607646 86.078319 
L 172.75842 85.994111 
L 172.839452 85.488862 
L 172.901887 85.404654 
L 172.994211 84.646781 
L 173.031074 84.562573 
L 173.098158 84.394157 
L 173.166571 84.309949 
L 173.248267 83.973116 
L 173.385093 83.888908 
L 173.415314 83.636283 
L 173.543172 83.552075 
L 173.628854 83.131035 
L 173.72782 83.046827 
L 173.777635 82.709994 
L 174.024053 82.625786 
L 174.07885 82.373161 
L 174.166192 82.288953 
L 174.274457 81.952121 
L 174.285748 81.867913 
L 174.395009 81.53108 
L 174.458772 81.446872 
L 174.555746 80.941623 
L 174.626151 80.857415 
L 174.70187 80.520582 
L 174.751685 80.436374 
L 174.773271 80.267958 
L 175.016036 80.18375 
L 175.035298 79.762709 
L 175.175777 79.678501 
L 175.278728 79.173252 
L 175.357435 79.089044 
L 175.452748 78.583795 
L 175.509205 78.499587 
L 175.591234 77.825922 
L 175.692524 77.741714 
L 175.692524 77.657506 
L 175.837652 77.573298 
L 175.86422 77.404881 
L 176.045547 77.320673 
L 176.120269 76.983841 
L 176.187022 76.899633 
L 176.193332 76.731216 
L 176.339788 76.647008 
L 176.399566 76.478592 
L 176.544694 76.394384 
L 176.544694 76.310176 
L 176.729009 76.225968 
L 176.816684 75.973343 
L 176.976424 75.889135 
L 177.081367 75.468094 
L 177.357675 75.383886 
L 177.405497 75.131262 
L 177.504795 75.047054 
L 177.532359 74.794429 
L 177.689111 74.710221 
L 177.797043 74.28918 
L 177.843537 74.204972 
L 177.852836 74.036556 
L 178.110878 73.952348 
L 178.208183 73.699723 
L 178.260323 73.615515 
L 178.332057 73.110267 
L 178.487479 73.026058 
L 178.578807 72.857642 
L 178.658179 72.773434 
L 178.658179 72.689226 
L 178.799322 72.605018 
L 178.891645 72.268185 
L 179.014855 72.183977 
L 179.104189 71.931353 
L 179.182565 71.847144 
L 179.238026 71.59452 
L 179.380165 71.510312 
L 179.470496 71.341896 
L 179.724553 71.257688 
L 179.790308 70.920855 
L 179.92813 70.836647 
L 180.028092 70.499814 
L 180.071597 70.415606 
L 180.171227 70.078774 
L 180.247942 69.994565 
L 180.257573 69.741941 
L 180.385432 69.657733 
L 180.485394 69.236692 
L 180.589674 69.152484 
L 180.64281 68.815652 
L 180.734801 68.731443 
L 180.844726 68.310403 
L 180.939043 68.226195 
L 181.042326 67.889362 
L 181.175166 67.805154 
L 181.270147 67.384113 
L 181.296383 67.299905 
L 181.302028 67.131489 
L 181.445828 67.047281 
L 181.458448 66.878864 
L 181.742061 66.794656 
L 181.796526 66.62624 
L 181.953609 66.542032 
L 182.054567 66.205199 
L 182.144899 66.120991 
L 182.212979 65.784159 
L 182.367738 65.699951 
L 182.397295 65.447326 
L 182.526482 65.363118 
L 182.602201 65.194702 
L 182.693528 65.110494 
L 182.801793 64.773661 
L 182.925334 64.689453 
L 183.024632 64.35262 
L 183.097362 64.268412 
L 183.197988 64.015788 
L 183.404555 63.93158 
L 183.404555 63.847372 
L 183.752595 63.763163 
L 183.848572 63.594747 
L 183.963811 63.510539 
L 184.021265 63.342123 
L 184.093994 63.257915 
L 184.1913 62.752666 
L 184.30986 62.668458 
L 184.30986 62.58425 
L 184.538012 62.500041 
L 184.538012 62.415833 
L 184.776128 62.331625 
L 184.840556 62.163209 
L 185.07369 62.079001 
L 185.07369 61.994793 
L 185.742872 61.910584 
L 185.839181 61.405336 
L 185.953423 61.321128 
L 185.953423 61.236919 
L 186.16962 61.152711 
L 186.23272 60.900087 
L 186.430319 60.815879 
L 186.539912 60.647462 
L 186.627587 60.563254 
L 186.627587 60.479046 
L 186.826515 60.394838 
L 186.922159 59.973797 
L 187.043708 59.889589 
L 187.134704 59.38434 
L 187.421306 59.300132 
L 187.525253 58.9633 
L 187.567098 58.879092 
L 187.647798 58.710675 
L 187.726838 58.626467 
L 187.813848 58.373843 
L 187.87263 58.289635 
L 187.87263 58.205426 
L 188.024068 58.121218 
L 188.124362 57.784386 
L 188.274471 57.700178 
L 188.34853 57.279137 
L 188.670335 57.194929 
L 188.780592 56.858096 
L 188.902473 56.773888 
L 188.981845 56.437056 
L 189.174131 56.352848 
L 189.174131 56.268639 
L 189.452763 56.184431 
L 189.519847 55.763391 
L 189.849955 55.679182 
L 189.914382 55.34235 
L 190.070469 55.258142 
L 190.117295 55.089725 
L 190.3853 55.005517 
L 190.445078 54.837101 
L 190.57028 54.752893 
L 190.57028 54.668685 
L 190.812381 54.584477 
L 190.917657 54.247644 
L 190.957176 54.163436 
L 190.957176 54.079228 
L 191.172045 53.99502 
L 191.227838 53.826603 
L 191.399534 53.742395 
L 191.425438 53.489771 
L 191.906319 53.405563 
L 192.008273 53.06873 
L 192.090302 52.984522 
L 192.139453 52.64769 
L 192.264655 52.563481 
L 192.264655 52.479273 
L 192.421738 52.395065 
L 192.421738 52.310857 
L 192.588452 52.226649 
L 192.685426 51.889816 
L 193.140071 51.805608 
L 193.140071 51.7214 
L 193.484459 51.637192 
L 193.556857 51.468776 
L 193.624937 51.384567 
L 193.641542 51.216151 
L 193.982277 51.131943 
L 194.069287 50.963527 
L 194.348583 50.879319 
L 194.385446 50.710902 
L 194.865331 50.626694 
L 194.900202 50.458278 
L 195.033374 50.37407 
L 195.033374 50.289862 
L 195.282117 50.205654 
L 195.282117 50.121445 
L 195.516248 50.037237 
L 195.544808 49.868821 
L 195.740083 49.784613 
L 195.740083 49.700405 
L 195.979527 49.616197 
L 195.979527 49.531989 
L 196.306314 49.44778 
L 196.384357 49.279364 
L 197.065827 49.195156 
L 197.065827 49.110948 
L 197.325529 49.02674 
L 197.373684 48.858323 
L 197.861539 48.774115 
L 197.861539 48.689907 
L 198.100651 48.605699 
L 198.146813 48.353075 
L 198.485555 48.268866 
L 198.485555 48.184658 
L 198.688136 48.10045 
L 198.688136 47.932034 
L 198.933226 47.847826 
L 199.02555 47.67941 
L 199.367613 47.595201 
L 199.367613 47.510993 
L 199.83355 47.426785 
L 199.83355 47.342577 
L 200.731549 47.258369 
L 200.731549 47.174161 
L 200.963687 47.089953 
L 200.963687 47.005744 
L 201.483091 46.921536 
L 201.590027 46.584704 
L 202.133011 46.500496 
L 202.177181 46.332079 
L 202.42227 46.247871 
L 202.42227 46.163663 
L 202.841049 46.079455 
L 202.861639 45.911039 
L 203.843327 45.826831 
L 203.944286 45.658414 
L 204.18373 45.574206 
L 204.201663 45.40579 
L 204.355758 45.321582 
L 204.355758 45.237374 
L 204.849923 45.153165 
L 204.849923 45.068957 
L 205.702424 44.984749 
L 205.806371 44.563709 
L 206.251717 44.4795 
L 206.29954 44.311084 
L 206.536659 44.226876 
L 206.536659 44.142668 
L 207.284549 44.05846 
L 207.383847 43.890043 
L 207.556871 43.805835 
L 207.633586 43.637419 
L 207.765098 43.553211 
L 207.765098 43.469003 
L 208.261256 43.384795 
L 208.368524 43.216378 
L 208.795937 43.13217 
L 208.884275 42.963754 
L 209.204088 42.879546 
L 209.311356 42.71113 
L 209.747404 42.626921 
L 209.827772 42.374297 
L 210.022051 42.290089 
L 210.022051 42.205881 
L 211.037281 42.121673 
L 211.037281 42.037464 
L 211.242851 41.953256 
L 211.242851 41.869048 
L 211.592884 41.78484 
L 211.592884 41.700632 
L 211.842956 41.616424 
L 211.842956 41.532216 
L 212.375644 41.448007 
L 212.375644 41.363799 
L 213.050472 41.279591 
L 213.094309 41.111175 
L 214.004264 41.026967 
L 214.004264 40.942759 
L 214.545587 40.858551 
L 214.545587 40.774342 
L 215.036099 40.690134 
L 215.036099 40.605926 
L 216.116421 40.521718 
L 216.116421 40.43751 
L 216.703906 40.353302 
L 216.703906 40.269094 
L 217.184123 40.184885 
L 217.248218 40.016469 
L 217.652384 39.932261 
L 217.652384 39.848053 
L 218.09773 39.763845 
L 218.09773 39.679637 
L 218.663629 39.595428 
L 218.663629 39.51122 
L 219.192 39.427012 
L 219.192 39.342804 
L 220.679145 39.258596 
L 220.778775 39.005972 
L 220.870102 38.921763 
L 220.894678 38.753347 
L 221.269951 38.669139 
L 221.269951 38.584931 
L 221.460577 38.500723 
L 221.498768 38.332306 
L 222.20747 38.248098 
L 222.303779 38.079682 
L 222.759088 37.995474 
L 222.774033 37.827058 
L 223.38709 37.74285 
L 223.38709 37.658641 
L 224.941318 37.574433 
L 224.941318 37.490225 
L 225.134933 37.406017 
L 225.134933 37.321809 
L 225.54408 37.237601 
L 225.54408 37.153393 
L 225.785517 37.069184 
L 225.870867 36.900768 
L 226.602151 36.81656 
L 226.692815 36.648144 
L 227.643617 36.563936 
L 227.711366 36.395519 
L 228.227782 36.311311 
L 228.227782 36.227103 
L 228.803975 36.142895 
L 228.803975 36.058687 
L 229.72821 35.974479 
L 229.818209 35.806062 
L 230.582704 35.721854 
L 230.624216 35.553438 
L 231.255539 35.46923 
L 231.255539 35.385022 
L 231.5893 35.300814 
L 231.5893 35.216605 
L 232.099737 35.132397 
L 232.099737 35.048189 
L 232.418886 34.963981 
L 232.508221 34.795565 
L 233.995033 34.711357 
L 234.017948 34.54294 
L 234.718347 34.458732 
L 234.718347 34.374524 
L 236.053058 34.290316 
L 236.053058 34.206108 
L 237.042716 34.1219 
L 237.042716 34.037692 
L 238.090824 33.953483 
L 238.090824 33.869275 
L 238.625174 33.785067 
L 238.674657 33.616651 
L 239.426199 33.532443 
L 239.426199 33.448235 
L 240.746297 33.364026 
L 240.746297 33.279818 
L 247.104355 33.19561 
L 247.104355 33.111402 
L 249.128506 33.027194 
L 249.128506 32.942986 
L 272.182235 32.858778 
L 272.182235 32.77457 
L 282.239556 32.690361 
L 282.239556 32.606153 
L 282.851285 32.521945 
L 282.851285 32.437737 
L 285.089972 32.353529 
L 285.154399 32.185113 
L 285.942805 32.100904 
L 285.966052 31.932488 
L 286.554866 31.84828 
L 286.554866 31.764072 
L 287.878617 31.679864 
L 287.878617 31.595656 
L 288.61123 31.511447 
L 288.61123 31.427239 
L 291.454672 31.343031 
L 291.454672 31.258823 
L 291.710389 31.174615 
L 291.710389 31.090407 
L 293.942102 31.006199 
L 293.942102 30.921991 
L 294.613608 30.837782 
L 294.680693 30.669366 
L 294.970284 30.585158 
L 294.970284 30.50095 
L 295.599614 30.416742 
L 295.599614 30.332534 
L 296.324256 30.248325 
L 296.324256 30.164117 
L 297.052884 30.079909 
L 297.134581 29.911493 
L 298.550656 29.827285 
L 298.661577 29.57466 
L 298.853863 29.490452 
L 298.853863 29.406244 
L 299.2929 29.322036 
L 299.2929 29.237828 
L 302.627849 29.15362 
L 302.627849 29.069412 
L 303.669648 28.985203 
L 303.669648 28.900995 
L 304.820043 28.816787 
L 304.824028 28.648371 
L 308.692663 28.564163 
L 308.692663 28.479955 
L 311.807098 28.395746 
L 311.807098 28.311538 
L 312.165102 28.22733 
L 312.165102 28.143122 
L 316.760704 28.058914 
L 316.760704 27.974706 
L 340.469003 27.890498 
L 340.469003 27.806289 
L 349.742568 27.722081 
L 349.742568 27.637873 
L 357.038144 27.553665 
L 357.038144 27.469457 
L 358.606321 27.385249 
L 358.606321 27.301041 
L 361.878504 27.216833 
L 361.878504 27.132624 
L 363.842212 27.048416 
L 363.842212 26.964208 
L 368.327225 26.964208 
L 368.327225 26.88 
" clip-path="url(#pfcedde5208)" style="fill: none; stroke: #1f77b4; stroke-width: 1.5; stroke-linecap: square"/>
   </g>
   <g id="patch_3">
    <path d="M 33.64 391.41702 
L 33.64 26.88 
" style="fill: none; stroke: #000000; stroke-width: 0.8; stroke-linejoin: miter; stroke-linecap: square"/>
   </g>
   <g id="patch_4">
    <path d="M 697.84033 391.41702 
L 697.84033 26.88 
" style="fill: none; stroke: #000000; stroke-width: 0.8; stroke-linejoin: miter; stroke-linecap: square"/>
   </g>
   <g id="patch_5">
    <path d="M 33.64 391.41702 
L 697.84033 391.41702 
" style="fill: none; stroke: #000000; stroke-width: 0.8; stroke-linejoin: miter; stroke-linecap: square"/>
   </g>
   <g id="patch_6">
    <path d="M 33.64 26.88 
L 697.84033 26.88 
" style="fill: none; stroke: #000000; stroke-width: 0.8; stroke-linejoin: miter; stroke-linecap: square"/>
   </g>
   <g id="text_16">
    <!-- Leader proposal to nodes' decision (all nodes) -->
    <g transform="translate(227.664227 20.88) scale(0.12 -0.12)">
     <defs>
      <path id="DejaVuSans-4c" d="M 628 4666 
L 1259 4666 
L 1259 531 
L 3531 531 
L 3531 0 
L 628 0 
L 628 4666 
z
" transform="scale(0.015625)"/>
      <path id="DejaVuSans-65" d="M 3597 1894 
L 3597 1613 
L 953 1613 
Q 991 1019 1311 708 
Q 1631 397 2203 397 
Q 2534 397 2845 478 
Q 3156 559 3463 722 
L 3463 178 
Q 3153 47 2828 -22 
Q 2503 -91 2169 -91 
Q 1331 -91 842 396 
Q 353 884 353 1716 
Q 353 2575 817 3079 
Q 1281 3584 2069 3584 
Q 2775 3584 3186 3129 
Q 3597 2675 3597 1894 
z
M 3022 2063 
Q 3016 2534 2758 2815 
Q 2500 3097 2075 3097 
Q 1594 3097 1305 2825 
Q 1016 2553 972 2059 
L 3022 2063 
z
" transform="scale(0.015625)"/>
      <path id="DejaVuSans-61" d="M 2194 1759 
Q 1497 1759 1228 1600 
Q 959 1441 959 1056 
Q 959 750 1161 570 
Q 1363 391 1709 391 
Q 2188 391 2477 730 
Q 2766 1069 2766 1631 
L 2766 1759 
L 2194 1759 
z
M 3341 1997 
L 3341 0 
L 2766 0 
L 2766 531 
Q 2569 213 2275 61 
Q 1981 -91 1556 -91 
Q 1019 -91 701 211 
Q 384 513 384 1019 
Q 384 1609 779 1909 
Q 1175 2209 1959 2209 
L 2766 2209 
L 2766 2266 
Q 2766 2663 2505 2880 
Q 2244 3097 1772 3097 
Q 1472 3097 1187 3025 
Q 903 2953 641 2809 
L 641 3341 
Q 956 3463 1253 3523 
Q 1550 3584 1831 3584 
Q 2591 3584 2966 3190 
Q 3341 2797 3341 1997 
z
" transform="scale(0.015625)"/>
      <path id="DejaVuSans-64" d="M 2906 2969 
L 2906 4863 
L 3481 4863 
L 3481 0 
L 2906 0 
L 2906 525 
Q 2725 213 2448 61 
Q 2172 -91 1784 -91 
Q 1150 -91 751 415 
Q 353 922 353 1747 
Q 353 2572 751 3078 
Q 1150 3584 1784 3584 
Q 2172 3584 2448 3432 
Q 2725 3281 2906 2969 
z
M 947 1747 
Q 947 1113 1208 752 
Q 1469 391 1925 391 
Q 2381 391 2643 752 
Q 2906 1113 2906 1747 
Q 2906 2381 2643 2742 
Q 2381 3103 1925 3103 
Q 1469 3103 1208 2742 
Q 947 2381 947 1747 
z
" transform="scale(0.015625)"/>
      <path id="DejaVuSans-72" d="M 2631 2963 
Q 2534 3019 2420 3045 
Q 2306 3072 2169 3072 
Q 1681 3072 1420 2755 
Q 1159 2438 1159 1844 
L 1159 0 
L 581 0 
L 581 3500 
L 1159 3500 
L 1159 2956 
Q 1341 3275 1631 3429 
Q 1922 3584 2338 3584 
Q 2397 3584 2469 3576 
Q 2541 3569 2628 3553 
L 2631 2963 
z
" transform="scale(0.015625)"/>
      <path id="DejaVuSans-20" transform="scale(0.015625)"/>
      <path id="DejaVuSans-70" d="M 1159 525 
L 1159 -1331 
L 581 -1331 
L 581 3500 
L 1159 3500 
L 1159 2969 
Q 1341 3281 1617 3432 
Q 1894 3584 2278 3584 
Q 2916 3584 3314 3078 
Q 3713 2572 3713 1747 
Q 3713 922 3314 415 
Q 2916 -91 2278 -91 
Q 1894 -91 1617 61 
Q 1341 213 1159 525 
z
M 3116 1747 
Q 3116 2381 2855 2742 
Q 2594 3103 2138 3103 
Q 1681 3103 1420 2742 
Q 1159 2381 1159 1747 
Q 1159 1113 1420 752 
Q 1681 391 2138 391 
Q 2594 391 2855 752 
Q 3116 1113 3116 1747 
z
" transform="scale(0.015625)"/>
      <path id="DejaVuSans-6f" d="M 1959 3097 
Q 1497 3097 1228 2736 
Q 959 2375 959 1747 
Q 959 1119 1226 758 
Q 1494 397 1959 397 
Q 2419 397 2687 759 
Q 2956 1122 2956 1747 
Q 2956 2369 2687 2733 
Q 2419 3097 1959 3097 
z
M 1959 3584 
Q 2709 3584 3137 3096 
Q 3566 2609 3566 1747 
Q 3566 888 3137 398 
Q 2709 -91 1959 -91 
Q 1206 -91 779 398 
Q 353 888 353 1747 
Q 353 2609 779 3096 
Q 1206 3584 1959 3584 
z
" transform="scale(0.015625)"/>
      <path id="DejaVuSans-73" d="M 2834 3397 
L 2834 2853 
Q 2591 2978 2328 3040 
Q 2066 3103 1784 3103 
Q 1356 3103 1142 2972 
Q 928 2841 928 2578 
Q 928 2378 1081 2264 
Q 1234 2150 1697 2047 
L 1894 2003 
Q 2506 1872 2764 1633 
Q 3022 1394 3022 966 
Q 3022 478 2636 193 
Q 2250 -91 1575 -91 
Q 1294 -91 989 -36 
Q 684 19 347 128 
L 347 722 
Q 666 556 975 473 
Q 1284 391 1588 391 
Q 1994 391 2212 530 
Q 2431 669 2431 922 
Q 2431 1156 2273 1281 
Q 2116 1406 1581 1522 
L 1381 1569 
Q 847 1681 609 1914 
Q 372 2147 372 2553 
Q 372 3047 722 3315 
Q 1072 3584 1716 3584 
Q 2034 3584 2315 3537 
Q 2597 3491 2834 3397 
z
" transform="scale(0.015625)"/>
      <path id="DejaVuSans-6c" d="M 603 4863 
L 1178 4863 
L 1178 0 
L 603 0 
L 603 4863 
z
" transform="scale(0.015625)"/>
      <path id="DejaVuSans-74" d="M 1172 4494 
L 1172 3500 
L 2356 3500 
L 2356 3053 
L 1172 3053 
L 1172 1153 
Q 1172 725 1289 603 
Q 1406 481 1766 481 
L 2356 481 
L 2356 0 
L 1766 0 
Q 1100 0 847 248 
Q 594 497 594 1153 
L 594 3053 
L 172 3053 
L 172 3500 
L 594 3500 
L 594 4494 
L 1172 4494 
z
" transform="scale(0.015625)"/>
      <path id="DejaVuSans-6e" d="M 3513 2113 
L 3513 0 
L 2938 0 
L 2938 2094 
Q 2938 2591 2744 2837 
Q 2550 3084 2163 3084 
Q 1697 3084 1428 2787 
Q 1159 2491 1159 1978 
L 1159 0 
L 581 0 
L 581 3500 
L 1159 3500 
L 1159 2956 
Q 1366 3272 1645 3428 
Q 1925 3584 2291 3584 
Q 2894 3584 3203 3211 
Q 3513 2838 3513 2113 
z
" transform="scale(0.015625)"/>
      <path id="DejaVuSans-27" d="M 1147 4666 
L 1147 2931 
L 616 2931 
L 616 4666 
L 1147 4666 
z
" transform="scale(0.015625)"/>
      <path id="DejaVuSans-63" d="M 3122 3366 
L 3122 2828 
Q 2878 2963 2633 3030 
Q 2388 3097 2138 3097 
Q 1578 3097 1268 2742 
Q 959 2388 959 1747 
Q 959 1106 1268 751 
Q 1578 397 2138 397 
Q 2388 397 2633 464 
Q 2878 531 3122 666 
L 3122 134 
Q 2881 22 2623 -34 
Q 2366 -91 2075 -91 
Q 1284 -91 818 406 
Q 353 903 353 1747 
Q 353 2603 823 3093 
Q 1294 3584 2113 3584 
Q 2378 3584 2631 3529 
Q 2884 3475 3122 3366 
z
" transform="scale(0.015625)"/>
      <path id="DejaVuSans-69" d="M 603 3500 
L 1178 3500 
L 1178 0 
L 603 0 
L 603 3500 
z
M 603 4863 
L 1178 4863 
L 1178 4134 
L 603 4134 
L 603 4863 
z
" transform="scale(0.015625)"/>
      <path id="DejaVuSans-28" d="M 1984 4856 
Q 1566 4138 1362 3434 
Q 1159 2731 1159 2009 
Q 1159 1288 1364 580 
Q 1569 -128 1984 -844 
L 1484 -844 
Q 1016 -109 783 600 
Q 550 1309 550 2009 
Q 550 2706 781 3412 
Q 1013 4119 1484 4856 
L 1984 4856 
z
" transform="scale(0.015625)"/>
      <path id="DejaVuSans-29" d="M 513 4856 
L 1013 4856 
Q 1481 4119 1714 3412 
Q 1947 2706 1947 2009 
Q 1947 1309 1714 600 
Q 1481 -109 1013 -844 
L 513 -844 
Q 928 -128 1133 580 
Q 1338 1288 1338 2009 
Q 1338 2731 1133 3434 
Q 928 4138 513 4856 
z
" transform="scale(0.015625)"/>
     </defs>
     <use xlink:href="#DejaVuSans-4c"/>
     <use xlink:href="#DejaVuSans-65" transform="translate(53.962891 0)"/>
     <use xlink:href="#DejaVuSans-61" transform="translate(115.486328 0)"/>
     <use xlink:href="#DejaVuSans-64" transform="translate(176.765625 0)"/>
     <use xlink:href="#DejaVuSans-65" transform="translate(240.242188 0)"/>
     <use xlink:href="#DejaVuSans-72" transform="translate(301.765625 0)"/>
     <use xlink:href="#DejaVuSans-20" transform="translate(342.878906 0)"/>
     <use xlink:href="#DejaVuSans-70" transform="translate(374.666016 0)"/>
     <use xlink:href="#DejaVuSans-72" transform="translate(438.142578 0)"/>
     <use xlink:href="#DejaVuSans-6f" transform="translate(477.005859 0)"/>
     <use xlink:href="#DejaVuSans-70" transform="translate(538.1875 0)"/>
     <use xlink:href="#DejaVuSans-6f" transform="translate(601.664062 0)"/>
     <use xlink:href="#DejaVuSans-73" transform="translate(662.845703 0)"/>
     <use xlink:href="#DejaVuSans-61" transform="translate(714.945312 0)"/>
     <use xlink:href="#DejaVuSans-6c" transform="translate(776.224609 0)"/>
     <use xlink:href="#DejaVuSans-20" transform="translate(804.007812 0)"/>
     <use xlink:href="#DejaVuSans-74" transform="translate(835.794922 0)"/>
     <use xlink:href="#DejaVuSans-6f" transform="translate(875.003906 0)"/>
     <use xlink:href="#DejaVuSans-20" transform="translate(936.185547 0)"/>
     <use xlink:href="#DejaVuSans-6e" transform="translate(967.972656 0)"/>
     <use xlink:href="#DejaVuSans-6f" transform="translate(1031.351562 0)"/>
     <use xlink:href="#DejaVuSans-64" transform="translate(1092.533203 0)"/>
     <use xlink:href="#DejaVuSans-65" transform="translate(1156.009766 0)"/>
     <use xlink:href="#DejaVuSans-73" transform="translate(1217.533203 0)"/>
     <use xlink:href="#DejaVuSans-27" transform="translate(1269.632812 0)"/>
     <use xlink:href="#DejaVuSans-20" transform="translate(1297.123047 0)"/>
     <use xlink:href="#DejaVuSans-64" transform="translate(1328.910156 0)"/>
     <use xlink:href="#DejaVuSans-65" transform="translate(1392.386719 0)"/>
     <use xlink:href="#DejaVuSans-63" transform="translate(1453.910156 0)"/>
     <use xlink:href="#DejaVuSans-69" transform="translate(1508.890625 0)"/>
     <use xlink:href="#DejaVuSans-73" transform="translate(1536.673828 0)"/>
     <use xlink:href="#DejaVuSans-69" transform="translate(1588.773438 0)"/>
     <use xlink:href="#DejaVuSans-6f" transform="translate(1616.556641 0)"/>
     <use xlink:href="#DejaVuSans-6e" transform="translate(1677.738281 0)"/>
     <use xlink:href="#DejaVuSans-20" transform="translate(1741.117188 0)"/>
     <use xlink:href="#DejaVuSans-28" transform="translate(1772.904297 0)"/>
     <use xlink:href="#DejaVuSans-61" transform="translate(1811.917969 0)"/>
     <use xlink:href="#DejaVuSans-6c" transform="translate(1873.197266 0)"/>
     <use xlink:href="#DejaVuSans-6c" transform="translate(1900.980469 0)"/>
     <use xlink:href="#DejaVuSans-20" transform="translate(1928.763672 0)"/>
     <use xlink:href="#DejaVuSans-6e" transform="translate(1960.550781 0)"/>
     <use xlink:href="#DejaVuSans-6f" transform="translate(2023.929688 0)"/>
     <use xlink:href="#DejaVuSans-64" transform="translate(2085.111328 0)"/>
     <use xlink:href="#DejaVuSans-65" transform="translate(2148.587891 0)"/>
     <use xlink:href="#DejaVuSans-73" transform="translate(2210.111328 0)"/>
     <use xlink:href="#DejaVuSans-29" transform="translate(2262.210938 0)"/>
    </g>
   </g>
  </g>
 </g>
 <defs>
  <clipPath id="pfcedde5208">
   <rect x="33.64" y="26.88" width="664.20033" height="364.53702"/>
  </clipPath>
 </defs>
</svg>
