<?xml version="1.0" encoding="utf-8" standalone="no"?>
<!DOCTYPE svg PUBLIC "-//W3C//DTD SVG 1.1//EN"
  "http://www.w3.org/Graphics/SVG/1.1/DTD/svg11.dtd">
<svg xmlns:xlink="http://www.w3.org/1999/xlink" width="720pt" height="432pt" viewBox="0 0 720 432" xmlns="http://www.w3.org/2000/svg" version="1.1">
 <metadata>
  <rdf:RDF xmlns:dc="http://purl.org/dc/elements/1.1/" xmlns:cc="http://creativecommons.org/ns#" xmlns:rdf="http://www.w3.org/1999/02/22-rdf-syntax-ns#">
   <cc:Work>
    <dc:type rdf:resource="http://purl.org/dc/dcmitype/StillImage"/>
    <dc:date>2026-05-28T01:30:09.340656</dc:date>
    <dc:format>image/svg+xml</dc:format>
    <dc:creator>
     <cc:Agent>
      <dc:title>Matplotlib v3.10.1, https://matplotlib.org/</dc:title>
     </cc:Agent>
    </dc:creator>
   </cc:Work>
  </rdf:RDF>
 </metadata>
 <defs>
  <style type="text/css">*{stroke-linejoin: round; stroke-linecap: butt}</style>
 </defs>
 <g id="figure_1">
  <g id="patch_1">
   <path d="M 0 432 
L 720 432 
L 720 0 
L 0 0 
z
" style="fill: #ffffff"/>
  </g>
  <g id="axes_1">
   <g id="patch_2">
    <path d="M 33.64 391.41702 
L 697.84033 391.41702 
L 697.84033 26.88 
L 33.64 26.88 
z
" style="fill: #ffffff"/>
   </g>
   <g id="matplotlib.axis_1">
    <g id="xtick_1">
     <g id="line2d_1">
      <path d="M 33.64 391.41702 
L 33.64 26.88 
" clip-path="url(#p390b60f5f6)" style="fill: none; stroke: #b0b0b0; stroke-width: 0.8; stroke-linecap: square"/>
     </g>
     <g id="line2d_2">
      <defs>
       <path id="mbdc157aa6d" d="M 0 0 
L 0 3.5 
" style="stroke: #000000; stroke-width: 0.8"/>
      </defs>
      <g>
       <use xlink:href="#mbdc157aa6d" x="33.64" y="391.41702" style="stroke: #000000; stroke-width: 0.8"/>
      </g>
     </g>
     <g id="text_1">
      <!-- 0.00 -->
      <g transform="translate(27.719086 419.534101) rotate(-45) scale(0.1 -0.1)">
       <defs>
        <path id="DejaVuSans-30" d="M 2034 4250 
Q 1547 4250 1301 3770 
Q 1056 3291 1056 2328 
Q 1056 1369 1301 889 
Q 1547 409 2034 409 
Q 2525 409 2770 889 
Q 3016 1369 3016 2328 
Q 3016 3291 2770 3770 
Q 2525 4250 2034 4250 
z
M 2034 4750 
Q 2819 4750 3233 4129 
Q 3647 3509 3647 2328 
Q 3647 1150 3233 529 
Q 2819 -91 2034 -91 
Q 1250 -91 836 529 
Q 422 1150 422 2328 
Q 422 3509 836 4129 
Q 1250 4750 2034 4750 
z
" transform="scale(0.015625)"/>
        <path id="DejaVuSans-2e" d="M 684 794 
L 1344 794 
L 1344 0 
L 684 0 
L 684 794 
z
" transform="scale(0.015625)"/>
       </defs>
       <use xlink:href="#DejaVuSans-30"/>
       <use xlink:href="#DejaVuSans-2e" transform="translate(63.623047 0)"/>
       <use xlink:href="#DejaVuSans-30" transform="translate(95.410156 0)"/>
       <use xlink:href="#DejaVuSans-30" transform="translate(159.033203 0)"/>
      </g>
     </g>
    </g>
    <g id="xtick_2">
     <g id="line2d_3">
      <path d="M 116.665041 391.41702 
L 116.665041 26.88 
" clip-path="url(#p390b60f5f6)" style="fill: none; stroke: #b0b0b0; stroke-width: 0.8; stroke-linecap: square"/>
     </g>
     <g id="line2d_4">
      <g>
       <use xlink:href="#mbdc157aa6d" x="116.665041" y="391.41702" style="stroke: #000000; stroke-width: 0.8"/>
      </g>
     </g>
     <g id="text_2">
      <!-- 0.25 -->
      <g transform="translate(110.744127 419.534101) rotate(-45) scale(0.1 -0.1)">
       <defs>
        <path id="DejaVuSans-32" d="M 1228 531 
L 3431 531 
L 3431 0 
L 469 0 
L 469 531 
Q 828 903 1448 1529 
Q 2069 2156 2228 2338 
Q 2531 2678 2651 2914 
Q 2772 3150 2772 3378 
Q 2772 3750 2511 3984 
Q 2250 4219 1831 4219 
Q 1534 4219 1204 4116 
Q 875 4013 500 3803 
L 500 4441 
Q 881 4594 1212 4672 
Q 1544 4750 1819 4750 
Q 2544 4750 2975 4387 
Q 3406 4025 3406 3419 
Q 3406 3131 3298 2873 
Q 3191 2616 2906 2266 
Q 2828 2175 2409 1742 
Q 1991 1309 1228 531 
z
" transform="scale(0.015625)"/>
        <path id="DejaVuSans-35" d="M 691 4666 
L 3169 4666 
L 3169 4134 
L 1269 4134 
L 1269 2991 
Q 1406 3038 1543 3061 
Q 1681 3084 1819 3084 
Q 2600 3084 3056 2656 
Q 3513 2228 3513 1497 
Q 3513 744 3044 326 
Q 2575 -91 1722 -91 
Q 1428 -91 1123 -41 
Q 819 9 494 109 
L 494 744 
Q 775 591 1075 516 
Q 1375 441 1709 441 
Q 2250 441 2565 725 
Q 2881 1009 2881 1497 
Q 2881 1984 2565 2268 
Q 2250 2553 1709 2553 
Q 1456 2553 1204 2497 
Q 953 2441 691 2322 
L 691 4666 
z
" transform="scale(0.015625)"/>
       </defs>
       <use xlink:href="#DejaVuSans-30"/>
       <use xlink:href="#DejaVuSans-2e" transform="translate(63.623047 0)"/>
       <use xlink:href="#DejaVuSans-32" transform="translate(95.410156 0)"/>
       <use xlink:href="#DejaVuSans-35" transform="translate(159.033203 0)"/>
      </g>
     </g>
    </g>
    <g id="xtick_3">
     <g id="line2d_5">
      <path d="M 199.690082 391.41702 
L 199.690082 26.88 
" clip-path="url(#p390b60f5f6)" style="fill: none; stroke: #b0b0b0; stroke-width: 0.8; stroke-linecap: square"/>
     </g>
     <g id="line2d_6">
      <g>
       <use xlink:href="#mbdc157aa6d" x="199.690082" y="391.41702" style="stroke: #000000; stroke-width: 0.8"/>
      </g>
     </g>
     <g id="text_3">
      <!-- 0.50 -->
      <g transform="translate(193.769168 419.534101) rotate(-45) scale(0.1 -0.1)">
       <use xlink:href="#DejaVuSans-30"/>
       <use xlink:href="#DejaVuSans-2e" transform="translate(63.623047 0)"/>
       <use xlink:href="#DejaVuSans-35" transform="translate(95.410156 0)"/>
       <use xlink:href="#DejaVuSans-30" transform="translate(159.033203 0)"/>
      </g>
     </g>
    </g>
    <g id="xtick_4">
     <g id="line2d_7">
      <path d="M 282.715124 391.41702 
L 282.715124 26.88 
" clip-path="url(#p390b60f5f6)" style="fill: none; stroke: #b0b0b0; stroke-width: 0.8; stroke-linecap: square"/>
     </g>
     <g id="line2d_8">
      <g>
       <use xlink:href="#mbdc157aa6d" x="282.715124" y="391.41702" style="stroke: #000000; stroke-width: 0.8"/>
      </g>
     </g>
     <g id="text_4">
      <!-- 0.75 -->
      <g transform="translate(276.794209 419.534101) rotate(-45) scale(0.1 -0.1)">
       <defs>
        <path id="DejaVuSans-37" d="M 525 4666 
L 3525 4666 
L 3525 4397 
L 1831 0 
L 1172 0 
L 2766 4134 
L 525 4134 
L 525 4666 
z
" transform="scale(0.015625)"/>
       </defs>
       <use xlink:href="#DejaVuSans-30"/>
       <use xlink:href="#DejaVuSans-2e" transform="translate(63.623047 0)"/>
       <use xlink:href="#DejaVuSans-37" transform="translate(95.410156 0)"/>
       <use xlink:href="#DejaVuSans-35" transform="translate(159.033203 0)"/>
      </g>
     </g>
    </g>
    <g id="xtick_5">
     <g id="line2d_9">
      <path d="M 365.740165 391.41702 
L 365.740165 26.88 
" clip-path="url(#p390b60f5f6)" style="fill: none; stroke: #b0b0b0; stroke-width: 0.8; stroke-linecap: square"/>
     </g>
     <g id="line2d_10">
      <g>
       <use xlink:href="#mbdc157aa6d" x="365.740165" y="391.41702" style="stroke: #000000; stroke-width: 0.8"/>
      </g>
     </g>
     <g id="text_5">
      <!-- 1.00 -->
      <g transform="translate(359.81925 419.534101) rotate(-45) scale(0.1 -0.1)">
       <defs>
        <path id="DejaVuSans-31" d="M 794 531 
L 1825 531 
L 1825 4091 
L 703 3866 
L 703 4441 
L 1819 4666 
L 2450 4666 
L 2450 531 
L 3481 531 
L 3481 0 
L 794 0 
L 794 531 
z
" transform="scale(0.015625)"/>
       </defs>
       <use xlink:href="#DejaVuSans-31"/>
       <use xlink:href="#DejaVuSans-2e" transform="translate(63.623047 0)"/>
       <use xlink:href="#DejaVuSans-30" transform="translate(95.410156 0)"/>
       <use xlink:href="#DejaVuSans-30" transform="translate(159.033203 0)"/>
      </g>
     </g>
    </g>
    <g id="xtick_6">
     <g id="line2d_11">
      <path d="M 448.765206 391.41702 
L 448.765206 26.88 
" clip-path="url(#p390b60f5f6)" style="fill: none; stroke: #b0b0b0; stroke-width: 0.8; stroke-linecap: square"/>
     </g>
     <g id="line2d_12">
      <g>
       <use xlink:href="#mbdc157aa6d" x="448.765206" y="391.41702" style="stroke: #000000; stroke-width: 0.8"/>
      </g>
     </g>
     <g id="text_6">
      <!-- 1.25 -->
      <g transform="translate(442.844292 419.534101) rotate(-45) scale(0.1 -0.1)">
       <use xlink:href="#DejaVuSans-31"/>
       <use xlink:href="#DejaVuSans-2e" transform="translate(63.623047 0)"/>
       <use xlink:href="#DejaVuSans-32" transform="translate(95.410156 0)"/>
       <use xlink:href="#DejaVuSans-35" transform="translate(159.033203 0)"/>
      </g>
     </g>
    </g>
    <g id="xtick_7">
     <g id="line2d_13">
      <path d="M 531.790247 391.41702 
L 531.790247 26.88 
" clip-path="url(#p390b60f5f6)" style="fill: none; stroke: #b0b0b0; stroke-width: 0.8; stroke-linecap: square"/>
     </g>
     <g id="line2d_14">
      <g>
       <use xlink:href="#mbdc157aa6d" x="531.790247" y="391.41702" style="stroke: #000000; stroke-width: 0.8"/>
      </g>
     </g>
     <g id="text_7">
      <!-- 1.50 -->
      <g transform="translate(525.869333 419.534101) rotate(-45) scale(0.1 -0.1)">
       <use xlink:href="#DejaVuSans-31"/>
       <use xlink:href="#DejaVuSans-2e" transform="translate(63.623047 0)"/>
       <use xlink:href="#DejaVuSans-35" transform="translate(95.410156 0)"/>
       <use xlink:href="#DejaVuSans-30" transform="translate(159.033203 0)"/>
      </g>
     </g>
    </g>
    <g id="xtick_8">
     <g id="line2d_15">
      <path d="M 614.815288 391.41702 
L 614.815288 26.88 
" clip-path="url(#p390b60f5f6)" style="fill: none; stroke: #b0b0b0; stroke-width: 0.8; stroke-linecap: square"/>
     </g>
     <g id="line2d_16">
      <g>
       <use xlink:href="#mbdc157aa6d" x="614.815288" y="391.41702" style="stroke: #000000; stroke-width: 0.8"/>
      </g>
     </g>
     <g id="text_8">
      <!-- 1.75 -->
      <g transform="translate(608.894374 419.534101) rotate(-45) scale(0.1 -0.1)">
       <use xlink:href="#DejaVuSans-31"/>
       <use xlink:href="#DejaVuSans-2e" transform="translate(63.623047 0)"/>
       <use xlink:href="#DejaVuSans-37" transform="translate(95.410156 0)"/>
       <use xlink:href="#DejaVuSans-35" transform="translate(159.033203 0)"/>
      </g>
     </g>
    </g>
    <g id="xtick_9">
     <g id="line2d_17">
      <path d="M 697.84033 391.41702 
L 697.84033 26.88 
" clip-path="url(#p390b60f5f6)" style="fill: none; stroke: #b0b0b0; stroke-width: 0.8; stroke-linecap: square"/>
     </g>
     <g id="line2d_18">
      <g>
       <use xlink:href="#mbdc157aa6d" x="697.84033" y="391.41702" style="stroke: #000000; stroke-width: 0.8"/>
      </g>
     </g>
     <g id="text_9">
      <!-- 2.00 -->
      <g transform="translate(691.919415 419.534101) rotate(-45) scale(0.1 -0.1)">
       <use xlink:href="#DejaVuSans-32"/>
       <use xlink:href="#DejaVuSans-2e" transform="translate(63.623047 0)"/>
       <use xlink:href="#DejaVuSans-30" transform="translate(95.410156 0)"/>
       <use xlink:href="#DejaVuSans-30" transform="translate(159.033203 0)"/>
      </g>
     </g>
    </g>
   </g>
   <g id="matplotlib.axis_2">
    <g id="ytick_1">
     <g id="line2d_19">
      <path d="M 33.64 391.41702 
L 697.84033 391.41702 
" clip-path="url(#p390b60f5f6)" style="fill: none; stroke: #b0b0b0; stroke-width: 0.8; stroke-linecap: square"/>
     </g>
     <g id="line2d_20">
      <defs>
       <path id="m3fd979aafe" d="M 0 0 
L -3.5 0 
" style="stroke: #000000; stroke-width: 0.8"/>
      </defs>
      <g>
       <use xlink:href="#m3fd979aafe" x="33.64" y="391.41702" style="stroke: #000000; stroke-width: 0.8"/>
      </g>
     </g>
     <g id="text_10">
      <!-- 0.0 -->
      <g transform="translate(10.736875 395.216238) scale(0.1 -0.1)">
       <use xlink:href="#DejaVuSans-30"/>
       <use xlink:href="#DejaVuSans-2e" transform="translate(63.623047 0)"/>
       <use xlink:href="#DejaVuSans-30" transform="translate(95.410156 0)"/>
      </g>
     </g>
    </g>
    <g id="ytick_2">
     <g id="line2d_21">
      <path d="M 33.64 318.509616 
L 697.84033 318.509616 
" clip-path="url(#p390b60f5f6)" style="fill: none; stroke: #b0b0b0; stroke-width: 0.8; stroke-linecap: square"/>
     </g>
     <g id="line2d_22">
      <g>
       <use xlink:href="#m3fd979aafe" x="33.64" y="318.509616" style="stroke: #000000; stroke-width: 0.8"/>
      </g>
     </g>
     <g id="text_11">
      <!-- 0.2 -->
      <g transform="translate(10.736875 322.308834) scale(0.1 -0.1)">
       <use xlink:href="#DejaVuSans-30"/>
       <use xlink:href="#DejaVuSans-2e" transform="translate(63.623047 0)"/>
       <use xlink:href="#DejaVuSans-32" transform="translate(95.410156 0)"/>
      </g>
     </g>
    </g>
    <g id="ytick_3">
     <g id="line2d_23">
      <path d="M 33.64 245.602212 
L 697.84033 245.602212 
" clip-path="url(#p390b60f5f6)" style="fill: none; stroke: #b0b0b0; stroke-width: 0.8; stroke-linecap: square"/>
     </g>
     <g id="line2d_24">
      <g>
       <use xlink:href="#m3fd979aafe" x="33.64" y="245.602212" style="stroke: #000000; stroke-width: 0.8"/>
      </g>
     </g>
     <g id="text_12">
      <!-- 0.4 -->
      <g transform="translate(10.736875 249.40143) scale(0.1 -0.1)">
       <defs>
        <path id="DejaVuSans-34" d="M 2419 4116 
L 825 1625 
L 2419 1625 
L 2419 4116 
z
M 2253 4666 
L 3047 4666 
L 3047 1625 
L 3713 1625 
L 3713 1100 
L 3047 1100 
L 3047 0 
L 2419 0 
L 2419 1100 
L 313 1100 
L 313 1709 
L 2253 4666 
z
" transform="scale(0.015625)"/>
       </defs>
       <use xlink:href="#DejaVuSans-30"/>
       <use xlink:href="#DejaVuSans-2e" transform="translate(63.623047 0)"/>
       <use xlink:href="#DejaVuSans-34" transform="translate(95.410156 0)"/>
      </g>
     </g>
    </g>
    <g id="ytick_4">
     <g id="line2d_25">
      <path d="M 33.64 172.694808 
L 697.84033 172.694808 
" clip-path="url(#p390b60f5f6)" style="fill: none; stroke: #b0b0b0; stroke-width: 0.8; stroke-linecap: square"/>
     </g>
     <g id="line2d_26">
      <g>
       <use xlink:href="#m3fd979aafe" x="33.64" y="172.694808" style="stroke: #000000; stroke-width: 0.8"/>
      </g>
     </g>
     <g id="text_13">
      <!-- 0.6 -->
      <g transform="translate(10.736875 176.494027) scale(0.1 -0.1)">
       <defs>
        <path id="DejaVuSans-36" d="M 2113 2584 
Q 1688 2584 1439 2293 
Q 1191 2003 1191 1497 
Q 1191 994 1439 701 
Q 1688 409 2113 409 
Q 2538 409 2786 701 
Q 3034 994 3034 1497 
Q 3034 2003 2786 2293 
Q 2538 2584 2113 2584 
z
M 3366 4563 
L 3366 3988 
Q 3128 4100 2886 4159 
Q 2644 4219 2406 4219 
Q 1781 4219 1451 3797 
Q 1122 3375 1075 2522 
Q 1259 2794 1537 2939 
Q 1816 3084 2150 3084 
Q 2853 3084 3261 2657 
Q 3669 2231 3669 1497 
Q 3669 778 3244 343 
Q 2819 -91 2113 -91 
Q 1303 -91 875 529 
Q 447 1150 447 2328 
Q 447 3434 972 4092 
Q 1497 4750 2381 4750 
Q 2619 4750 2861 4703 
Q 3103 4656 3366 4563 
z
" transform="scale(0.015625)"/>
       </defs>
       <use xlink:href="#DejaVuSans-30"/>
       <use xlink:href="#DejaVuSans-2e" transform="translate(63.623047 0)"/>
       <use xlink:href="#DejaVuSans-36" transform="translate(95.410156 0)"/>
      </g>
     </g>
    </g>
    <g id="ytick_5">
     <g id="line2d_27">
      <path d="M 33.64 99.787404 
L 697.84033 99.787404 
" clip-path="url(#p390b60f5f6)" style="fill: none; stroke: #b0b0b0; stroke-width: 0.8; stroke-linecap: square"/>
     </g>
     <g id="line2d_28">
      <g>
       <use xlink:href="#m3fd979aafe" x="33.64" y="99.787404" style="stroke: #000000; stroke-width: 0.8"/>
      </g>
     </g>
     <g id="text_14">
      <!-- 0.8 -->
      <g transform="translate(10.736875 103.586623) scale(0.1 -0.1)">
       <defs>
        <path id="DejaVuSans-38" d="M 2034 2216 
Q 1584 2216 1326 1975 
Q 1069 1734 1069 1313 
Q 1069 891 1326 650 
Q 1584 409 2034 409 
Q 2484 409 2743 651 
Q 3003 894 3003 1313 
Q 3003 1734 2745 1975 
Q 2488 2216 2034 2216 
z
M 1403 2484 
Q 997 2584 770 2862 
Q 544 3141 544 3541 
Q 544 4100 942 4425 
Q 1341 4750 2034 4750 
Q 2731 4750 3128 4425 
Q 3525 4100 3525 3541 
Q 3525 3141 3298 2862 
Q 3072 2584 2669 2484 
Q 3125 2378 3379 2068 
Q 3634 1759 3634 1313 
Q 3634 634 3220 271 
Q 2806 -91 2034 -91 
Q 1263 -91 848 271 
Q 434 634 434 1313 
Q 434 1759 690 2068 
Q 947 2378 1403 2484 
z
M 1172 3481 
Q 1172 3119 1398 2916 
Q 1625 2713 2034 2713 
Q 2441 2713 2670 2916 
Q 2900 3119 2900 3481 
Q 2900 3844 2670 4047 
Q 2441 4250 2034 4250 
Q 1625 4250 1398 4047 
Q 1172 3844 1172 3481 
z
" transform="scale(0.015625)"/>
       </defs>
       <use xlink:href="#DejaVuSans-30"/>
       <use xlink:href="#DejaVuSans-2e" transform="translate(63.623047 0)"/>
       <use xlink:href="#DejaVuSans-38" transform="translate(95.410156 0)"/>
      </g>
     </g>
    </g>
    <g id="ytick_6">
     <g id="line2d_29">
      <path d="M 33.64 26.88 
L 697.84033 26.88 
" clip-path="url(#p390b60f5f6)" style="fill: none; stroke: #b0b0b0; stroke-width: 0.8; stroke-linecap: square"/>
     </g>
     <g id="line2d_30">
      <g>
       <use xlink:href="#m3fd979aafe" x="33.64" y="26.88" style="stroke: #000000; stroke-width: 0.8"/>
      </g>
     </g>
     <g id="text_15">
      <!-- 1.0 -->
      <g transform="translate(10.736875 30.679219) scale(0.1 -0.1)">
       <use xlink:href="#DejaVuSans-31"/>
       <use xlink:href="#DejaVuSans-2e" transform="translate(63.623047 0)"/>
       <use xlink:href="#DejaVuSans-30" transform="translate(95.410156 0)"/>
      </g>
     </g>
    </g>
   </g>
   <g id="line2d_31">
    <path d="M 110.412259 391.41702 
L 110.412259 391.329663 
L 113.020574 391.242307 
L 113.020574 391.154951 
L 114.73886 391.067595 
L 114.73886 390.980239 
L 114.992585 390.892883 
L 114.992585 390.805527 
L 115.267896 390.718171 
L 115.372175 390.543458 
L 116.302388 390.456102 
L 116.380099 390.28139 
L 116.784265 390.194034 
L 116.784265 390.106678 
L 117.082159 390.019322 
L 117.082159 389.931966 
L 118.481629 389.84461 
L 118.481629 389.757254 
L 118.696166 389.669897 
L 118.798121 389.495185 
L 119.049188 389.407829 
L 119.049188 389.320473 
L 119.716378 389.233117 
L 119.716378 389.145761 
L 120.221834 389.058405 
L 120.317479 388.883693 
L 120.714006 388.796336 
L 120.714006 388.70898 
L 121.703997 388.621624 
L 121.787022 388.446912 
L 122.070636 388.359556 
L 122.070636 388.2722 
L 122.490742 388.184844 
L 122.490742 388.097488 
L 123.011807 388.010131 
L 123.011807 387.922775 
L 123.267857 387.835419 
L 123.267857 387.748063 
L 123.541175 387.660707 
L 123.541175 387.573351 
L 124.293382 387.485995 
L 124.377071 387.311283 
L 125.077803 387.223927 
L 125.110348 387.049214 
L 125.22127 386.961858 
L 125.274074 386.787146 
L 125.543075 386.69979 
L 125.543075 386.612434 
L 125.990414 386.525078 
L 125.990414 386.437722 
L 126.240485 386.350366 
L 126.297939 386.088297 
L 126.746938 386.000941 
L 126.746938 385.913585 
L 126.906678 385.826229 
L 126.950515 385.651517 
L 127.557927 385.564161 
L 127.663534 385.214736 
L 127.714014 385.12738 
L 127.760176 384.952668 
L 128.002277 384.865312 
L 128.09925 384.515887 
L 128.29054 384.428531 
L 128.360613 384.079107 
L 128.539615 383.991751 
L 128.64489 383.729682 
L 128.851789 383.642326 
L 128.859095 383.467614 
L 129.069979 383.380258 
L 129.153004 382.943477 
L 129.192524 382.856121 
L 129.265586 382.594053 
L 129.324367 382.506697 
L 129.324367 382.419341 
L 129.619604 382.331985 
L 129.729862 381.807848 
L 129.879971 381.720492 
L 129.975616 381.458424 
L 130.064287 381.371068 
L 130.168234 381.108999 
L 130.205429 381.021643 
L 130.269857 380.846931 
L 130.451515 380.759575 
L 130.46646 380.497507 
L 130.636827 380.41015 
L 130.725166 379.798658 
L 130.807195 379.711302 
L 130.875939 379.274521 
L 130.930072 379.187165 
L 130.930072 379.099809 
L 131.073539 379.012453 
L 131.178815 378.488316 
L 131.209036 378.40096 
L 131.291065 378.226248 
L 131.35682 378.138892 
L 131.416598 377.789467 
L 131.540804 377.702111 
L 131.650729 377.265331 
L 131.7125 377.177975 
L 131.78689 376.653838 
L 131.854639 376.566482 
L 131.949619 375.954989 
L 132.034637 375.867633 
L 132.114673 375.692921 
L 132.199026 375.605565 
L 132.30397 375.343496 
L 132.31825 375.25614 
L 132.370058 375.081428 
L 132.499909 374.994072 
L 132.592565 374.644648 
L 132.714778 374.557292 
L 132.816401 373.945799 
L 132.830349 373.858443 
L 132.919684 373.421662 
L 132.946252 373.334306 
L 133.010679 372.722813 
L 133.119608 372.635457 
L 133.220567 372.373389 
L 133.29861 372.286033 
L 133.392262 371.936608 
L 133.457354 371.849252 
L 133.541043 371.587184 
L 133.590194 371.499828 
L 133.685175 371.063047 
L 133.7413 370.975691 
L 133.843254 370.451555 
L 133.89639 370.364199 
L 134.001998 370.014774 
L 134.11923 369.927418 
L 134.177679 369.490638 
L 134.270667 369.403281 
L 134.358342 368.791789 
L 134.447345 368.704433 
L 134.54465 368.267652 
L 134.636974 368.180296 
L 134.742582 367.830872 
L 134.824278 367.743515 
L 134.925901 367.306735 
L 134.944831 367.219379 
L 135.055752 366.52053 
L 135.124497 366.433174 
L 135.222798 365.734325 
L 135.263979 365.646969 
L 135.367594 365.297545 
L 135.381874 365.210188 
L 135.484825 364.51134 
L 135.520028 364.423984 
L 135.616337 363.812491 
L 135.679436 363.725135 
L 135.790358 363.200998 
L 135.870726 363.113642 
L 135.957404 362.327437 
L 136.076628 362.240081 
L 136.187217 361.453876 
L 136.245003 361.36652 
L 136.351939 360.318247 
L 136.367216 360.230891 
L 136.456883 359.619398 
L 136.522306 359.532042 
L 136.632896 358.745837 
L 136.667434 358.658481 
L 136.74116 358.046988 
L 136.81389 357.959632 
L 136.874665 357.435495 
L 137.0178 357.348139 
L 137.127393 356.474578 
L 137.133039 356.387222 
L 137.243628 355.601017 
L 137.271524 355.513661 
L 137.380785 354.203319 
L 137.393073 354.115963 
L 137.471117 353.504471 
L 137.546503 353.417115 
L 137.618237 352.892978 
L 137.683993 352.805622 
L 137.770007 352.106773 
L 137.799564 352.019417 
L 137.834434 351.757349 
L 137.913142 351.757349 
L 137.913142 351.669992 
L 138.018418 350.359651 
L 138.038344 350.272295 
L 138.144616 349.573446 
L 138.235279 349.48609 
L 138.345204 348.001036 
L 138.393359 347.91368 
L 138.488671 346.952763 
L 138.508597 346.865407 
L 138.613541 346.34127 
L 138.634131 346.253914 
L 138.745053 345.292997 
L 138.767636 345.205641 
L 138.869258 344.070011 
L 138.984165 343.982655 
L 139.090105 342.847026 
L 139.106378 342.75967 
L 139.196045 342.060821 
L 139.249845 341.973465 
L 139.344826 341.012548 
L 139.407925 340.925192 
L 139.518846 339.876919 
L 139.579288 339.789562 
L 139.681907 339.003357 
L 139.71711 338.916001 
L 139.808437 338.217153 
L 139.859249 338.129796 
L 139.888474 337.867728 
L 139.979801 337.780372 
L 140.078103 336.819455 
L 140.107992 336.732099 
L 140.216921 335.683826 
L 140.238839 335.596469 
L 140.338469 334.984977 
L 140.393598 334.897621 
L 140.495553 333.936703 
L 140.541383 333.849347 
L 140.641677 332.713718 
L 140.705108 332.626362 
L 140.812708 331.578089 
L 140.842265 331.490733 
L 140.947873 330.355103 
L 140.969128 330.267747 
L 141.075068 329.219474 
L 141.13551 329.132118 
L 141.239457 328.083845 
L 141.27466 327.996488 
L 141.382924 327.122927 
L 141.403515 327.035571 
L 141.506798 325.899942 
L 141.538347 325.812586 
L 141.619048 324.851669 
L 141.67484 324.764313 
L 141.770817 324.065464 
L 141.796057 324.065464 
L 141.796057 323.978108 
L 141.906314 323.279259 
L 141.966756 323.191903 
L 142.041479 322.405698 
L 142.102585 322.318342 
L 142.197566 321.357425 
L 142.226791 321.270068 
L 142.333063 320.221795 
L 142.360627 320.134439 
L 142.460921 319.522946 
L 142.490811 319.43559 
L 142.584795 318.387317 
L 142.645237 318.299961 
L 142.756159 317.251688 
L 142.775088 317.164332 
L 142.878371 316.290771 
L 142.932836 316.203414 
L 143.043425 314.893073 
L 143.062355 314.805717 
L 143.162649 313.495375 
L 143.211136 313.408019 
L 143.305452 312.27239 
L 143.363238 312.185034 
L 143.445266 310.962048 
L 143.489436 310.874692 
L 143.569804 310.437912 
L 143.61497 310.350556 
L 143.724563 309.302282 
L 143.742496 309.214926 
L 143.843787 308.865502 
L 143.883971 308.778146 
L 143.990575 307.817229 
L 144.003195 307.729872 
L 144.101496 306.856311 
L 144.146994 306.768955 
L 144.255259 305.54597 
L 144.268211 305.458614 
L 144.374151 304.060916 
L 144.402047 303.97356 
L 144.497028 303.362067 
L 144.571418 303.274711 
L 144.680679 302.313794 
L 144.709904 302.226438 
L 144.819497 301.352877 
L 144.836766 301.265521 
L 144.944034 300.304604 
L 144.951009 300.217248 
L 145.055288 299.081618 
L 145.115398 298.994262 
L 145.216357 298.120701 
L 145.248238 298.033345 
L 145.355839 296.985072 
L 145.398015 296.897716 
L 145.481372 295.936798 
L 145.516907 295.849442 
L 145.626168 294.888525 
L 145.641445 294.801169 
L 145.747053 293.490828 
L 145.80351 293.403471 
L 145.907789 292.52991 
L 145.926719 292.442554 
L 146.035316 291.044857 
L 146.05823 290.957501 
L 146.146901 290.171296 
L 146.174798 290.08394 
L 146.237565 289.734515 
L 146.30797 289.647159 
L 146.39332 289.035666 
L 146.426862 289.035666 
L 146.426862 288.94831 
L 146.533466 287.812681 
L 146.54841 287.725325 
L 146.645051 287.026476 
L 146.698187 286.93912 
L 146.808445 285.80349 
L 146.832688 285.716134 
L 146.93896 284.405793 
L 146.954569 284.318437 
L 147.044568 283.706944 
L 147.067815 283.706944 
L 147.067815 283.619588 
L 147.17143 283.008095 
L 147.197666 282.920739 
L 147.306927 282.22189 
L 147.309584 282.134534 
L 147.418513 280.998905 
L 147.432461 280.911549 
L 147.534748 279.950632 
L 147.549028 279.863275 
L 147.644009 278.989714 
L 147.678215 278.902358 
L 147.784819 277.242592 
L 147.809063 277.155236 
L 147.913674 275.844895 
L 147.932604 275.757539 
L 148.023599 274.709265 
L 148.092012 274.621909 
L 148.178358 273.573636 
L 148.2657 273.48628 
L 148.373633 272.438007 
L 148.387249 272.350651 
L 148.468946 270.952953 
L 148.518428 270.865597 
L 148.624368 269.555255 
L 148.660235 269.467899 
L 148.755548 268.157558 
L 148.783777 268.070202 
L 148.884403 267.19664 
L 148.916949 267.109284 
L 149.027538 266.410436 
L 149.03252 266.323079 
L 149.135471 265.012738 
L 149.156725 264.925382 
L 149.263993 264.139177 
L 149.278606 264.051821 
L 149.383217 263.003548 
L 149.410782 262.916191 
L 149.517386 262.04263 
L 149.572847 261.955274 
L 149.679451 260.557577 
L 149.700041 260.470221 
L 149.80432 259.421947 
L 149.83122 259.334591 
L 149.922216 258.198962 
L 149.944135 258.111606 
L 150.033469 257.150689 
L 150.061698 257.063332 
L 150.16797 256.102415 
L 150.183579 256.015059 
L 150.273246 254.792074 
L 150.328374 254.704718 
L 150.432986 253.569088 
L 150.442617 253.481732 
L 150.546896 252.171391 
L 150.578778 252.084035 
L 150.682061 250.773693 
L 150.733204 250.686337 
L 150.831506 249.72542 
L 150.87634 249.638064 
L 150.96501 248.58979 
L 151.00453 248.502434 
L 151.112463 246.667956 
L 151.131725 246.5806 
L 151.233015 245.357615 
L 151.246963 245.270259 
L 151.340284 244.658766 
L 151.372497 244.57141 
L 151.478437 243.523136 
L 151.515965 243.43578 
L 151.601979 241.950727 
L 151.651794 241.86337 
L 151.752088 240.640385 
L 151.765372 240.553029 
L 151.868323 239.504756 
L 151.898544 239.4174 
L 152.009133 238.369126 
L 152.016772 238.28177 
L 152.126033 237.146141 
L 152.130018 237.146141 
L 152.130018 237.058785 
L 152.233301 236.27258 
L 152.30902 236.185224 
L 152.41662 235.049594 
L 152.428244 234.962238 
L 152.532855 233.477185 
L 152.552117 233.389828 
L 152.66005 232.254199 
L 152.668352 232.166843 
L 152.777281 230.070297 
L 152.803185 229.98294 
L 152.912446 228.497887 
L 152.927722 228.410531 
L 153.036319 226.576052 
L 153.062223 226.488696 
L 153.166502 225.090999 
L 153.186096 225.003643 
L 153.29104 223.868013 
L 153.319268 223.780657 
L 153.423548 222.645028 
L 153.455097 222.557672 
L 153.564358 221.24733 
L 153.581296 221.159974 
L 153.68956 219.500208 
L 153.70218 219.412852 
L 153.806127 218.539291 
L 153.817419 218.451935 
L 153.916052 217.228949 
L 153.969189 217.141593 
L 154.071475 216.09332 
L 154.096051 216.005964 
L 154.191031 215.219759 
L 154.251142 215.132403 
L 154.343797 214.346198 
L 154.382321 214.258842 
L 154.490918 212.424364 
L 154.495899 212.337008 
L 154.604496 211.463446 
L 154.648998 211.37609 
L 154.756266 209.628968 
L 154.783498 209.541612 
L 154.892427 208.493339 
L 154.900397 208.405983 
L 154.993385 207.532422 
L 155.026595 207.445066 
L 155.133864 206.047368 
L 155.148144 205.960012 
L 155.22818 205.086451 
L 155.27401 204.999095 
L 155.376961 203.339329 
L 155.426444 203.251973 
L 155.523085 202.2037 
L 155.551978 202.116343 
L 155.643305 201.417495 
L 155.674855 201.330139 
L 155.751238 200.019797 
L 155.795407 199.932441 
L 155.905332 198.796812 
L 155.910978 198.709455 
L 155.999317 197.835894 
L 156.035848 197.748538 
L 156.133817 196.176128 
L 156.157396 196.088772 
L 156.265661 195.040499 
L 156.293558 194.953143 
L 156.399498 194.254294 
L 156.429719 194.166938 
L 156.539976 192.943953 
L 156.569201 192.856596 
L 156.641599 191.808323 
L 156.722631 191.720967 
L 156.828903 190.410626 
L 156.843183 190.323269 
L 156.923884 189.799133 
L 156.958422 189.711777 
L 157.063698 187.877299 
L 157.082295 187.789942 
L 157.167645 187.091094 
L 157.222442 187.003738 
L 157.328714 185.60604 
L 157.341998 185.518684 
L 157.450927 184.557767 
L 157.473842 184.470411 
L 157.575796 182.985357 
L 157.605353 182.898001 
L 157.711625 181.849727 
L 157.731551 181.762371 
L 157.839816 180.364674 
L 157.880332 180.277318 
L 157.979298 179.141688 
L 158.019814 179.054332 
L 158.130736 178.180771 
L 158.145016 178.093415 
L 158.251288 176.695717 
L 158.274203 176.608361 
L 158.383464 174.948595 
L 158.404718 174.861239 
L 158.50933 174.075034 
L 158.529588 173.987678 
L 158.639181 173.201473 
L 158.649144 173.114117 
L 158.741468 172.327912 
L 158.786633 172.240556 
L 158.854714 171.629063 
L 158.922462 171.541707 
L 158.99486 170.406078 
L 159.057295 170.318722 
L 159.157589 169.619873 
L 159.187146 169.532517 
L 159.245264 169.183092 
L 159.324968 169.095736 
L 159.41696 167.960107 
L 159.448841 167.872751 
L 159.544818 166.737122 
L 159.59098 166.649765 
L 159.694927 165.601492 
L 159.733451 165.514136 
L 159.840387 164.029082 
L 159.858321 163.941726 
L 159.961936 162.980809 
L 159.979205 162.893453 
L 160.083817 162.194604 
L 160.103079 162.107248 
L 160.210679 160.70955 
L 160.227616 160.622194 
L 160.333556 159.311853 
L 160.362449 159.224497 
L 160.471046 158.26358 
L 160.477023 158.176223 
L 160.581303 156.865882 
L 160.605214 156.778526 
L 160.706505 155.904965 
L 160.740711 155.817609 
L 160.850304 155.031404 
L 160.855618 154.944048 
L 160.960561 153.895774 
L 161.015358 153.808418 
L 161.125947 153.022213 
L 161.14222 152.934857 
L 161.238197 151.711872 
L 161.25447 151.624516 
L 161.365059 150.663599 
L 161.407236 150.576242 
L 161.515833 149.790037 
L 161.529781 149.702681 
L 161.637049 148.82912 
L 161.70679 148.741764 
L 161.803099 148.130272 
L 161.823357 148.042915 
L 161.929629 146.732574 
L 161.966825 146.645218 
L 162.074425 145.771657 
L 162.102986 145.684301 
L 162.208261 144.461315 
L 162.23018 144.373959 
L 162.332135 143.150974 
L 162.346083 143.063618 
L 162.451027 141.840632 
L 162.463979 141.753276 
L 162.562944 141.141783 
L 162.614088 141.054427 
L 162.694788 140.268222 
L 162.734308 140.180866 
L 162.837923 139.394661 
L 162.848883 139.307305 
L 162.938882 138.433744 
L 162.964454 138.346388 
L 163.070061 137.298115 
L 163.109249 137.210759 
L 163.214193 136.51191 
L 163.249396 136.424554 
L 163.344708 135.638349 
L 163.407143 135.550993 
L 163.47622 135.026856 
L 163.599761 134.9395 
L 163.696734 134.328007 
L 163.749538 134.240651 
L 163.849168 133.541802 
L 163.909279 133.454446 
L 164.018207 132.580885 
L 164.047432 132.493529 
L 164.135771 131.619968 
L 164.16732 131.532612 
L 164.276913 131.008475 
L 164.338352 130.921119 
L 164.442299 129.698134 
L 164.47252 129.610778 
L 164.551892 128.911929 
L 164.590084 128.824573 
L 164.699013 128.21308 
L 164.774732 128.125724 
L 164.869712 127.776299 
L 164.900598 127.688943 
L 165.006537 126.815382 
L 165.020818 126.728026 
L 165.121776 126.20389 
L 165.16196 126.116533 
L 165.270557 125.242972 
L 165.286498 125.155616 
L 165.395095 124.63148 
L 165.455537 124.544124 
L 165.564134 123.583206 
L 165.591366 123.49585 
L 165.701623 122.447577 
L 165.725534 122.360221 
L 165.834131 121.311948 
L 165.877304 121.224592 
L 165.980255 120.700455 
L 166.065273 120.613099 
L 166.170216 119.826894 
L 166.228002 119.739538 
L 166.338923 118.429196 
L 166.386746 118.34184 
L 166.486708 117.380923 
L 166.564087 117.293567 
L 166.650765 116.682074 
L 166.694271 116.594718 
L 166.796557 115.808513 
L 166.851354 115.721157 
L 166.957294 114.847596 
L 166.977552 114.76024 
L 167.071204 113.711967 
L 167.11637 113.624611 
L 167.225963 112.925762 
L 167.2429 112.838406 
L 167.348176 112.052201 
L 167.365445 111.964845 
L 167.450795 111.440708 
L 167.537805 111.353352 
L 167.598247 110.916571 
L 167.698209 110.829215 
L 167.809131 110.217723 
L 167.897802 110.130367 
L 168.000753 109.693586 
L 168.065844 109.60623 
L 168.175437 109.256806 
L 168.226913 109.169449 
L 168.315584 108.907381 
L 168.350122 108.820025 
L 168.443774 108.208532 
L 168.484955 108.121176 
L 168.59488 107.509683 
L 168.614142 107.422327 
L 168.724067 106.898191 
L 168.762922 106.810835 
L 168.865209 106.374054 
L 168.946906 106.286698 
L 169.056831 105.937274 
L 169.111628 105.849917 
L 169.161111 105.500493 
L 169.234173 105.413137 
L 169.331478 104.976356 
L 169.385942 104.889 
L 169.444392 104.45222 
L 169.580221 104.364864 
L 169.667231 103.753371 
L 169.724685 103.666015 
L 169.732655 103.403947 
L 169.922948 103.31659 
L 170.006305 102.967166 
L 170.050475 102.87981 
L 170.159072 102.093605 
L 170.205898 102.006249 
L 170.260362 101.744181 
L 170.344383 101.656825 
L 170.449659 100.957976 
L 170.548625 100.87062 
L 170.651908 100.259127 
L 170.713347 100.171771 
L 170.802017 99.822346 
L 170.856814 99.73499 
L 170.953123 99.036141 
L 171.013565 98.948785 
L 171.110871 98.424649 
L 171.14707 98.337293 
L 171.243046 97.900512 
L 171.386182 97.813156 
L 171.471199 97.463732 
L 171.587102 97.376375 
L 171.622637 97.114307 
L 171.807285 97.026951 
L 171.903926 96.590171 
L 172.02946 96.502814 
L 172.047393 96.240746 
L 172.150344 96.15339 
L 172.182558 95.978678 
L 172.353589 95.891322 
L 172.455212 95.541897 
L 172.5213 95.454541 
L 172.625247 94.843048 
L 172.656465 94.755692 
L 172.73949 94.406268 
L 172.803585 94.318912 
L 172.877311 93.969487 
L 172.961997 93.882131 
L 173.047347 93.357995 
L 173.127051 93.270639 
L 173.230666 92.833858 
L 173.328968 92.746502 
L 173.397048 92.309721 
L 173.511955 92.222365 
L 173.605607 91.960297 
L 173.712543 91.872941 
L 173.803539 91.348804 
L 173.836417 91.261448 
L 173.94601 90.99938 
L 174.003463 90.912024 
L 174.108739 90.475243 
L 174.240915 90.387887 
L 174.335895 89.601682 
L 174.38571 89.514326 
L 174.492647 89.164902 
L 174.521871 89.077546 
L 174.578661 88.640765 
L 174.680283 88.553409 
L 174.75567 88.203985 
L 174.799507 88.116628 
L 174.893159 87.592492 
L 174.980834 87.505136 
L 175.074818 86.893643 
L 175.223931 86.806287 
L 175.33286 86.369506 
L 175.423523 86.28215 
L 175.528799 86.107438 
L 175.578614 86.020082 
L 175.600865 85.758014 
L 175.701159 85.670658 
L 175.807763 85.321233 
L 175.890456 85.233877 
L 175.973149 84.971809 
L 176.00802 84.884453 
L 176.102336 84.535028 
L 176.226209 84.447672 
L 176.315876 83.923536 
L 176.431115 83.836179 
L 176.517461 83.399399 
L 176.593512 83.312043 
L 176.695799 82.875262 
L 176.745946 82.787906 
L 176.843584 82.351126 
L 176.889081 82.26377 
L 176.989044 81.914345 
L 177.187639 81.826989 
L 177.264355 81.215496 
L 177.368634 81.12814 
L 177.460958 80.778716 
L 177.552285 80.69136 
L 177.552285 80.604004 
L 177.729627 80.516647 
L 177.82029 80.079867 
L 177.960104 79.992511 
L 178.06372 79.55573 
L 178.087963 79.468374 
L 178.159032 79.11895 
L 178.224124 79.031594 
L 178.322426 78.245389 
L 178.4101 78.158033 
L 178.503752 77.54654 
L 178.604379 77.459184 
L 178.69637 77.284472 
L 178.718621 77.197116 
L 178.829211 76.847691 
L 179.01419 76.760335 
L 179.01419 76.672979 
L 179.202823 76.585623 
L 179.303782 76.236198 
L 179.319722 76.148842 
L 179.396438 75.799418 
L 179.552193 75.712062 
L 179.593705 75.362637 
L 179.728538 75.275281 
L 179.78732 74.925857 
L 179.916839 74.838501 
L 180.002853 74.489076 
L 180.09252 74.40172 
L 180.175877 74.139652 
L 180.243957 74.052296 
L 180.327979 73.702871 
L 180.3851 73.615515 
L 180.466132 73.178735 
L 180.822808 73.091379 
L 180.929744 72.82931 
L 181.070555 72.741954 
L 181.16786 72.130462 
L 181.231955 72.043105 
L 181.296715 71.693681 
L 181.491325 71.606325 
L 181.550439 71.256901 
L 181.638114 71.169544 
L 181.732762 70.82012 
L 181.796526 70.732764 
L 181.876562 70.295983 
L 182.003092 70.208627 
L 182.053239 69.859203 
L 182.17512 69.771847 
L 182.279399 69.597135 
L 182.348144 69.509778 
L 182.388328 69.335066 
L 182.483641 69.24771 
L 182.483641 69.160354 
L 182.62744 69.072998 
L 182.704487 68.81093 
L 182.802125 68.723574 
L 182.802125 68.636217 
L 183.214593 68.548861 
L 183.276032 68.374149 
L 183.385957 68.286793 
L 183.480273 67.937369 
L 183.590531 67.850012 
L 183.658279 67.587944 
L 183.882115 67.500588 
L 183.962815 67.151164 
L 184.155101 67.063808 
L 184.182665 66.801739 
L 184.449674 66.714383 
L 184.540337 66.364959 
L 184.646277 66.277603 
L 184.738269 66.10289 
L 184.918931 66.015534 
L 184.918931 65.928178 
L 185.288891 65.840822 
L 185.339038 65.491398 
L 185.563538 65.404042 
L 185.580143 65.229329 
L 185.89597 65.141973 
L 185.970692 64.879905 
L 186.089252 64.792549 
L 186.141724 64.617837 
L 186.388142 64.530481 
L 186.388142 64.443124 
L 186.544229 64.355768 
L 186.544229 64.268412 
L 186.8305 64.181056 
L 186.8305 64.0937 
L 187.014483 64.006344 
L 187.101161 63.65692 
L 187.347248 63.569563 
L 187.442893 63.307495 
L 187.467136 63.220139 
L 187.467136 63.132783 
L 187.636175 63.045427 
L 187.744107 62.870715 
L 187.873294 62.783358 
L 187.873294 62.696002 
L 188.086503 62.608646 
L 188.185801 62.433934 
L 188.25521 62.346578 
L 188.333585 62.171866 
L 188.453805 62.08451 
L 188.453805 61.997154 
L 188.716165 61.909797 
L 188.716165 61.822441 
L 188.874244 61.735085 
L 188.874244 61.647729 
L 189.029667 61.560373 
L 189.078818 61.210949 
L 189.381693 61.123593 
L 189.464054 60.861524 
L 189.719107 60.774168 
L 189.781542 60.599456 
L 189.851947 60.5121 
L 189.873534 60.337388 
L 190.223235 60.250032 
L 190.27936 60.075319 
L 190.355411 59.987963 
L 190.355411 59.900607 
L 190.561645 59.813251 
L 190.653305 59.551183 
L 191.184001 59.463827 
L 191.238797 59.201758 
L 191.721339 59.114402 
L 191.750564 58.852334 
L 191.91595 58.764978 
L 191.978717 58.502909 
L 192.201888 58.415553 
L 192.287238 58.066129 
L 192.34934 57.978773 
L 192.34934 57.891417 
L 192.543951 57.804061 
L 192.653212 57.454636 
L 192.68609 57.36728 
L 192.68609 57.279924 
L 192.997268 57.192568 
L 193.092248 57.017856 
L 193.320069 56.9305 
L 193.320069 56.843143 
L 193.529292 56.755787 
L 193.638221 56.581075 
L 193.725896 56.493719 
L 193.804935 56.231651 
L 194.198142 56.144295 
L 194.28947 55.969582 
L 194.485409 55.882226 
L 194.532899 55.620158 
L 194.865331 55.532802 
L 194.88891 55.35809 
L 195.136657 55.270734 
L 195.159572 55.096021 
L 195.521561 55.008665 
L 195.521561 54.921309 
L 196.074508 54.833953 
L 196.102736 54.571885 
L 196.258159 54.484529 
L 196.258159 54.397173 
L 196.549079 54.309816 
L 196.549079 54.22246 
L 196.861585 54.135104 
L 196.923688 53.873036 
L 197.077118 53.78568 
L 197.077118 53.698324 
L 197.42051 53.610968 
L 197.47431 53.436255 
L 197.939915 53.348899 
L 197.971132 53.174187 
L 198.3836 53.086831 
L 198.3836 52.999475 
L 198.702084 52.912119 
L 198.702084 52.824763 
L 199.322448 52.737407 
L 199.322448 52.650051 
L 199.916575 52.562694 
L 199.979674 52.300626 
L 201.258924 52.21327 
L 201.258924 52.125914 
L 201.566116 52.038558 
L 201.566116 51.951202 
L 202.042348 51.863846 
L 202.117735 51.689133 
L 202.377437 51.601777 
L 202.377437 51.514421 
L 202.751382 51.427065 
L 202.823115 51.252353 
L 202.973557 51.164997 
L 202.973557 51.077641 
L 203.170492 50.990285 
L 203.170492 50.902928 
L 203.721114 50.815572 
L 203.7789 50.553504 
L 204.108343 50.466148 
L 204.147531 50.291436 
L 204.415204 50.20408 
L 204.415204 50.116724 
L 204.90007 50.029367 
L 204.90007 49.942011 
L 205.091692 49.854655 
L 205.091692 49.767299 
L 205.327483 49.679943 
L 205.381615 49.505231 
L 205.555968 49.417875 
L 205.555968 49.330519 
L 206.190611 49.243162 
L 206.254042 49.06845 
L 206.569537 48.981094 
L 206.569537 48.893738 
L 206.740901 48.806382 
L 206.750864 48.63167 
L 206.938833 48.544314 
L 206.997614 48.194889 
L 207.417057 48.107533 
L 207.417057 48.020177 
L 207.563845 47.932821 
L 207.667793 47.758109 
L 207.757792 47.670753 
L 207.777718 47.49604 
L 208.089892 47.408684 
L 208.092217 47.233972 
L 208.384465 47.146616 
L 208.384465 47.05926 
L 209.332611 46.971904 
L 209.332611 46.884548 
L 210.017069 46.797192 
L 210.11836 46.535123 
L 210.482674 46.447767 
L 210.583964 46.273055 
L 210.945621 46.185699 
L 210.999754 46.010987 
L 211.395949 45.923631 
L 211.395949 45.836274 
L 211.984098 45.748918 
L 211.984098 45.661562 
L 212.315534 45.574206 
L 212.315534 45.48685 
L 212.736969 45.399494 
L 212.777486 45.224782 
L 213.448992 45.137426 
L 213.448992 45.05007 
L 214.673446 44.962713 
L 214.673446 44.875357 
L 215.240673 44.788001 
L 215.240673 44.700645 
L 216.169889 44.613289 
L 216.169889 44.525933 
L 218.275072 44.438577 
L 218.373706 44.263865 
L 219.128901 44.176508 
L 219.128901 44.089152 
L 219.830961 44.001796 
L 219.830961 43.91444 
L 220.449332 43.827084 
L 220.449332 43.739728 
L 221.474525 43.652372 
L 221.474525 43.565016 
L 221.838174 43.47766 
L 221.846145 43.302947 
L 222.252303 43.215591 
L 222.252303 43.128235 
L 222.807907 43.040879 
L 222.882297 42.866167 
L 223.726164 42.778811 
L 223.726164 42.691455 
L 224.982167 42.604099 
L 224.982167 42.516743 
L 225.329876 42.429386 
L 225.329876 42.34203 
L 225.811753 42.254674 
L 225.844631 42.079962 
L 226.218244 41.992606 
L 226.249461 41.817894 
L 226.874806 41.730538 
L 226.874806 41.643181 
L 227.55395 41.555825 
L 227.55395 41.468469 
L 228.914897 41.381113 
L 228.99759 41.119045 
L 229.566145 41.031689 
L 229.566145 40.944333 
L 230.62156 40.856977 
L 230.62156 40.76962 
L 231.191776 40.682264 
L 231.191776 40.594908 
L 231.599927 40.507552 
L 231.649742 40.33284 
L 232.138593 40.245484 
L 232.138593 40.158128 
L 233.545037 40.070772 
L 233.545037 39.983416 
L 234.873438 39.896059 
L 234.969415 39.721347 
L 235.125502 39.633991 
L 235.125502 39.546635 
L 235.709334 39.459279 
L 235.709334 39.371923 
L 237.159283 39.284567 
L 237.159283 39.197211 
L 237.557472 39.109854 
L 237.557472 39.022498 
L 237.804554 38.935142 
L 237.804554 38.847786 
L 238.168868 38.76043 
L 238.255546 38.585718 
L 238.499308 38.498362 
L 238.567388 38.32365 
L 239.408266 38.236293 
L 239.408266 38.148937 
L 240.2249 38.061581 
L 240.2249 37.974225 
L 240.562978 37.886869 
L 240.646667 37.712157 
L 241.269023 37.624801 
L 241.269023 37.537445 
L 241.701085 37.450089 
L 241.804701 37.275376 
L 241.979717 37.18802 
L 242.01658 37.013308 
L 242.702035 36.925952 
L 242.734913 36.75124 
L 243.147049 36.663884 
L 243.147049 36.576527 
L 243.707635 36.489171 
L 243.707635 36.401815 
L 244.311061 36.314459 
L 244.311061 36.227103 
L 244.740798 36.139747 
L 244.740798 36.052391 
L 246.023701 35.965035 
L 246.023701 35.877679 
L 246.434177 35.790323 
L 246.434177 35.702966 
L 247.261106 35.61561 
L 247.261106 35.528254 
L 248.323827 35.440898 
L 248.323827 35.353542 
L 248.741277 35.266186 
L 248.741277 35.17883 
L 249.864107 35.091474 
L 249.864107 35.004118 
L 251.158634 34.916762 
L 251.158634 34.829405 
L 251.325348 34.742049 
L 251.325348 34.654693 
L 252.128034 34.567337 
L 252.128034 34.479981 
L 253.448797 34.392625 
L 253.448797 34.305269 
L 259.545823 34.217913 
L 259.545823 34.130557 
L 262.572584 34.0432 
L 262.572584 33.955844 
L 262.808043 33.868488 
L 262.808043 33.781132 
L 277.827605 33.693776 
L 277.827605 33.60642 
L 278.823574 33.519064 
L 278.823574 33.431708 
L 283.077777 33.344352 
L 283.077777 33.256996 
L 283.636369 33.169639 
L 283.636369 33.082283 
L 284.717355 32.994927 
L 284.717355 32.907571 
L 287.004197 32.820215 
L 287.004197 32.732859 
L 289.79882 32.645503 
L 289.855277 32.470791 
L 290.748627 32.383435 
L 290.748627 32.296078 
L 291.223862 32.208722 
L 291.223862 32.121366 
L 293.130781 32.03401 
L 293.228751 31.859298 
L 294.411691 31.771942 
L 294.411691 31.684586 
L 295.220023 31.59723 
L 295.324303 31.422517 
L 296.117026 31.335161 
L 296.117026 31.247805 
L 296.704179 31.160449 
L 296.771595 30.985737 
L 297.056869 30.898381 
L 297.056869 30.811025 
L 297.828338 30.723669 
L 297.828338 30.636312 
L 299.617361 30.548956 
L 299.626992 30.374244 
L 300.491781 30.286888 
L 300.491781 30.199532 
L 301.082255 30.112176 
L 301.082255 30.02482 
L 302.333609 29.937464 
L 302.333609 29.850108 
L 303.882192 29.762751 
L 303.882192 29.675395 
L 305.230186 29.588039 
L 305.230186 29.500683 
L 306.550285 29.413327 
L 306.550285 29.325971 
L 310.610209 29.238615 
L 310.610209 29.151259 
L 311.524481 29.063903 
L 311.524481 28.976546 
L 314.54626 28.88919 
L 314.54626 28.801834 
L 316.724837 28.714478 
L 316.724837 28.627122 
L 317.741396 28.539766 
L 317.741396 28.45241 
L 318.746663 28.365054 
L 318.746663 28.277698 
L 319.199648 28.190342 
L 319.207286 28.015629 
L 320.967417 27.928273 
L 320.967417 27.840917 
L 321.660842 27.753561 
L 321.660842 27.666205 
L 324.501627 27.578849 
L 324.501627 27.491493 
L 329.085937 27.404137 
L 329.085937 27.316781 
L 330.01615 27.229424 
L 330.01615 27.142068 
L 333.665267 27.054712 
L 333.665267 26.967356 
L 334.416145 26.967356 
L 334.416145 26.88 
" clip-path="url(#p390b60f5f6)" style="fill: none; stroke: #1f77b4; stroke-width: 1.5; stroke-linecap: square"/>
   </g>
   <g id="patch_3">
    <path d="M 33.64 391.41702 
L 33.64 26.88 
" style="fill: none; stroke: #000000; stroke-width: 0.8; stroke-linejoin: miter; stroke-linecap: square"/>
   </g>
   <g id="patch_4">
    <path d="M 697.84033 391.41702 
L 697.84033 26.88 
" style="fill: none; stroke: #000000; stroke-width: 0.8; stroke-linejoin: miter; stroke-linecap: square"/>
   </g>
   <g id="patch_5">
    <path d="M 33.64 391.41702 
L 697.84033 391.41702 
" style="fill: none; stroke: #000000; stroke-width: 0.8; stroke-linejoin: miter; stroke-linecap: square"/>
   </g>
   <g id="patch_6">
    <path d="M 33.64 26.88 
L 697.84033 26.88 
" style="fill: none; stroke: #000000; stroke-width: 0.8; stroke-linejoin: miter; stroke-linecap: square"/>
   </g>
   <g id="text_16">
    <!-- Leader proposal to nodes' decision (all nodes) -->
    <g transform="translate(227.664227 20.88) scale(0.12 -0.12)">
     <defs>
      <path id="DejaVuSans-4c" d="M 628 4666 
L 1259 4666 
L 1259 531 
L 3531 531 
L 3531 0 
L 628 0 
L 628 4666 
z
" transform="scale(0.015625)"/>
      <path id="DejaVuSans-65" d="M 3597 1894 
L 3597 1613 
L 953 1613 
Q 991 1019 1311 708 
Q 1631 397 2203 397 
Q 2534 397 2845 478 
Q 3156 559 3463 722 
L 3463 178 
Q 3153 47 2828 -22 
Q 2503 -91 2169 -91 
Q 1331 -91 842 396 
Q 353 884 353 1716 
Q 353 2575 817 3079 
Q 1281 3584 2069 3584 
Q 2775 3584 3186 3129 
Q 3597 2675 3597 1894 
z
M 3022 2063 
Q 3016 2534 2758 2815 
Q 2500 3097 2075 3097 
Q 1594 3097 1305 2825 
Q 1016 2553 972 2059 
L 3022 2063 
z
" transform="scale(0.015625)"/>
      <path id="DejaVuSans-61" d="M 2194 1759 
Q 1497 1759 1228 1600 
Q 959 1441 959 1056 
Q 959 750 1161 570 
Q 1363 391 1709 391 
Q 2188 391 2477 730 
Q 2766 1069 2766 1631 
L 2766 1759 
L 2194 1759 
z
M 3341 1997 
L 3341 0 
L 2766 0 
L 2766 531 
Q 2569 213 2275 61 
Q 1981 -91 1556 -91 
Q 1019 -91 701 211 
Q 384 513 384 1019 
Q 384 1609 779 1909 
Q 1175 2209 1959 2209 
L 2766 2209 
L 2766 2266 
Q 2766 2663 2505 2880 
Q 2244 3097 1772 3097 
Q 1472 3097 1187 3025 
Q 903 2953 641 2809 
L 641 3341 
Q 956 3463 1253 3523 
Q 1550 3584 1831 3584 
Q 2591 3584 2966 3190 
Q 3341 2797 3341 1997 
z
" transform="scale(0.015625)"/>
      <path id="DejaVuSans-64" d="M 2906 2969 
L 2906 4863 
L 3481 4863 
L 3481 0 
L 2906 0 
L 2906 525 
Q 2725 213 2448 61 
Q 2172 -91 1784 -91 
Q 1150 -91 751 415 
Q 353 922 353 1747 
Q 353 2572 751 3078 
Q 1150 3584 1784 3584 
Q 2172 3584 2448 3432 
Q 2725 3281 2906 2969 
z
M 947 1747 
Q 947 1113 1208 752 
Q 1469 391 1925 391 
Q 2381 391 2643 752 
Q 2906 1113 2906 1747 
Q 2906 2381 2643 2742 
Q 2381 3103 1925 3103 
Q 1469 3103 1208 2742 
Q 947 2381 947 1747 
z
" transform="scale(0.015625)"/>
      <path id="DejaVuSans-72" d="M 2631 2963 
Q 2534 3019 2420 3045 
Q 2306 3072 2169 3072 
Q 1681 3072 1420 2755 
Q 1159 2438 1159 1844 
L 1159 0 
L 581 0 
L 581 3500 
L 1159 3500 
L 1159 2956 
Q 1341 3275 1631 3429 
Q 1922 3584 2338 3584 
Q 2397 3584 2469 3576 
Q 2541 3569 2628 3553 
L 2631 2963 
z
" transform="scale(0.015625)"/>
      <path id="DejaVuSans-20" transform="scale(0.015625)"/>
      <path id="DejaVuSans-70" d="M 1159 525 
L 1159 -1331 
L 581 -1331 
L 581 3500 
L 1159 3500 
L 1159 2969 
Q 1341 3281 1617 3432 
Q 1894 3584 2278 3584 
Q 2916 3584 3314 3078 
Q 3713 2572 3713 1747 
Q 3713 922 3314 415 
Q 2916 -91 2278 -91 
Q 1894 -91 1617 61 
Q 1341 213 1159 525 
z
M 3116 1747 
Q 3116 2381 2855 2742 
Q 2594 3103 2138 3103 
Q 1681 3103 1420 2742 
Q 1159 2381 1159 1747 
Q 1159 1113 1420 752 
Q 1681 391 2138 391 
Q 2594 391 2855 752 
Q 3116 1113 3116 1747 
z
" transform="scale(0.015625)"/>
      <path id="DejaVuSans-6f" d="M 1959 3097 
Q 1497 3097 1228 2736 
Q 959 2375 959 1747 
Q 959 1119 1226 758 
Q 1494 397 1959 397 
Q 2419 397 2687 759 
Q 2956 1122 2956 1747 
Q 2956 2369 2687 2733 
Q 2419 3097 1959 3097 
z
M 1959 3584 
Q 2709 3584 3137 3096 
Q 3566 2609 3566 1747 
Q 3566 888 3137 398 
Q 2709 -91 1959 -91 
Q 1206 -91 779 398 
Q 353 888 353 1747 
Q 353 2609 779 3096 
Q 1206 3584 1959 3584 
z
" transform="scale(0.015625)"/>
      <path id="DejaVuSans-73" d="M 2834 3397 
L 2834 2853 
Q 2591 2978 2328 3040 
Q 2066 3103 1784 3103 
Q 1356 3103 1142 2972 
Q 928 2841 928 2578 
Q 928 2378 1081 2264 
Q 1234 2150 1697 2047 
L 1894 2003 
Q 2506 1872 2764 1633 
Q 3022 1394 3022 966 
Q 3022 478 2636 193 
Q 2250 -91 1575 -91 
Q 1294 -91 989 -36 
Q 684 19 347 128 
L 347 722 
Q 666 556 975 473 
Q 1284 391 1588 391 
Q 1994 391 2212 530 
Q 2431 669 2431 922 
Q 2431 1156 2273 1281 
Q 2116 1406 1581 1522 
L 1381 1569 
Q 847 1681 609 1914 
Q 372 2147 372 2553 
Q 372 3047 722 3315 
Q 1072 3584 1716 3584 
Q 2034 3584 2315 3537 
Q 2597 3491 2834 3397 
z
" transform="scale(0.015625)"/>
      <path id="DejaVuSans-6c" d="M 603 4863 
L 1178 4863 
L 1178 0 
L 603 0 
L 603 4863 
z
" transform="scale(0.015625)"/>
      <path id="DejaVuSans-74" d="M 1172 4494 
L 1172 3500 
L 2356 3500 
L 2356 3053 
L 1172 3053 
L 1172 1153 
Q 1172 725 1289 603 
Q 1406 481 1766 481 
L 2356 481 
L 2356 0 
L 1766 0 
Q 1100 0 847 248 
Q 594 497 594 1153 
L 594 3053 
L 172 3053 
L 172 3500 
L 594 3500 
L 594 4494 
L 1172 4494 
z
" transform="scale(0.015625)"/>
      <path id="DejaVuSans-6e" d="M 3513 2113 
L 3513 0 
L 2938 0 
L 2938 2094 
Q 2938 2591 2744 2837 
Q 2550 3084 2163 3084 
Q 1697 3084 1428 2787 
Q 1159 2491 1159 1978 
L 1159 0 
L 581 0 
L 581 3500 
L 1159 3500 
L 1159 2956 
Q 1366 3272 1645 3428 
Q 1925 3584 2291 3584 
Q 2894 3584 3203 3211 
Q 3513 2838 3513 2113 
z
" transform="scale(0.015625)"/>
      <path id="DejaVuSans-27" d="M 1147 4666 
L 1147 2931 
L 616 2931 
L 616 4666 
L 1147 4666 
z
" transform="scale(0.015625)"/>
      <path id="DejaVuSans-63" d="M 3122 3366 
L 3122 2828 
Q 2878 2963 2633 3030 
Q 2388 3097 2138 3097 
Q 1578 3097 1268 2742 
Q 959 2388 959 1747 
Q 959 1106 1268 751 
Q 1578 397 2138 397 
Q 2388 397 2633 464 
Q 2878 531 3122 666 
L 3122 134 
Q 2881 22 2623 -34 
Q 2366 -91 2075 -91 
Q 1284 -91 818 406 
Q 353 903 353 1747 
Q 353 2603 823 3093 
Q 1294 3584 2113 3584 
Q 2378 3584 2631 3529 
Q 2884 3475 3122 3366 
z
" transform="scale(0.015625)"/>
      <path id="DejaVuSans-69" d="M 603 3500 
L 1178 3500 
L 1178 0 
L 603 0 
L 603 3500 
z
M 603 4863 
L 1178 4863 
L 1178 4134 
L 603 4134 
L 603 4863 
z
" transform="scale(0.015625)"/>
      <path id="DejaVuSans-28" d="M 1984 4856 
Q 1566 4138 1362 3434 
Q 1159 2731 1159 2009 
Q 1159 1288 1364 580 
Q 1569 -128 1984 -844 
L 1484 -844 
Q 1016 -109 783 600 
Q 550 1309 550 2009 
Q 550 2706 781 3412 
Q 1013 4119 1484 4856 
L 1984 4856 
z
" transform="scale(0.015625)"/>
      <path id="DejaVuSans-29" d="M 513 4856 
L 1013 4856 
Q 1481 4119 1714 3412 
Q 1947 2706 1947 2009 
Q 1947 1309 1714 600 
Q 1481 -109 1013 -844 
L 513 -844 
Q 928 -128 1133 580 
Q 1338 1288 1338 2009 
Q 1338 2731 1133 3434 
Q 928 4138 513 4856 
z
" transform="scale(0.015625)"/>
     </defs>
     <use xlink:href="#DejaVuSans-4c"/>
     <use xlink:href="#DejaVuSans-65" transform="translate(53.962891 0)"/>
     <use xlink:href="#DejaVuSans-61" transform="translate(115.486328 0)"/>
     <use xlink:href="#DejaVuSans-64" transform="translate(176.765625 0)"/>
     <use xlink:href="#DejaVuSans-65" transform="translate(240.242188 0)"/>
     <use xlink:href="#DejaVuSans-72" transform="translate(301.765625 0)"/>
     <use xlink:href="#DejaVuSans-20" transform="translate(342.878906 0)"/>
     <use xlink:href="#DejaVuSans-70" transform="translate(374.666016 0)"/>
     <use xlink:href="#DejaVuSans-72" transform="translate(438.142578 0)"/>
     <use xlink:href="#DejaVuSans-6f" transform="translate(477.005859 0)"/>
     <use xlink:href="#DejaVuSans-70" transform="translate(538.1875 0)"/>
     <use xlink:href="#DejaVuSans-6f" transform="translate(601.664062 0)"/>
     <use xlink:href="#DejaVuSans-73" transform="translate(662.845703 0)"/>
     <use xlink:href="#DejaVuSans-61" transform="translate(714.945312 0)"/>
     <use xlink:href="#DejaVuSans-6c" transform="translate(776.224609 0)"/>
     <use xlink:href="#DejaVuSans-20" transform="translate(804.007812 0)"/>
     <use xlink:href="#DejaVuSans-74" transform="translate(835.794922 0)"/>
     <use xlink:href="#DejaVuSans-6f" transform="translate(875.003906 0)"/>
     <use xlink:href="#DejaVuSans-20" transform="translate(936.185547 0)"/>
     <use xlink:href="#DejaVuSans-6e" transform="translate(967.972656 0)"/>
     <use xlink:href="#DejaVuSans-6f" transform="translate(1031.351562 0)"/>
     <use xlink:href="#DejaVuSans-64" transform="translate(1092.533203 0)"/>
     <use xlink:href="#DejaVuSans-65" transform="translate(1156.009766 0)"/>
     <use xlink:href="#DejaVuSans-73" transform="translate(1217.533203 0)"/>
     <use xlink:href="#DejaVuSans-27" transform="translate(1269.632812 0)"/>
     <use xlink:href="#DejaVuSans-20" transform="translate(1297.123047 0)"/>
     <use xlink:href="#DejaVuSans-64" transform="translate(1328.910156 0)"/>
     <use xlink:href="#DejaVuSans-65" transform="translate(1392.386719 0)"/>
     <use xlink:href="#DejaVuSans-63" transform="translate(1453.910156 0)"/>
     <use xlink:href="#DejaVuSans-69" transform="translate(1508.890625 0)"/>
     <use xlink:href="#DejaVuSans-73" transform="translate(1536.673828 0)"/>
     <use xlink:href="#DejaVuSans-69" transform="translate(1588.773438 0)"/>
     <use xlink:href="#DejaVuSans-6f" transform="translate(1616.556641 0)"/>
     <use xlink:href="#DejaVuSans-6e" transform="translate(1677.738281 0)"/>
     <use xlink:href="#DejaVuSans-20" transform="translate(1741.117188 0)"/>
     <use xlink:href="#DejaVuSans-28" transform="translate(1772.904297 0)"/>
     <use xlink:href="#DejaVuSans-61" transform="translate(1811.917969 0)"/>
     <use xlink:href="#DejaVuSans-6c" transform="translate(1873.197266 0)"/>
     <use xlink:href="#DejaVuSans-6c" transform="translate(1900.980469 0)"/>
     <use xlink:href="#DejaVuSans-20" transform="translate(1928.763672 0)"/>
     <use xlink:href="#DejaVuSans-6e" transform="translate(1960.550781 0)"/>
     <use xlink:href="#DejaVuSans-6f" transform="translate(2023.929688 0)"/>
     <use xlink:href="#DejaVuSans-64" transform="translate(2085.111328 0)"/>
     <use xlink:href="#DejaVuSans-65" transform="translate(2148.587891 0)"/>
     <use xlink:href="#DejaVuSans-73" transform="translate(2210.111328 0)"/>
     <use xlink:href="#DejaVuSans-29" transform="translate(2262.210938 0)"/>
    </g>
   </g>
  </g>
 </g>
 <defs>
  <clipPath id="p390b60f5f6">
   <rect x="33.64" y="26.88" width="664.20033" height="364.53702"/>
  </clipPath>
 </defs>
</svg>
