<?xml version="1.0" encoding="utf-8" standalone="no"?>
<!DOCTYPE svg PUBLIC "-//W3C//DTD SVG 1.1//EN"
  "http://www.w3.org/Graphics/SVG/1.1/DTD/svg11.dtd">
<svg xmlns:xlink="http://www.w3.org/1999/xlink" width="720pt" height="432pt" viewBox="0 0 720 432" xmlns="http://www.w3.org/2000/svg" version="1.1">
 <metadata>
  <rdf:RDF xmlns:dc="http://purl.org/dc/elements/1.1/" xmlns:cc="http://creativecommons.org/ns#" xmlns:rdf="http://www.w3.org/1999/02/22-rdf-syntax-ns#">
   <cc:Work>
    <dc:type rdf:resource="http://purl.org/dc/dcmitype/StillImage"/>
    <dc:date>2026-05-28T01:35:13.914984</dc:date>
    <dc:format>image/svg+xml</dc:format>
    <dc:creator>
     <cc:Agent>
      <dc:title>Matplotlib v3.10.1, https://matplotlib.org/</dc:title>
     </cc:Agent>
    </dc:creator>
   </cc:Work>
  </rdf:RDF>
 </metadata>
 <defs>
  <style type="text/css">*{stroke-linejoin: round; stroke-linecap: butt}</style>
 </defs>
 <g id="figure_1">
  <g id="patch_1">
   <path d="M 0 432 
L 720 432 
L 720 0 
L 0 0 
z
" style="fill: #ffffff"/>
  </g>
  <g id="axes_1">
   <g id="patch_2">
    <path d="M 33.64 391.41702 
L 697.84033 391.41702 
L 697.84033 26.88 
L 33.64 26.88 
z
" style="fill: #ffffff"/>
   </g>
   <g id="matplotlib.axis_1">
    <g id="xtick_1">
     <g id="line2d_1">
      <path d="M 33.64 391.41702 
L 33.64 26.88 
" clip-path="url(#p520fcf383e)" style="fill: none; stroke: #b0b0b0; stroke-width: 0.8; stroke-linecap: square"/>
     </g>
     <g id="line2d_2">
      <defs>
       <path id="m0d655f6686" d="M 0 0 
L 0 3.5 
" style="stroke: #000000; stroke-width: 0.8"/>
      </defs>
      <g>
       <use xlink:href="#m0d655f6686" x="33.64" y="391.41702" style="stroke: #000000; stroke-width: 0.8"/>
      </g>
     </g>
     <g id="text_1">
      <!-- 0.00 -->
      <g transform="translate(27.719086 419.534101) rotate(-45) scale(0.1 -0.1)">
       <defs>
        <path id="DejaVuSans-30" d="M 2034 4250 
Q 1547 4250 1301 3770 
Q 1056 3291 1056 2328 
Q 1056 1369 1301 889 
Q 1547 409 2034 409 
Q 2525 409 2770 889 
Q 3016 1369 3016 2328 
Q 3016 3291 2770 3770 
Q 2525 4250 2034 4250 
z
M 2034 4750 
Q 2819 4750 3233 4129 
Q 3647 3509 3647 2328 
Q 3647 1150 3233 529 
Q 2819 -91 2034 -91 
Q 1250 -91 836 529 
Q 422 1150 422 2328 
Q 422 3509 836 4129 
Q 1250 4750 2034 4750 
z
" transform="scale(0.015625)"/>
        <path id="DejaVuSans-2e" d="M 684 794 
L 1344 794 
L 1344 0 
L 684 0 
L 684 794 
z
" transform="scale(0.015625)"/>
       </defs>
       <use xlink:href="#DejaVuSans-30"/>
       <use xlink:href="#DejaVuSans-2e" transform="translate(63.623047 0)"/>
       <use xlink:href="#DejaVuSans-30" transform="translate(95.410156 0)"/>
       <use xlink:href="#DejaVuSans-30" transform="translate(159.033203 0)"/>
      </g>
     </g>
    </g>
    <g id="xtick_2">
     <g id="line2d_3">
      <path d="M 116.665041 391.41702 
L 116.665041 26.88 
" clip-path="url(#p520fcf383e)" style="fill: none; stroke: #b0b0b0; stroke-width: 0.8; stroke-linecap: square"/>
     </g>
     <g id="line2d_4">
      <g>
       <use xlink:href="#m0d655f6686" x="116.665041" y="391.41702" style="stroke: #000000; stroke-width: 0.8"/>
      </g>
     </g>
     <g id="text_2">
      <!-- 0.25 -->
      <g transform="translate(110.744127 419.534101) rotate(-45) scale(0.1 -0.1)">
       <defs>
        <path id="DejaVuSans-32" d="M 1228 531 
L 3431 531 
L 3431 0 
L 469 0 
L 469 531 
Q 828 903 1448 1529 
Q 2069 2156 2228 2338 
Q 2531 2678 2651 2914 
Q 2772 3150 2772 3378 
Q 2772 3750 2511 3984 
Q 2250 4219 1831 4219 
Q 1534 4219 1204 4116 
Q 875 4013 500 3803 
L 500 4441 
Q 881 4594 1212 4672 
Q 1544 4750 1819 4750 
Q 2544 4750 2975 4387 
Q 3406 4025 3406 3419 
Q 3406 3131 3298 2873 
Q 3191 2616 2906 2266 
Q 2828 2175 2409 1742 
Q 1991 1309 1228 531 
z
" transform="scale(0.015625)"/>
        <path id="DejaVuSans-35" d="M 691 4666 
L 3169 4666 
L 3169 4134 
L 1269 4134 
L 1269 2991 
Q 1406 3038 1543 3061 
Q 1681 3084 1819 3084 
Q 2600 3084 3056 2656 
Q 3513 2228 3513 1497 
Q 3513 744 3044 326 
Q 2575 -91 1722 -91 
Q 1428 -91 1123 -41 
Q 819 9 494 109 
L 494 744 
Q 775 591 1075 516 
Q 1375 441 1709 441 
Q 2250 441 2565 725 
Q 2881 1009 2881 1497 
Q 2881 1984 2565 2268 
Q 2250 2553 1709 2553 
Q 1456 2553 1204 2497 
Q 953 2441 691 2322 
L 691 4666 
z
" transform="scale(0.015625)"/>
       </defs>
       <use xlink:href="#DejaVuSans-30"/>
       <use xlink:href="#DejaVuSans-2e" transform="translate(63.623047 0)"/>
       <use xlink:href="#DejaVuSans-32" transform="translate(95.410156 0)"/>
       <use xlink:href="#DejaVuSans-35" transform="translate(159.033203 0)"/>
      </g>
     </g>
    </g>
    <g id="xtick_3">
     <g id="line2d_5">
      <path d="M 199.690082 391.41702 
L 199.690082 26.88 
" clip-path="url(#p520fcf383e)" style="fill: none; stroke: #b0b0b0; stroke-width: 0.8; stroke-linecap: square"/>
     </g>
     <g id="line2d_6">
      <g>
       <use xlink:href="#m0d655f6686" x="199.690082" y="391.41702" style="stroke: #000000; stroke-width: 0.8"/>
      </g>
     </g>
     <g id="text_3">
      <!-- 0.50 -->
      <g transform="translate(193.769168 419.534101) rotate(-45) scale(0.1 -0.1)">
       <use xlink:href="#DejaVuSans-30"/>
       <use xlink:href="#DejaVuSans-2e" transform="translate(63.623047 0)"/>
       <use xlink:href="#DejaVuSans-35" transform="translate(95.410156 0)"/>
       <use xlink:href="#DejaVuSans-30" transform="translate(159.033203 0)"/>
      </g>
     </g>
    </g>
    <g id="xtick_4">
     <g id="line2d_7">
      <path d="M 282.715124 391.41702 
L 282.715124 26.88 
" clip-path="url(#p520fcf383e)" style="fill: none; stroke: #b0b0b0; stroke-width: 0.8; stroke-linecap: square"/>
     </g>
     <g id="line2d_8">
      <g>
       <use xlink:href="#m0d655f6686" x="282.715124" y="391.41702" style="stroke: #000000; stroke-width: 0.8"/>
      </g>
     </g>
     <g id="text_4">
      <!-- 0.75 -->
      <g transform="translate(276.794209 419.534101) rotate(-45) scale(0.1 -0.1)">
       <defs>
        <path id="DejaVuSans-37" d="M 525 4666 
L 3525 4666 
L 3525 4397 
L 1831 0 
L 1172 0 
L 2766 4134 
L 525 4134 
L 525 4666 
z
" transform="scale(0.015625)"/>
       </defs>
       <use xlink:href="#DejaVuSans-30"/>
       <use xlink:href="#DejaVuSans-2e" transform="translate(63.623047 0)"/>
       <use xlink:href="#DejaVuSans-37" transform="translate(95.410156 0)"/>
       <use xlink:href="#DejaVuSans-35" transform="translate(159.033203 0)"/>
      </g>
     </g>
    </g>
    <g id="xtick_5">
     <g id="line2d_9">
      <path d="M 365.740165 391.41702 
L 365.740165 26.88 
" clip-path="url(#p520fcf383e)" style="fill: none; stroke: #b0b0b0; stroke-width: 0.8; stroke-linecap: square"/>
     </g>
     <g id="line2d_10">
      <g>
       <use xlink:href="#m0d655f6686" x="365.740165" y="391.41702" style="stroke: #000000; stroke-width: 0.8"/>
      </g>
     </g>
     <g id="text_5">
      <!-- 1.00 -->
      <g transform="translate(359.81925 419.534101) rotate(-45) scale(0.1 -0.1)">
       <defs>
        <path id="DejaVuSans-31" d="M 794 531 
L 1825 531 
L 1825 4091 
L 703 3866 
L 703 4441 
L 1819 4666 
L 2450 4666 
L 2450 531 
L 3481 531 
L 3481 0 
L 794 0 
L 794 531 
z
" transform="scale(0.015625)"/>
       </defs>
       <use xlink:href="#DejaVuSans-31"/>
       <use xlink:href="#DejaVuSans-2e" transform="translate(63.623047 0)"/>
       <use xlink:href="#DejaVuSans-30" transform="translate(95.410156 0)"/>
       <use xlink:href="#DejaVuSans-30" transform="translate(159.033203 0)"/>
      </g>
     </g>
    </g>
    <g id="xtick_6">
     <g id="line2d_11">
      <path d="M 448.765206 391.41702 
L 448.765206 26.88 
" clip-path="url(#p520fcf383e)" style="fill: none; stroke: #b0b0b0; stroke-width: 0.8; stroke-linecap: square"/>
     </g>
     <g id="line2d_12">
      <g>
       <use xlink:href="#m0d655f6686" x="448.765206" y="391.41702" style="stroke: #000000; stroke-width: 0.8"/>
      </g>
     </g>
     <g id="text_6">
      <!-- 1.25 -->
      <g transform="translate(442.844292 419.534101) rotate(-45) scale(0.1 -0.1)">
       <use xlink:href="#DejaVuSans-31"/>
       <use xlink:href="#DejaVuSans-2e" transform="translate(63.623047 0)"/>
       <use xlink:href="#DejaVuSans-32" transform="translate(95.410156 0)"/>
       <use xlink:href="#DejaVuSans-35" transform="translate(159.033203 0)"/>
      </g>
     </g>
    </g>
    <g id="xtick_7">
     <g id="line2d_13">
      <path d="M 531.790247 391.41702 
L 531.790247 26.88 
" clip-path="url(#p520fcf383e)" style="fill: none; stroke: #b0b0b0; stroke-width: 0.8; stroke-linecap: square"/>
     </g>
     <g id="line2d_14">
      <g>
       <use xlink:href="#m0d655f6686" x="531.790247" y="391.41702" style="stroke: #000000; stroke-width: 0.8"/>
      </g>
     </g>
     <g id="text_7">
      <!-- 1.50 -->
      <g transform="translate(525.869333 419.534101) rotate(-45) scale(0.1 -0.1)">
       <use xlink:href="#DejaVuSans-31"/>
       <use xlink:href="#DejaVuSans-2e" transform="translate(63.623047 0)"/>
       <use xlink:href="#DejaVuSans-35" transform="translate(95.410156 0)"/>
       <use xlink:href="#DejaVuSans-30" transform="translate(159.033203 0)"/>
      </g>
     </g>
    </g>
    <g id="xtick_8">
     <g id="line2d_15">
      <path d="M 614.815288 391.41702 
L 614.815288 26.88 
" clip-path="url(#p520fcf383e)" style="fill: none; stroke: #b0b0b0; stroke-width: 0.8; stroke-linecap: square"/>
     </g>
     <g id="line2d_16">
      <g>
       <use xlink:href="#m0d655f6686" x="614.815288" y="391.41702" style="stroke: #000000; stroke-width: 0.8"/>
      </g>
     </g>
     <g id="text_8">
      <!-- 1.75 -->
      <g transform="translate(608.894374 419.534101) rotate(-45) scale(0.1 -0.1)">
       <use xlink:href="#DejaVuSans-31"/>
       <use xlink:href="#DejaVuSans-2e" transform="translate(63.623047 0)"/>
       <use xlink:href="#DejaVuSans-37" transform="translate(95.410156 0)"/>
       <use xlink:href="#DejaVuSans-35" transform="translate(159.033203 0)"/>
      </g>
     </g>
    </g>
    <g id="xtick_9">
     <g id="line2d_17">
      <path d="M 697.84033 391.41702 
L 697.84033 26.88 
" clip-path="url(#p520fcf383e)" style="fill: none; stroke: #b0b0b0; stroke-width: 0.8; stroke-linecap: square"/>
     </g>
     <g id="line2d_18">
      <g>
       <use xlink:href="#m0d655f6686" x="697.84033" y="391.41702" style="stroke: #000000; stroke-width: 0.8"/>
      </g>
     </g>
     <g id="text_9">
      <!-- 2.00 -->
      <g transform="translate(691.919415 419.534101) rotate(-45) scale(0.1 -0.1)">
       <use xlink:href="#DejaVuSans-32"/>
       <use xlink:href="#DejaVuSans-2e" transform="translate(63.623047 0)"/>
       <use xlink:href="#DejaVuSans-30" transform="translate(95.410156 0)"/>
       <use xlink:href="#DejaVuSans-30" transform="translate(159.033203 0)"/>
      </g>
     </g>
    </g>
   </g>
   <g id="matplotlib.axis_2">
    <g id="ytick_1">
     <g id="line2d_19">
      <path d="M 33.64 391.41702 
L 697.84033 391.41702 
" clip-path="url(#p520fcf383e)" style="fill: none; stroke: #b0b0b0; stroke-width: 0.8; stroke-linecap: square"/>
     </g>
     <g id="line2d_20">
      <defs>
       <path id="m7093aec9b5" d="M 0 0 
L -3.5 0 
" style="stroke: #000000; stroke-width: 0.8"/>
      </defs>
      <g>
       <use xlink:href="#m7093aec9b5" x="33.64" y="391.41702" style="stroke: #000000; stroke-width: 0.8"/>
      </g>
     </g>
     <g id="text_10">
      <!-- 0.0 -->
      <g transform="translate(10.736875 395.216238) scale(0.1 -0.1)">
       <use xlink:href="#DejaVuSans-30"/>
       <use xlink:href="#DejaVuSans-2e" transform="translate(63.623047 0)"/>
       <use xlink:href="#DejaVuSans-30" transform="translate(95.410156 0)"/>
      </g>
     </g>
    </g>
    <g id="ytick_2">
     <g id="line2d_21">
      <path d="M 33.64 318.509616 
L 697.84033 318.509616 
" clip-path="url(#p520fcf383e)" style="fill: none; stroke: #b0b0b0; stroke-width: 0.8; stroke-linecap: square"/>
     </g>
     <g id="line2d_22">
      <g>
       <use xlink:href="#m7093aec9b5" x="33.64" y="318.509616" style="stroke: #000000; stroke-width: 0.8"/>
      </g>
     </g>
     <g id="text_11">
      <!-- 0.2 -->
      <g transform="translate(10.736875 322.308834) scale(0.1 -0.1)">
       <use xlink:href="#DejaVuSans-30"/>
       <use xlink:href="#DejaVuSans-2e" transform="translate(63.623047 0)"/>
       <use xlink:href="#DejaVuSans-32" transform="translate(95.410156 0)"/>
      </g>
     </g>
    </g>
    <g id="ytick_3">
     <g id="line2d_23">
      <path d="M 33.64 245.602212 
L 697.84033 245.602212 
" clip-path="url(#p520fcf383e)" style="fill: none; stroke: #b0b0b0; stroke-width: 0.8; stroke-linecap: square"/>
     </g>
     <g id="line2d_24">
      <g>
       <use xlink:href="#m7093aec9b5" x="33.64" y="245.602212" style="stroke: #000000; stroke-width: 0.8"/>
      </g>
     </g>
     <g id="text_12">
      <!-- 0.4 -->
      <g transform="translate(10.736875 249.40143) scale(0.1 -0.1)">
       <defs>
        <path id="DejaVuSans-34" d="M 2419 4116 
L 825 1625 
L 2419 1625 
L 2419 4116 
z
M 2253 4666 
L 3047 4666 
L 3047 1625 
L 3713 1625 
L 3713 1100 
L 3047 1100 
L 3047 0 
L 2419 0 
L 2419 1100 
L 313 1100 
L 313 1709 
L 2253 4666 
z
" transform="scale(0.015625)"/>
       </defs>
       <use xlink:href="#DejaVuSans-30"/>
       <use xlink:href="#DejaVuSans-2e" transform="translate(63.623047 0)"/>
       <use xlink:href="#DejaVuSans-34" transform="translate(95.410156 0)"/>
      </g>
     </g>
    </g>
    <g id="ytick_4">
     <g id="line2d_25">
      <path d="M 33.64 172.694808 
L 697.84033 172.694808 
" clip-path="url(#p520fcf383e)" style="fill: none; stroke: #b0b0b0; stroke-width: 0.8; stroke-linecap: square"/>
     </g>
     <g id="line2d_26">
      <g>
       <use xlink:href="#m7093aec9b5" x="33.64" y="172.694808" style="stroke: #000000; stroke-width: 0.8"/>
      </g>
     </g>
     <g id="text_13">
      <!-- 0.6 -->
      <g transform="translate(10.736875 176.494027) scale(0.1 -0.1)">
       <defs>
        <path id="DejaVuSans-36" d="M 2113 2584 
Q 1688 2584 1439 2293 
Q 1191 2003 1191 1497 
Q 1191 994 1439 701 
Q 1688 409 2113 409 
Q 2538 409 2786 701 
Q 3034 994 3034 1497 
Q 3034 2003 2786 2293 
Q 2538 2584 2113 2584 
z
M 3366 4563 
L 3366 3988 
Q 3128 4100 2886 4159 
Q 2644 4219 2406 4219 
Q 1781 4219 1451 3797 
Q 1122 3375 1075 2522 
Q 1259 2794 1537 2939 
Q 1816 3084 2150 3084 
Q 2853 3084 3261 2657 
Q 3669 2231 3669 1497 
Q 3669 778 3244 343 
Q 2819 -91 2113 -91 
Q 1303 -91 875 529 
Q 447 1150 447 2328 
Q 447 3434 972 4092 
Q 1497 4750 2381 4750 
Q 2619 4750 2861 4703 
Q 3103 4656 3366 4563 
z
" transform="scale(0.015625)"/>
       </defs>
       <use xlink:href="#DejaVuSans-30"/>
       <use xlink:href="#DejaVuSans-2e" transform="translate(63.623047 0)"/>
       <use xlink:href="#DejaVuSans-36" transform="translate(95.410156 0)"/>
      </g>
     </g>
    </g>
    <g id="ytick_5">
     <g id="line2d_27">
      <path d="M 33.64 99.787404 
L 697.84033 99.787404 
" clip-path="url(#p520fcf383e)" style="fill: none; stroke: #b0b0b0; stroke-width: 0.8; stroke-linecap: square"/>
     </g>
     <g id="line2d_28">
      <g>
       <use xlink:href="#m7093aec9b5" x="33.64" y="99.787404" style="stroke: #000000; stroke-width: 0.8"/>
      </g>
     </g>
     <g id="text_14">
      <!-- 0.8 -->
      <g transform="translate(10.736875 103.586623) scale(0.1 -0.1)">
       <defs>
        <path id="DejaVuSans-38" d="M 2034 2216 
Q 1584 2216 1326 1975 
Q 1069 1734 1069 1313 
Q 1069 891 1326 650 
Q 1584 409 2034 409 
Q 2484 409 2743 651 
Q 3003 894 3003 1313 
Q 3003 1734 2745 1975 
Q 2488 2216 2034 2216 
z
M 1403 2484 
Q 997 2584 770 2862 
Q 544 3141 544 3541 
Q 544 4100 942 4425 
Q 1341 4750 2034 4750 
Q 2731 4750 3128 4425 
Q 3525 4100 3525 3541 
Q 3525 3141 3298 2862 
Q 3072 2584 2669 2484 
Q 3125 2378 3379 2068 
Q 3634 1759 3634 1313 
Q 3634 634 3220 271 
Q 2806 -91 2034 -91 
Q 1263 -91 848 271 
Q 434 634 434 1313 
Q 434 1759 690 2068 
Q 947 2378 1403 2484 
z
M 1172 3481 
Q 1172 3119 1398 2916 
Q 1625 2713 2034 2713 
Q 2441 2713 2670 2916 
Q 2900 3119 2900 3481 
Q 2900 3844 2670 4047 
Q 2441 4250 2034 4250 
Q 1625 4250 1398 4047 
Q 1172 3844 1172 3481 
z
" transform="scale(0.015625)"/>
       </defs>
       <use xlink:href="#DejaVuSans-30"/>
       <use xlink:href="#DejaVuSans-2e" transform="translate(63.623047 0)"/>
       <use xlink:href="#DejaVuSans-38" transform="translate(95.410156 0)"/>
      </g>
     </g>
    </g>
    <g id="ytick_6">
     <g id="line2d_29">
      <path d="M 33.64 26.88 
L 697.84033 26.88 
" clip-path="url(#p520fcf383e)" style="fill: none; stroke: #b0b0b0; stroke-width: 0.8; stroke-linecap: square"/>
     </g>
     <g id="line2d_30">
      <g>
       <use xlink:href="#m7093aec9b5" x="33.64" y="26.88" style="stroke: #000000; stroke-width: 0.8"/>
      </g>
     </g>
     <g id="text_15">
      <!-- 1.0 -->
      <g transform="translate(10.736875 30.679219) scale(0.1 -0.1)">
       <use xlink:href="#DejaVuSans-31"/>
       <use xlink:href="#DejaVuSans-2e" transform="translate(63.623047 0)"/>
       <use xlink:href="#DejaVuSans-30" transform="translate(95.410156 0)"/>
      </g>
     </g>
    </g>
   </g>
   <g id="line2d_31">
    <path d="M 114.140748 391.41702 
L 114.201522 389.207704 
L 114.969006 389.207704 
L 114.969006 388.103047 
L 115.879292 388.103047 
L 115.879292 386.998389 
L 118.713767 386.998389 
L 118.713767 385.893731 
L 120.315818 385.893731 
L 120.315818 384.789074 
L 120.818286 384.789074 
L 120.818286 383.684416 
L 121.333373 383.684416 
L 121.333373 382.579758 
L 121.708314 382.579758 
L 121.708314 381.475101 
L 122.631221 381.475101 
L 122.631221 380.370443 
L 125.792814 380.370443 
L 125.836651 378.161128 
L 126.983393 378.161128 
L 126.983393 377.05647 
L 127.487189 377.05647 
L 127.487189 375.951813 
L 127.717335 375.951813 
L 127.788404 373.742497 
L 128.104231 373.742497 
L 128.104231 372.63784 
L 129.853403 372.63784 
L 129.853403 371.533182 
L 130.716863 371.533182 
L 130.805202 368.219209 
L 131.317965 368.219209 
L 131.317965 367.114552 
L 132.219285 367.114552 
L 132.219285 366.009894 
L 132.950901 366.009894 
L 132.950901 364.905236 
L 133.348093 364.905236 
L 133.348093 363.800579 
L 134.367308 363.800579 
L 134.367308 362.695921 
L 134.523063 362.695921 
L 134.570222 360.486606 
L 134.835238 360.486606 
L 134.847525 358.27729 
L 135.467556 358.27729 
L 135.467556 357.172633 
L 135.735561 357.172633 
L 135.810284 354.963318 
L 135.872054 354.963318 
L 135.943788 352.754002 
L 136.372861 352.754002 
L 136.372861 351.649345 
L 136.535258 351.649345 
L 136.642195 347.230714 
L 136.682711 347.230714 
L 136.683043 345.021399 
L 136.91817 345.021399 
L 136.91817 343.916741 
L 137.21706 343.916741 
L 137.21706 342.812084 
L 137.738125 342.812084 
L 137.738125 341.707426 
L 138.16421 341.707426 
L 138.267161 339.498111 
L 138.439188 339.498111 
L 138.439188 338.393453 
L 138.579667 338.393453 
L 138.579667 337.288795 
L 138.693245 337.288795 
L 138.693245 336.184138 
L 138.806159 336.184138 
L 138.906786 333.974822 
L 139.021692 333.974822 
L 139.093426 331.765507 
L 139.49095 331.765507 
L 139.533459 329.556192 
L 139.640727 329.556192 
L 139.70449 326.242219 
L 139.799471 326.242219 
L 139.908732 322.928246 
L 139.92434 322.928246 
L 140.018657 318.509616 
L 140.081092 318.509616 
L 140.158803 316.3003 
L 140.304595 316.3003 
L 140.336809 314.090985 
L 140.5457 314.090985 
L 140.621087 311.88167 
L 140.658614 311.88167 
L 140.754923 308.567697 
L 140.816694 308.567697 
L 140.910346 306.358382 
L 140.952855 306.358382 
L 140.952855 305.253724 
L 141.115252 305.253724 
L 141.222188 301.939751 
L 141.377611 301.939751 
L 141.418791 299.730436 
L 141.639306 299.730436 
L 141.696095 296.416463 
L 141.806352 296.416463 
L 141.890373 293.10249 
L 142.099929 293.10249 
L 142.099929 291.997832 
L 142.230444 291.997832 
L 142.308488 287.579202 
L 142.358303 287.579202 
L 142.457933 284.265229 
L 142.514722 284.265229 
L 142.607046 280.951256 
L 142.905272 280.951256 
L 142.957411 276.532625 
L 143.029477 276.532625 
L 143.127779 271.009337 
L 143.151026 271.009337 
L 143.24667 268.800022 
L 143.294161 268.800022 
L 143.294161 267.695364 
L 143.60401 267.695364 
L 143.698659 263.276734 
L 143.915852 263.276734 
L 143.928472 261.067419 
L 144.058323 261.067419 
L 144.123747 257.753446 
L 144.248285 257.753446 
L 144.341937 254.439473 
L 144.463485 254.439473 
L 144.463485 253.334815 
L 144.585366 253.334815 
L 144.639499 251.1255 
L 144.703262 251.1255 
L 144.77732 247.811527 
L 145.051967 247.811527 
L 145.139309 244.497554 
L 145.275802 244.497554 
L 145.332592 242.288239 
L 145.528863 242.288239 
L 145.587312 240.078924 
L 145.690596 240.078924 
L 145.783584 236.764951 
L 145.825096 236.764951 
L 145.902143 234.555635 
L 145.9586 234.555635 
L 146.014393 231.241662 
L 146.155868 231.241662 
L 146.155868 230.137005 
L 146.484979 230.137005 
L 146.565015 226.823032 
L 146.603871 226.823032 
L 146.603871 225.718374 
L 146.784866 225.718374 
L 146.784866 224.613717 
L 147.046228 224.613717 
L 147.075121 221.299744 
L 147.205637 221.299744 
L 147.205637 220.195086 
L 147.344454 220.195086 
L 147.416188 215.776456 
L 147.594194 215.776456 
L 147.609138 213.56714 
L 147.813048 213.56714 
L 147.87349 211.357825 
L 148.020278 211.357825 
L 148.020278 210.253167 
L 148.184668 210.253167 
L 148.184668 209.14851 
L 148.520089 209.14851 
L 148.562598 205.834537 
L 148.778131 205.834537 
L 148.855178 203.625222 
L 149.013922 203.625222 
L 149.07536 201.415906 
L 149.231115 201.415906 
L 149.339048 198.101933 
L 149.352996 198.101933 
L 149.370598 195.892618 
L 149.785059 195.892618 
L 149.785059 194.787961 
L 149.942142 194.787961 
L 149.984983 192.578645 
L 150.439628 192.578645 
L 150.439628 191.473988 
L 150.844126 191.473988 
L 150.94442 187.055357 
L 151.100175 187.055357 
L 151.103496 184.846042 
L 151.584709 184.846042 
L 151.695299 181.532069 
L 151.940721 181.532069 
L 152.009798 177.113438 
L 152.120055 177.113438 
L 152.120055 176.008781 
L 152.44186 176.008781 
L 152.44186 174.904123 
L 152.629829 174.904123 
L 152.699902 171.59015 
L 152.755362 171.59015 
L 152.802853 168.276177 
L 153.077832 168.276177 
L 153.133624 166.066862 
L 153.288383 166.066862 
L 153.293033 163.857547 
L 153.413253 163.857547 
L 153.492625 160.543574 
L 153.667642 160.543574 
L 153.667642 159.438916 
L 153.787198 159.438916 
L 153.849632 157.229601 
L 153.986458 157.229601 
L 154.051549 152.81097 
L 154.212286 152.81097 
L 154.31889 147.287682 
L 154.355089 147.287682 
L 154.409221 143.973709 
L 154.594201 143.973709 
L 154.671912 141.764394 
L 154.979105 141.764394 
L 155.073422 139.555079 
L 155.235154 139.555079 
L 155.235154 138.450421 
L 155.626368 138.450421 
L 155.626368 137.345763 
L 155.914299 137.345763 
L 156.021235 132.927133 
L 156.145109 132.927133 
L 156.239093 130.717818 
L 156.681118 130.717818 
L 156.681118 129.61316 
L 157.023846 129.61316 
L 157.03879 127.403845 
L 157.511701 127.403845 
L 157.511701 126.299187 
L 157.683729 126.299187 
L 157.683729 125.19453 
L 157.98594 125.19453 
L 158.074943 120.775899 
L 159.055967 120.775899 
L 159.055967 119.671241 
L 159.847361 119.671241 
L 159.847361 118.566584 
L 160.137285 118.566584 
L 160.137285 117.461926 
L 160.400972 117.461926 
L 160.400972 116.357268 
L 160.538462 116.357268 
L 160.538462 115.252611 
L 160.94296 115.252611 
L 160.94296 114.147953 
L 161.48694 114.147953 
L 161.490925 111.938638 
L 161.959186 111.938638 
L 162.020957 109.729323 
L 162.14317 109.729323 
L 162.204276 107.520007 
L 163.504448 107.520007 
L 163.504448 106.41535 
L 164.003263 106.41535 
L 164.003263 105.310692 
L 164.936464 105.310692 
L 164.936464 104.206034 
L 165.303435 104.206034 
L 165.364209 101.996719 
L 167.985144 101.996719 
L 168.002745 99.787404 
L 168.723735 99.787404 
L 168.723735 98.682746 
L 169.351736 98.682746 
L 169.351736 97.578089 
L 169.936232 97.578089 
L 169.936232 96.473431 
L 170.14147 96.473431 
L 170.14147 95.368773 
L 171.271275 95.368773 
L 171.271275 94.264116 
L 171.903262 94.264116 
L 171.903262 93.159458 
L 172.165289 93.159458 
L 172.260269 90.950143 
L 172.402408 90.950143 
L 172.492407 87.63617 
L 172.721889 87.63617 
L 172.721889 86.531512 
L 173.113767 86.531512 
L 173.113767 85.426855 
L 173.402694 85.426855 
L 173.402694 84.322197 
L 173.825457 84.322197 
L 173.905493 82.112882 
L 174.082503 82.112882 
L 174.082503 81.008224 
L 174.235269 81.008224 
L 174.235269 79.903566 
L 174.447149 79.903566 
L 174.447149 78.798909 
L 174.852311 78.798909 
L 174.852311 77.694251 
L 174.991461 77.694251 
L 175.03563 75.484936 
L 175.692524 75.484936 
L 175.748317 73.275621 
L 176.157465 73.275621 
L 176.208276 71.066305 
L 176.738308 71.066305 
L 176.848897 67.752332 
L 176.962476 67.752332 
L 176.962476 66.647675 
L 177.433726 66.647675 
L 177.433726 65.543017 
L 177.555939 65.543017 
L 177.555939 64.43836 
L 178.080325 64.43836 
L 178.080325 63.333702 
L 178.579471 63.333702 
L 178.579471 62.229044 
L 178.762791 62.229044 
L 178.762791 61.124387 
L 179.929458 61.124387 
L 179.929458 60.019729 
L 180.45949 60.019729 
L 180.45949 58.915071 
L 180.735133 58.915071 
L 180.735133 57.810414 
L 181.530181 57.810414 
L 181.530181 56.705756 
L 182.233901 56.705756 
L 182.233901 55.601099 
L 185.448299 55.601099 
L 185.448299 54.496441 
L 187.026107 54.496441 
L 187.026107 53.391783 
L 187.569755 53.391783 
L 187.569755 52.287126 
L 189.133947 52.287126 
L 189.133947 51.182468 
L 190.124601 51.182468 
L 190.124601 50.07781 
L 190.471978 50.07781 
L 190.471978 48.973153 
L 192.222478 48.973153 
L 192.222478 47.868495 
L 194.108143 47.868495 
L 194.108143 46.763837 
L 195.083189 46.763837 
L 195.083189 45.65918 
L 209.26287 45.65918 
L 209.26287 44.554522 
L 209.388404 44.554522 
L 209.388404 43.449865 
L 212.676859 43.449865 
L 212.676859 42.345207 
L 216.272508 42.345207 
L 216.272508 41.240549 
L 217.666996 41.240549 
L 217.666996 40.135892 
L 221.363935 40.135892 
L 221.363935 39.031234 
L 222.228392 39.031234 
L 222.228392 37.926576 
L 230.858347 37.926576 
L 230.858347 36.821919 
L 234.637647 36.821919 
L 234.637647 35.717261 
L 237.237991 35.717261 
L 237.237991 34.612603 
L 239.781214 34.612603 
L 239.781214 33.507946 
L 270.264356 33.507946 
L 270.264356 32.403288 
L 276.218248 32.403288 
L 276.218248 31.298631 
L 282.535789 31.298631 
L 282.535789 30.193973 
L 285.191927 30.193973 
L 285.191927 29.089315 
L 291.390908 29.089315 
L 291.390908 27.984658 
L 297.23886 27.984658 
L 297.23886 26.88 
L 297.23886 26.88 
" clip-path="url(#p520fcf383e)" style="fill: none; stroke: #1f77b4; stroke-width: 1.5; stroke-linecap: square"/>
   </g>
   <g id="patch_3">
    <path d="M 33.64 391.41702 
L 33.64 26.88 
" style="fill: none; stroke: #000000; stroke-width: 0.8; stroke-linejoin: miter; stroke-linecap: square"/>
   </g>
   <g id="patch_4">
    <path d="M 697.84033 391.41702 
L 697.84033 26.88 
" style="fill: none; stroke: #000000; stroke-width: 0.8; stroke-linejoin: miter; stroke-linecap: square"/>
   </g>
   <g id="patch_5">
    <path d="M 33.64 391.41702 
L 697.84033 391.41702 
" style="fill: none; stroke: #000000; stroke-width: 0.8; stroke-linejoin: miter; stroke-linecap: square"/>
   </g>
   <g id="patch_6">
    <path d="M 33.64 26.88 
L 697.84033 26.88 
" style="fill: none; stroke: #000000; stroke-width: 0.8; stroke-linejoin: miter; stroke-linecap: square"/>
   </g>
   <g id="text_16">
    <!-- Consensus duration (proposer) -->
    <g transform="translate(273.08329 20.88) scale(0.12 -0.12)">
     <defs>
      <path id="DejaVuSans-43" d="M 4122 4306 
L 4122 3641 
Q 3803 3938 3442 4084 
Q 3081 4231 2675 4231 
Q 1875 4231 1450 3742 
Q 1025 3253 1025 2328 
Q 1025 1406 1450 917 
Q 1875 428 2675 428 
Q 3081 428 3442 575 
Q 3803 722 4122 1019 
L 4122 359 
Q 3791 134 3420 21 
Q 3050 -91 2638 -91 
Q 1578 -91 968 557 
Q 359 1206 359 2328 
Q 359 3453 968 4101 
Q 1578 4750 2638 4750 
Q 3056 4750 3426 4639 
Q 3797 4528 4122 4306 
z
" transform="scale(0.015625)"/>
      <path id="DejaVuSans-6f" d="M 1959 3097 
Q 1497 3097 1228 2736 
Q 959 2375 959 1747 
Q 959 1119 1226 758 
Q 1494 397 1959 397 
Q 2419 397 2687 759 
Q 2956 1122 2956 1747 
Q 2956 2369 2687 2733 
Q 2419 3097 1959 3097 
z
M 1959 3584 
Q 2709 3584 3137 3096 
Q 3566 2609 3566 1747 
Q 3566 888 3137 398 
Q 2709 -91 1959 -91 
Q 1206 -91 779 398 
Q 353 888 353 1747 
Q 353 2609 779 3096 
Q 1206 3584 1959 3584 
z
" transform="scale(0.015625)"/>
      <path id="DejaVuSans-6e" d="M 3513 2113 
L 3513 0 
L 2938 0 
L 2938 2094 
Q 2938 2591 2744 2837 
Q 2550 3084 2163 3084 
Q 1697 3084 1428 2787 
Q 1159 2491 1159 1978 
L 1159 0 
L 581 0 
L 581 3500 
L 1159 3500 
L 1159 2956 
Q 1366 3272 1645 3428 
Q 1925 3584 2291 3584 
Q 2894 3584 3203 3211 
Q 3513 2838 3513 2113 
z
" transform="scale(0.015625)"/>
      <path id="DejaVuSans-73" d="M 2834 3397 
L 2834 2853 
Q 2591 2978 2328 3040 
Q 2066 3103 1784 3103 
Q 1356 3103 1142 2972 
Q 928 2841 928 2578 
Q 928 2378 1081 2264 
Q 1234 2150 1697 2047 
L 1894 2003 
Q 2506 1872 2764 1633 
Q 3022 1394 3022 966 
Q 3022 478 2636 193 
Q 2250 -91 1575 -91 
Q 1294 -91 989 -36 
Q 684 19 347 128 
L 347 722 
Q 666 556 975 473 
Q 1284 391 1588 391 
Q 1994 391 2212 530 
Q 2431 669 2431 922 
Q 2431 1156 2273 1281 
Q 2116 1406 1581 1522 
L 1381 1569 
Q 847 1681 609 1914 
Q 372 2147 372 2553 
Q 372 3047 722 3315 
Q 1072 3584 1716 3584 
Q 2034 3584 2315 3537 
Q 2597 3491 2834 3397 
z
" transform="scale(0.015625)"/>
      <path id="DejaVuSans-65" d="M 3597 1894 
L 3597 1613 
L 953 1613 
Q 991 1019 1311 708 
Q 1631 397 2203 397 
Q 2534 397 2845 478 
Q 3156 559 3463 722 
L 3463 178 
Q 3153 47 2828 -22 
Q 2503 -91 2169 -91 
Q 1331 -91 842 396 
Q 353 884 353 1716 
Q 353 2575 817 3079 
Q 1281 3584 2069 3584 
Q 2775 3584 3186 3129 
Q 3597 2675 3597 1894 
z
M 3022 2063 
Q 3016 2534 2758 2815 
Q 2500 3097 2075 3097 
Q 1594 3097 1305 2825 
Q 1016 2553 972 2059 
L 3022 2063 
z
" transform="scale(0.015625)"/>
      <path id="DejaVuSans-75" d="M 544 1381 
L 544 3500 
L 1119 3500 
L 1119 1403 
Q 1119 906 1312 657 
Q 1506 409 1894 409 
Q 2359 409 2629 706 
Q 2900 1003 2900 1516 
L 2900 3500 
L 3475 3500 
L 3475 0 
L 2900 0 
L 2900 538 
Q 2691 219 2414 64 
Q 2138 -91 1772 -91 
Q 1169 -91 856 284 
Q 544 659 544 1381 
z
M 1991 3584 
L 1991 3584 
z
" transform="scale(0.015625)"/>
      <path id="DejaVuSans-20" transform="scale(0.015625)"/>
      <path id="DejaVuSans-64" d="M 2906 2969 
L 2906 4863 
L 3481 4863 
L 3481 0 
L 2906 0 
L 2906 525 
Q 2725 213 2448 61 
Q 2172 -91 1784 -91 
Q 1150 -91 751 415 
Q 353 922 353 1747 
Q 353 2572 751 3078 
Q 1150 3584 1784 3584 
Q 2172 3584 2448 3432 
Q 2725 3281 2906 2969 
z
M 947 1747 
Q 947 1113 1208 752 
Q 1469 391 1925 391 
Q 2381 391 2643 752 
Q 2906 1113 2906 1747 
Q 2906 2381 2643 2742 
Q 2381 3103 1925 3103 
Q 1469 3103 1208 2742 
Q 947 2381 947 1747 
z
" transform="scale(0.015625)"/>
      <path id="DejaVuSans-72" d="M 2631 2963 
Q 2534 3019 2420 3045 
Q 2306 3072 2169 3072 
Q 1681 3072 1420 2755 
Q 1159 2438 1159 1844 
L 1159 0 
L 581 0 
L 581 3500 
L 1159 3500 
L 1159 2956 
Q 1341 3275 1631 3429 
Q 1922 3584 2338 3584 
Q 2397 3584 2469 3576 
Q 2541 3569 2628 3553 
L 2631 2963 
z
" transform="scale(0.015625)"/>
      <path id="DejaVuSans-61" d="M 2194 1759 
Q 1497 1759 1228 1600 
Q 959 1441 959 1056 
Q 959 750 1161 570 
Q 1363 391 1709 391 
Q 2188 391 2477 730 
Q 2766 1069 2766 1631 
L 2766 1759 
L 2194 1759 
z
M 3341 1997 
L 3341 0 
L 2766 0 
L 2766 531 
Q 2569 213 2275 61 
Q 1981 -91 1556 -91 
Q 1019 -91 701 211 
Q 384 513 384 1019 
Q 384 1609 779 1909 
Q 1175 2209 1959 2209 
L 2766 2209 
L 2766 2266 
Q 2766 2663 2505 2880 
Q 2244 3097 1772 3097 
Q 1472 3097 1187 3025 
Q 903 2953 641 2809 
L 641 3341 
Q 956 3463 1253 3523 
Q 1550 3584 1831 3584 
Q 2591 3584 2966 3190 
Q 3341 2797 3341 1997 
z
" transform="scale(0.015625)"/>
      <path id="DejaVuSans-74" d="M 1172 4494 
L 1172 3500 
L 2356 3500 
L 2356 3053 
L 1172 3053 
L 1172 1153 
Q 1172 725 1289 603 
Q 1406 481 1766 481 
L 2356 481 
L 2356 0 
L 1766 0 
Q 1100 0 847 248 
Q 594 497 594 1153 
L 594 3053 
L 172 3053 
L 172 3500 
L 594 3500 
L 594 4494 
L 1172 4494 
z
" transform="scale(0.015625)"/>
      <path id="DejaVuSans-69" d="M 603 3500 
L 1178 3500 
L 1178 0 
L 603 0 
L 603 3500 
z
M 603 4863 
L 1178 4863 
L 1178 4134 
L 603 4134 
L 603 4863 
z
" transform="scale(0.015625)"/>
      <path id="DejaVuSans-28" d="M 1984 4856 
Q 1566 4138 1362 3434 
Q 1159 2731 1159 2009 
Q 1159 1288 1364 580 
Q 1569 -128 1984 -844 
L 1484 -844 
Q 1016 -109 783 600 
Q 550 1309 550 2009 
Q 550 2706 781 3412 
Q 1013 4119 1484 4856 
L 1984 4856 
z
" transform="scale(0.015625)"/>
      <path id="DejaVuSans-70" d="M 1159 525 
L 1159 -1331 
L 581 -1331 
L 581 3500 
L 1159 3500 
L 1159 2969 
Q 1341 3281 1617 3432 
Q 1894 3584 2278 3584 
Q 2916 3584 3314 3078 
Q 3713 2572 3713 1747 
Q 3713 922 3314 415 
Q 2916 -91 2278 -91 
Q 1894 -91 1617 61 
Q 1341 213 1159 525 
z
M 3116 1747 
Q 3116 2381 2855 2742 
Q 2594 3103 2138 3103 
Q 1681 3103 1420 2742 
Q 1159 2381 1159 1747 
Q 1159 1113 1420 752 
Q 1681 391 2138 391 
Q 2594 391 2855 752 
Q 3116 1113 3116 1747 
z
" transform="scale(0.015625)"/>
      <path id="DejaVuSans-29" d="M 513 4856 
L 1013 4856 
Q 1481 4119 1714 3412 
Q 1947 2706 1947 2009 
Q 1947 1309 1714 600 
Q 1481 -109 1013 -844 
L 513 -844 
Q 928 -128 1133 580 
Q 1338 1288 1338 2009 
Q 1338 2731 1133 3434 
Q 928 4138 513 4856 
z
" transform="scale(0.015625)"/>
     </defs>
     <use xlink:href="#DejaVuSans-43"/>
     <use xlink:href="#DejaVuSans-6f" transform="translate(69.824219 0)"/>
     <use xlink:href="#DejaVuSans-6e" transform="translate(131.005859 0)"/>
     <use xlink:href="#DejaVuSans-73" transform="translate(194.384766 0)"/>
     <use xlink:href="#DejaVuSans-65" transform="translate(246.484375 0)"/>
     <use xlink:href="#DejaVuSans-6e" transform="translate(308.007812 0)"/>
     <use xlink:href="#DejaVuSans-73" transform="translate(371.386719 0)"/>
     <use xlink:href="#DejaVuSans-75" transform="translate(423.486328 0)"/>
     <use xlink:href="#DejaVuSans-73" transform="translate(486.865234 0)"/>
     <use xlink:href="#DejaVuSans-20" transform="translate(538.964844 0)"/>
     <use xlink:href="#DejaVuSans-64" transform="translate(570.751953 0)"/>
     <use xlink:href="#DejaVuSans-75" transform="translate(634.228516 0)"/>
     <use xlink:href="#DejaVuSans-72" transform="translate(697.607422 0)"/>
     <use xlink:href="#DejaVuSans-61" transform="translate(738.720703 0)"/>
     <use xlink:href="#DejaVuSans-74" transform="translate(800 0)"/>
     <use xlink:href="#DejaVuSans-69" transform="translate(839.208984 0)"/>
     <use xlink:href="#DejaVuSans-6f" transform="translate(866.992188 0)"/>
     <use xlink:href="#DejaVuSans-6e" transform="translate(928.173828 0)"/>
     <use xlink:href="#DejaVuSans-20" transform="translate(991.552734 0)"/>
     <use xlink:href="#DejaVuSans-28" transform="translate(1023.339844 0)"/>
     <use xlink:href="#DejaVuSans-70" transform="translate(1062.353516 0)"/>
     <use xlink:href="#DejaVuSans-72" transform="translate(1125.830078 0)"/>
     <use xlink:href="#DejaVuSans-6f" transform="translate(1164.693359 0)"/>
     <use xlink:href="#DejaVuSans-70" transform="translate(1225.875 0)"/>
     <use xlink:href="#DejaVuSans-6f" transform="translate(1289.351562 0)"/>
     <use xlink:href="#DejaVuSans-73" transform="translate(1350.533203 0)"/>
     <use xlink:href="#DejaVuSans-65" transform="translate(1402.632812 0)"/>
     <use xlink:href="#DejaVuSans-72" transform="translate(1464.15625 0)"/>
     <use xlink:href="#DejaVuSans-29" transform="translate(1505.269531 0)"/>
    </g>
   </g>
  </g>
 </g>
 <defs>
  <clipPath id="p520fcf383e">
   <rect x="33.64" y="26.88" width="664.20033" height="364.53702"/>
  </clipPath>
 </defs>
</svg>
